M48
;GenerationSoftware,Autodesk,EAGLE,9.6.2*%
;CreationDate,2020-08-08T11:14:01Z*%
FMAT,2
ICI,OFF
METRIC,TZ,000.000
T2C0.350
T1C4.000
%
G90
M71
T1
X4500Y4000
X4500Y34000
X34500Y34000
X34500Y4000
T2
X35776Y10150
X23196Y29334
X13749Y22736
X31212Y32849
X31354Y29794
X24109Y18498
X20267Y21327
X29864Y23562
X20052Y18056
X6795Y24741
X7231Y10869
X12772Y2131
X22200Y9000
X12000Y4600
X32900Y11300
X14000Y29600
X26773Y18516
X26000Y24000
X12100Y12800
X12600Y16400
X6359Y26542
X3616Y17692
X7287Y15196
X23779Y22391
X32892Y15980
X28946Y19853
X26551Y19814
X27210Y24827
X13663Y17465
X19069Y8682
X20265Y15270
X11861Y25250
X27750Y23250
X20750Y16500
X26000Y23250
X20750Y18500
X26000Y22250
X20750Y17500
X15300Y30900
X23600Y26100
X17600Y32500
X31600Y5100
X31200Y27700
X26100Y29500
X20900Y20400
X21454Y31797
X18900Y22800
X20426Y32582
X20223Y22531
X19404Y11404
X6700Y14200
X19500Y19900
X19206Y7554
X13000Y4500
X18500Y22000
X14000Y4500
X17750Y21250
X15000Y4500
X17746Y20000
X16000Y4500
X16749Y22250
X18100Y29300
X16248Y14561
X9539Y14407
X13940Y14120
X18300Y30500
X16400Y25900
X25000Y5100
X12199Y21700
X12534Y22534
X8500Y32600
X12200Y28400
X10600Y32600
X27000Y32800
X12800Y20300
X27000Y27900
X12800Y19400
X14000Y28200
X25900Y32200
X27800Y20400
X16444Y30170
X13396Y21604
M30