G04 EAGLE Gerber RS-274X export*
G75*
%MOMM*%
%FSLAX34Y34*%
%LPD*%
%INCopper Layer 2*%
%IPPOS*%
%AMOC8*
5,1,8,0,0,1.08239X$1,22.5*%
G01*
%ADD10C,0.650000*%
%ADD11C,0.152400*%
%ADD12C,0.304800*%


D10*
X181000Y293000D03*
X259000Y322000D03*
X278000Y204000D03*
X164442Y301697D03*
X357762Y101497D03*
X231956Y293342D03*
X137488Y227358D03*
X312122Y328492D03*
D11*
X313543Y327071D01*
X313543Y297945D01*
D10*
X313543Y297945D03*
X241088Y184984D03*
X202672Y213266D03*
X298644Y235619D03*
D11*
X298644Y283046D01*
X313543Y297945D01*
D10*
X200520Y180557D03*
X67947Y247407D03*
X72312Y108689D03*
D11*
X67853Y149888D02*
X67853Y154040D01*
X72312Y145429D02*
X72312Y108689D01*
X72312Y145429D02*
X67853Y149888D01*
X67853Y154040D02*
X67947Y154134D01*
X67947Y247407D01*
D10*
X127722Y21308D03*
X222000Y90000D03*
X120000Y46000D03*
X329000Y113000D03*
X140000Y296000D03*
X267731Y185157D03*
X260000Y240000D03*
X121000Y128000D03*
X126000Y164000D03*
X63592Y265425D03*
X36157Y176924D03*
X72865Y151964D03*
X237795Y223908D03*
X328918Y159799D03*
X289461Y198525D03*
X265509Y198143D03*
X272097Y248269D03*
D12*
X189794Y174540D02*
X136626Y174540D01*
X189794Y174540D02*
X205108Y159226D01*
X226592Y159226D02*
X265509Y198143D01*
X226592Y159226D02*
X205108Y159226D01*
X136626Y174540D02*
X136626Y174646D01*
D10*
X136626Y174646D03*
X190687Y86816D03*
X202647Y152698D03*
X118607Y252499D03*
X277500Y232500D03*
D11*
X210000Y165000D01*
X207500Y165000D01*
D10*
X207500Y165000D03*
X260000Y232500D03*
D11*
X255000Y232500D01*
X207500Y185000D01*
D10*
X207500Y185000D03*
X260000Y222500D03*
D11*
X255000Y222500D01*
X207500Y175000D01*
D10*
X207500Y175000D03*
X153000Y309000D03*
X236000Y261000D03*
D11*
X266012Y292924D02*
X266012Y297076D01*
X236000Y262912D02*
X236000Y261000D01*
X236000Y262912D02*
X266012Y292924D01*
X230076Y333012D02*
X201924Y333012D01*
X230076Y333012D02*
X266012Y297076D01*
X177912Y309000D02*
X153000Y309000D01*
X177912Y309000D02*
X201924Y333012D01*
D10*
X176000Y325000D03*
X316000Y51000D03*
D11*
X316000Y273000D01*
X312000Y277000D01*
D10*
X312000Y277000D03*
X261000Y295000D03*
D11*
X209000Y243000D01*
X209000Y204000D01*
D10*
X209000Y204000D03*
X214536Y317969D03*
D11*
X189087Y292519D01*
X189087Y228087D01*
X189000Y228000D01*
D10*
X189000Y228000D03*
X204256Y325825D03*
D11*
X204171Y325740D01*
D10*
X202228Y225314D03*
D11*
X204256Y227342D01*
X219548Y320045D02*
X216612Y322981D01*
X219548Y320045D02*
X219548Y315893D01*
X204256Y300600D02*
X204256Y227342D01*
X204256Y300600D02*
X219548Y315893D01*
X207100Y322981D02*
X204256Y325825D01*
X207100Y322981D02*
X216612Y322981D01*
D10*
X194044Y114044D03*
X67000Y142000D03*
X195000Y199000D03*
X192060Y75542D03*
X130000Y45000D03*
X185000Y220000D03*
X140000Y45000D03*
X177500Y212500D03*
X150000Y45000D03*
X177464Y200000D03*
X160000Y45000D03*
X167488Y222500D03*
X122000Y284000D03*
X162476Y145612D03*
X95393Y144073D03*
D11*
X136526Y144073D01*
X139402Y141197D01*
D10*
X139402Y141197D03*
X183000Y305000D03*
D11*
X164000Y286000D01*
X164000Y259000D01*
D10*
X164000Y259000D03*
X250000Y51000D03*
D11*
X121988Y179012D01*
X121988Y217000D01*
D10*
X121988Y217000D03*
X125335Y225335D03*
X85000Y326000D03*
D11*
X85000Y265670D02*
X125335Y225335D01*
X85000Y265670D02*
X85000Y326000D01*
D10*
X133956Y216044D03*
X106000Y326000D03*
D11*
X130347Y219653D02*
X133956Y216044D01*
X130347Y219653D02*
X130347Y227411D01*
X106000Y251758D02*
X106000Y326000D01*
X106000Y251758D02*
X130347Y227411D01*
D10*
X270000Y328000D03*
X128000Y203000D03*
D11*
X238658Y328000D02*
X270000Y328000D01*
X238658Y328000D02*
X231122Y335536D01*
X172448Y335536D01*
X147988Y311076D01*
X147988Y222988D02*
X128000Y203000D01*
X147988Y222988D02*
X147988Y311076D01*
D10*
X270000Y279000D03*
X128000Y194000D03*
X140000Y282000D03*
M02*
