G04 EAGLE Gerber RS-274X export*
G75*
%MOMM*%
%FSLAX34Y34*%
%LPD*%
%INSilkscreen Top*%
%IPPOS*%
%AMOC8*
5,1,8,0,0,1.08239X$1,22.5*%
G01*
%ADD10R,0.170181X0.084838*%
%ADD11R,0.337819X0.084581*%
%ADD12R,0.421637X0.084838*%
%ADD13R,0.424181X0.084838*%
%ADD14R,0.340363X0.084581*%
%ADD15R,0.424181X0.084581*%
%ADD16R,0.086363X0.084838*%
%ADD17R,0.167637X0.084838*%
%ADD18R,0.337819X0.084838*%
%ADD19R,0.340363X0.084838*%
%ADD20R,0.254000X0.084581*%
%ADD21R,0.929638X0.084581*%
%ADD22R,0.762000X0.084581*%
%ADD23R,1.102363X0.084581*%
%ADD24R,0.421637X0.084581*%
%ADD25R,1.099819X0.084581*%
%ADD26R,1.270000X0.084838*%
%ADD27R,1.353819X0.084581*%
%ADD28R,0.508000X0.084581*%
%ADD29R,1.437638X0.084581*%
%ADD30R,0.594363X0.084581*%
%ADD31R,0.591819X0.084581*%
%ADD32R,0.254000X0.084838*%
%ADD33R,0.678181X0.084838*%
%ADD34R,0.678181X0.084581*%
%ADD35R,0.170181X0.084581*%
%ADD36R,0.848363X0.084581*%
%ADD37R,1.102363X0.084838*%
%ADD38R,0.932181X0.084581*%
%ADD39R,1.778000X0.084581*%
%ADD40R,1.861819X0.084838*%
%ADD41R,0.508000X0.084838*%
%ADD42R,1.861819X0.084581*%
%ADD43R,1.270000X0.084581*%
%ADD44R,1.183638X0.084581*%
%ADD45R,1.186181X0.084581*%
%ADD46R,1.356363X0.084581*%
%ADD47R,0.591819X0.084838*%
%ADD48R,1.186181X0.084838*%
%ADD49R,1.356363X0.084838*%
%ADD50R,1.016000X0.084581*%
%ADD51R,0.675638X0.084581*%
%ADD52R,0.083819X0.084838*%
%ADD53R,0.167637X0.084581*%
%ADD54R,1.440181X0.084581*%
%ADD55R,1.524000X0.084838*%
%ADD56R,1.524000X0.084581*%
%ADD57R,0.675638X0.084838*%
%ADD58R,0.083819X0.084581*%
%ADD59R,0.086363X0.084581*%
%ADD60C,0.025400*%
%ADD61C,0.200000*%
%ADD62C,0.254000*%
%ADD63C,0.250000*%
%ADD64C,0.100000*%
%ADD65C,0.100000*%
%ADD66C,0.200000*%
%ADD67C,0.152400*%
%ADD68C,0.101600*%


D10*
G36*
X336661Y242742D02*
X336684Y244442D01*
X337531Y244430D01*
X337508Y242730D01*
X336661Y242742D01*
G37*
D11*
G36*
X337497Y241892D02*
X337544Y245268D01*
X338389Y245256D01*
X338342Y241880D01*
X337497Y241892D01*
G37*
G36*
X338343Y241880D02*
X338390Y245256D01*
X339235Y245244D01*
X339188Y241868D01*
X338343Y241880D01*
G37*
D12*
G36*
X339177Y241030D02*
X339236Y245244D01*
X340083Y245232D01*
X340024Y241018D01*
X339177Y241030D01*
G37*
D11*
G36*
X340026Y241019D02*
X340073Y244395D01*
X340918Y244383D01*
X340871Y241007D01*
X340026Y241019D01*
G37*
G36*
X340871Y241007D02*
X340918Y244383D01*
X341763Y244371D01*
X341716Y240995D01*
X340871Y241007D01*
G37*
D13*
G36*
X341705Y240131D02*
X341764Y244371D01*
X342611Y244359D01*
X342552Y240119D01*
X341705Y240131D01*
G37*
D14*
G36*
X342553Y240119D02*
X342600Y243521D01*
X343445Y243509D01*
X343398Y240107D01*
X342553Y240119D01*
G37*
D15*
G36*
X343387Y239269D02*
X343446Y243509D01*
X344291Y243497D01*
X344232Y239257D01*
X343387Y239269D01*
G37*
D16*
G36*
X345274Y313748D02*
X345286Y314611D01*
X346132Y314600D01*
X346120Y313737D01*
X345274Y313748D01*
G37*
D10*
G36*
X345049Y297672D02*
X345072Y299372D01*
X345919Y299360D01*
X345896Y297660D01*
X345049Y297672D01*
G37*
D12*
G36*
X344860Y284135D02*
X344919Y288349D01*
X345766Y288337D01*
X345707Y284123D01*
X344860Y284135D01*
G37*
D17*
G36*
X344718Y273976D02*
X344741Y275650D01*
X345588Y275638D01*
X345565Y273964D01*
X344718Y273976D01*
G37*
D10*
G36*
X344588Y264655D02*
X344611Y266355D01*
X345458Y266343D01*
X345435Y264643D01*
X344588Y264655D01*
G37*
D17*
G36*
X344505Y258738D02*
X344528Y260412D01*
X345375Y260400D01*
X345352Y258726D01*
X344505Y258738D01*
G37*
D18*
G36*
X344233Y239258D02*
X344280Y242634D01*
X345127Y242622D01*
X345080Y239246D01*
X344233Y239258D01*
G37*
D17*
G36*
X344080Y228261D02*
X344103Y229935D01*
X344950Y229923D01*
X344927Y228249D01*
X344080Y228261D01*
G37*
D19*
G36*
X343749Y204539D02*
X343796Y207941D01*
X344643Y207929D01*
X344596Y204527D01*
X343749Y204539D01*
G37*
D20*
G36*
X346110Y312899D02*
X346145Y315437D01*
X346990Y315425D01*
X346955Y312887D01*
X346110Y312899D01*
G37*
D11*
G36*
X345885Y296822D02*
X345932Y300198D01*
X346777Y300186D01*
X346730Y296810D01*
X345885Y296822D01*
G37*
D21*
G36*
X345673Y281584D02*
X345802Y290878D01*
X346647Y290866D01*
X346518Y281572D01*
X345673Y281584D01*
G37*
D14*
G36*
X345554Y273101D02*
X345601Y276503D01*
X346446Y276491D01*
X346399Y273089D01*
X345554Y273101D01*
G37*
D11*
G36*
X345424Y263805D02*
X345471Y267181D01*
X346316Y267169D01*
X346269Y263793D01*
X345424Y263805D01*
G37*
D14*
G36*
X345341Y257862D02*
X345388Y261264D01*
X346233Y261252D01*
X346186Y257850D01*
X345341Y257862D01*
G37*
D11*
G36*
X345081Y239246D02*
X345128Y242622D01*
X345973Y242610D01*
X345926Y239234D01*
X345081Y239246D01*
G37*
D14*
G36*
X344916Y227385D02*
X344963Y230787D01*
X345808Y230775D01*
X345761Y227373D01*
X344916Y227385D01*
G37*
D22*
G36*
X344561Y201988D02*
X344668Y209606D01*
X345513Y209594D01*
X345406Y201976D01*
X344561Y201988D01*
G37*
D11*
G36*
X346955Y312887D02*
X347002Y316263D01*
X347847Y316251D01*
X347800Y312875D01*
X346955Y312887D01*
G37*
G36*
X346731Y296810D02*
X346778Y300186D01*
X347623Y300174D01*
X347576Y296798D01*
X346731Y296810D01*
G37*
D23*
G36*
X346506Y280708D02*
X346660Y291730D01*
X347504Y291718D01*
X347350Y280696D01*
X346506Y280708D01*
G37*
D14*
G36*
X346400Y273089D02*
X346447Y276491D01*
X347292Y276479D01*
X347245Y273077D01*
X346400Y273089D01*
G37*
D11*
G36*
X346270Y263794D02*
X346317Y267170D01*
X347162Y267158D01*
X347115Y263782D01*
X346270Y263794D01*
G37*
D14*
G36*
X346187Y257850D02*
X346234Y261252D01*
X347079Y261240D01*
X347032Y257838D01*
X346187Y257850D01*
G37*
D24*
G36*
X345915Y238396D02*
X345974Y242610D01*
X346819Y242598D01*
X346760Y238384D01*
X345915Y238396D01*
G37*
D14*
G36*
X345762Y227373D02*
X345809Y230775D01*
X346654Y230763D01*
X346607Y227361D01*
X345762Y227373D01*
G37*
D25*
G36*
X345384Y200299D02*
X345537Y211295D01*
X346382Y211283D01*
X346229Y200287D01*
X345384Y200299D01*
G37*
D18*
G36*
X347801Y312875D02*
X347848Y316251D01*
X348695Y316239D01*
X348648Y312863D01*
X347801Y312875D01*
G37*
G36*
X347577Y296799D02*
X347624Y300175D01*
X348471Y300163D01*
X348424Y296787D01*
X347577Y296799D01*
G37*
D26*
G36*
X347340Y279858D02*
X347517Y292556D01*
X348364Y292544D01*
X348187Y279846D01*
X347340Y279858D01*
G37*
D19*
G36*
X347246Y273077D02*
X347293Y276479D01*
X348140Y276467D01*
X348093Y273065D01*
X347246Y273077D01*
G37*
D18*
G36*
X347116Y263782D02*
X347163Y267158D01*
X348010Y267146D01*
X347963Y263770D01*
X347116Y263782D01*
G37*
D19*
G36*
X347033Y257838D02*
X347080Y261240D01*
X347927Y261228D01*
X347880Y257826D01*
X347033Y257838D01*
G37*
D12*
G36*
X346761Y238384D02*
X346820Y242598D01*
X347667Y242586D01*
X347608Y238372D01*
X346761Y238384D01*
G37*
D19*
G36*
X346608Y227361D02*
X346655Y230763D01*
X347502Y230751D01*
X347455Y227349D01*
X346608Y227361D01*
G37*
D26*
G36*
X346217Y199424D02*
X346394Y212122D01*
X347241Y212110D01*
X347064Y199412D01*
X346217Y199424D01*
G37*
D20*
G36*
X348650Y312863D02*
X348685Y315401D01*
X349530Y315389D01*
X349495Y312851D01*
X348650Y312863D01*
G37*
D11*
G36*
X348425Y296787D02*
X348472Y300163D01*
X349317Y300151D01*
X349270Y296775D01*
X348425Y296787D01*
G37*
D27*
G36*
X348188Y279846D02*
X348377Y293382D01*
X349222Y293370D01*
X349033Y279834D01*
X348188Y279846D01*
G37*
D14*
G36*
X348094Y273065D02*
X348141Y276467D01*
X348986Y276455D01*
X348939Y273053D01*
X348094Y273065D01*
G37*
D11*
G36*
X347964Y263770D02*
X348011Y267146D01*
X348856Y267134D01*
X348809Y263758D01*
X347964Y263770D01*
G37*
D14*
G36*
X347881Y257827D02*
X347928Y261229D01*
X348773Y261217D01*
X348726Y257815D01*
X347881Y257827D01*
G37*
D28*
G36*
X347597Y237509D02*
X347668Y242587D01*
X348513Y242575D01*
X348442Y237497D01*
X347597Y237509D01*
G37*
D14*
G36*
X347456Y227350D02*
X347503Y230752D01*
X348348Y230740D01*
X348301Y227338D01*
X347456Y227350D01*
G37*
D29*
G36*
X347042Y197736D02*
X347243Y212110D01*
X348088Y212098D01*
X347887Y197724D01*
X347042Y197736D01*
G37*
D20*
G36*
X349495Y312852D02*
X349530Y315390D01*
X350375Y315378D01*
X350340Y312840D01*
X349495Y312852D01*
G37*
D11*
G36*
X349271Y296775D02*
X349318Y300151D01*
X350163Y300139D01*
X350116Y296763D01*
X349271Y296775D01*
G37*
G36*
X349176Y289994D02*
X349223Y293370D01*
X350068Y293358D01*
X350021Y289982D01*
X349176Y289994D01*
G37*
G36*
X349034Y279835D02*
X349081Y283211D01*
X349926Y283199D01*
X349879Y279823D01*
X349034Y279835D01*
G37*
D14*
G36*
X348940Y273053D02*
X348987Y276455D01*
X349832Y276443D01*
X349785Y273041D01*
X348940Y273053D01*
G37*
D24*
G36*
X348810Y263758D02*
X348869Y267972D01*
X349714Y267960D01*
X349655Y263746D01*
X348810Y263758D01*
G37*
D14*
G36*
X348727Y257815D02*
X348774Y261217D01*
X349619Y261205D01*
X349572Y257803D01*
X348727Y257815D01*
G37*
D30*
G36*
X348443Y237497D02*
X348526Y243439D01*
X349371Y243427D01*
X349288Y237485D01*
X348443Y237497D01*
G37*
D14*
G36*
X348301Y227338D02*
X348348Y230740D01*
X349193Y230728D01*
X349146Y227326D01*
X348301Y227338D01*
G37*
D15*
G36*
X348041Y208722D02*
X348100Y212962D01*
X348945Y212950D01*
X348886Y208710D01*
X348041Y208722D01*
G37*
D31*
G36*
X347887Y197725D02*
X347970Y203641D01*
X348815Y203629D01*
X348732Y197713D01*
X347887Y197725D01*
G37*
D32*
G36*
X350341Y312840D02*
X350376Y315378D01*
X351223Y315366D01*
X351188Y312828D01*
X350341Y312840D01*
G37*
D18*
G36*
X350117Y296763D02*
X350164Y300139D01*
X351011Y300127D01*
X350964Y296751D01*
X350117Y296763D01*
G37*
D13*
G36*
X350022Y289982D02*
X350081Y294222D01*
X350928Y294210D01*
X350869Y289970D01*
X350022Y289982D01*
G37*
D10*
G36*
X349880Y279823D02*
X349903Y281523D01*
X350750Y281511D01*
X350727Y279811D01*
X349880Y279823D01*
G37*
D19*
G36*
X349786Y273042D02*
X349833Y276444D01*
X350680Y276432D01*
X350633Y273030D01*
X349786Y273042D01*
G37*
D18*
G36*
X349667Y264584D02*
X349714Y267960D01*
X350561Y267948D01*
X350514Y264572D01*
X349667Y264584D01*
G37*
D19*
G36*
X349573Y257803D02*
X349620Y261205D01*
X350467Y261193D01*
X350420Y257791D01*
X349573Y257803D01*
G37*
D33*
G36*
X349277Y236647D02*
X349372Y243427D01*
X350219Y243415D01*
X350124Y236635D01*
X349277Y236647D01*
G37*
D19*
G36*
X349147Y227326D02*
X349194Y230728D01*
X350041Y230716D01*
X349994Y227314D01*
X349147Y227326D01*
G37*
G36*
X348899Y209548D02*
X348946Y212950D01*
X349793Y212938D01*
X349746Y209536D01*
X348899Y209548D01*
G37*
D12*
G36*
X348733Y197713D02*
X348792Y201927D01*
X349639Y201915D01*
X349580Y197701D01*
X348733Y197713D01*
G37*
D11*
G36*
X351178Y311990D02*
X351225Y315366D01*
X352070Y315354D01*
X352023Y311978D01*
X351178Y311990D01*
G37*
G36*
X350965Y296751D02*
X351012Y300127D01*
X351857Y300115D01*
X351810Y296739D01*
X350965Y296751D01*
G37*
D34*
G36*
X350834Y287430D02*
X350929Y294210D01*
X351774Y294198D01*
X351679Y287418D01*
X350834Y287430D01*
G37*
D14*
G36*
X350634Y273030D02*
X350681Y276432D01*
X351526Y276420D01*
X351479Y273018D01*
X350634Y273030D01*
G37*
D11*
G36*
X350515Y264573D02*
X350562Y267949D01*
X351407Y267937D01*
X351360Y264561D01*
X350515Y264573D01*
G37*
D14*
G36*
X350421Y257791D02*
X350468Y261193D01*
X351313Y261181D01*
X351266Y257779D01*
X350421Y257791D01*
G37*
D22*
G36*
X350125Y236635D02*
X350232Y244253D01*
X351077Y244241D01*
X350970Y236623D01*
X350125Y236635D01*
G37*
D14*
G36*
X349995Y227314D02*
X350042Y230716D01*
X350887Y230704D01*
X350840Y227302D01*
X349995Y227314D01*
G37*
G36*
X349747Y209536D02*
X349794Y212938D01*
X350639Y212926D01*
X350592Y209524D01*
X349747Y209536D01*
G37*
D35*
G36*
X349594Y198538D02*
X349617Y200239D01*
X350462Y200228D01*
X350439Y198527D01*
X349594Y198538D01*
G37*
D11*
G36*
X352023Y311978D02*
X352070Y315354D01*
X352915Y315342D01*
X352868Y311966D01*
X352023Y311978D01*
G37*
D20*
G36*
X351822Y297578D02*
X351857Y300116D01*
X352702Y300104D01*
X352667Y297566D01*
X351822Y297578D01*
G37*
D36*
G36*
X351656Y285716D02*
X351775Y294198D01*
X352620Y294186D01*
X352501Y285704D01*
X351656Y285716D01*
G37*
D14*
G36*
X351479Y273018D02*
X351526Y276420D01*
X352371Y276408D01*
X352324Y273006D01*
X351479Y273018D01*
G37*
D11*
G36*
X351361Y264561D02*
X351408Y267937D01*
X352253Y267925D01*
X352206Y264549D01*
X351361Y264561D01*
G37*
D14*
G36*
X351267Y257779D02*
X351314Y261181D01*
X352159Y261169D01*
X352112Y257767D01*
X351267Y257779D01*
G37*
D11*
G36*
X351030Y240865D02*
X351077Y244241D01*
X351922Y244229D01*
X351875Y240853D01*
X351030Y240865D01*
G37*
D24*
G36*
X350959Y235786D02*
X351018Y240000D01*
X351863Y239988D01*
X351804Y235774D01*
X350959Y235786D01*
G37*
D14*
G36*
X350841Y227302D02*
X350888Y230704D01*
X351733Y230692D01*
X351686Y227290D01*
X350841Y227302D01*
G37*
D11*
G36*
X350605Y210388D02*
X350652Y213764D01*
X351497Y213752D01*
X351450Y210376D01*
X350605Y210388D01*
G37*
D13*
G36*
X352857Y311102D02*
X352916Y315342D01*
X353763Y315330D01*
X353704Y311090D01*
X352857Y311102D01*
G37*
D32*
G36*
X352668Y297566D02*
X352703Y300104D01*
X353550Y300092D01*
X353515Y297554D01*
X352668Y297566D01*
G37*
D37*
G36*
X352467Y283165D02*
X352621Y294187D01*
X353467Y294175D01*
X353313Y283153D01*
X352467Y283165D01*
G37*
D13*
G36*
X352314Y272168D02*
X352373Y276408D01*
X353220Y276396D01*
X353161Y272156D01*
X352314Y272168D01*
G37*
D18*
G36*
X352207Y264549D02*
X352254Y267925D01*
X353101Y267913D01*
X353054Y264537D01*
X352207Y264549D01*
G37*
D19*
G36*
X352113Y257768D02*
X352160Y261170D01*
X353007Y261158D01*
X352960Y257756D01*
X352113Y257768D01*
G37*
D12*
G36*
X351876Y240853D02*
X351935Y245067D01*
X352782Y245055D01*
X352723Y240841D01*
X351876Y240853D01*
G37*
D18*
G36*
X351805Y235774D02*
X351852Y239150D01*
X352699Y239138D01*
X352652Y235762D01*
X351805Y235774D01*
G37*
D19*
G36*
X351687Y227291D02*
X351734Y230693D01*
X352581Y230681D01*
X352534Y227279D01*
X351687Y227291D01*
G37*
D18*
G36*
X351451Y210376D02*
X351498Y213752D01*
X352345Y213740D01*
X352298Y210364D01*
X351451Y210376D01*
G37*
D38*
G36*
X353634Y306011D02*
X353765Y315331D01*
X354610Y315319D01*
X354479Y305999D01*
X353634Y306011D01*
G37*
D20*
G36*
X353516Y297554D02*
X353551Y300092D01*
X354396Y300080D01*
X354361Y297542D01*
X353516Y297554D01*
G37*
D14*
G36*
X353422Y290773D02*
X353469Y294175D01*
X354314Y294163D01*
X354267Y290761D01*
X353422Y290773D01*
G37*
D34*
G36*
X353303Y282315D02*
X353398Y289095D01*
X354243Y289083D01*
X354148Y282303D01*
X353303Y282315D01*
G37*
D15*
G36*
X353162Y272156D02*
X353221Y276396D01*
X354066Y276384D01*
X354007Y272144D01*
X353162Y272156D01*
G37*
D11*
G36*
X353055Y264537D02*
X353102Y267913D01*
X353947Y267901D01*
X353900Y264525D01*
X353055Y264537D01*
G37*
D14*
G36*
X352961Y257756D02*
X353008Y261158D01*
X353853Y261146D01*
X353806Y257744D01*
X352961Y257756D01*
G37*
D35*
G36*
X352854Y250136D02*
X352877Y251837D01*
X353722Y251826D01*
X353699Y250125D01*
X352854Y250136D01*
G37*
D11*
G36*
X352736Y241679D02*
X352783Y245055D01*
X353628Y245043D01*
X353581Y241667D01*
X352736Y241679D01*
G37*
D15*
G36*
X352641Y234898D02*
X352700Y239138D01*
X353545Y239126D01*
X353486Y234886D01*
X352641Y234898D01*
G37*
D14*
G36*
X352535Y227279D02*
X352582Y230681D01*
X353427Y230669D01*
X353380Y227267D01*
X352535Y227279D01*
G37*
D11*
G36*
X352299Y210364D02*
X352346Y213740D01*
X353191Y213728D01*
X353144Y210352D01*
X352299Y210364D01*
G37*
D39*
G36*
X354361Y297541D02*
X354610Y315319D01*
X355455Y315307D01*
X355206Y297529D01*
X354361Y297541D01*
G37*
D11*
G36*
X354256Y289923D02*
X354303Y293299D01*
X355148Y293287D01*
X355101Y289911D01*
X354256Y289923D01*
G37*
D30*
G36*
X354125Y280602D02*
X354208Y286544D01*
X355053Y286532D01*
X354970Y280590D01*
X354125Y280602D01*
G37*
D28*
G36*
X353995Y271306D02*
X354066Y276384D01*
X354911Y276372D01*
X354840Y271294D01*
X353995Y271306D01*
G37*
D11*
G36*
X353901Y264525D02*
X353948Y267901D01*
X354793Y267889D01*
X354746Y264513D01*
X353901Y264525D01*
G37*
D14*
G36*
X353806Y257744D02*
X353853Y261146D01*
X354698Y261134D01*
X354651Y257732D01*
X353806Y257744D01*
G37*
D11*
G36*
X353688Y249287D02*
X353735Y252663D01*
X354580Y252651D01*
X354533Y249275D01*
X353688Y249287D01*
G37*
D15*
G36*
X353582Y241667D02*
X353641Y245907D01*
X354486Y245895D01*
X354427Y241655D01*
X353582Y241667D01*
G37*
D14*
G36*
X353487Y234886D02*
X353534Y238288D01*
X354379Y238276D01*
X354332Y234874D01*
X353487Y234886D01*
G37*
G36*
X353381Y227267D02*
X353428Y230669D01*
X354273Y230657D01*
X354226Y227255D01*
X353381Y227267D01*
G37*
D11*
G36*
X353144Y210352D02*
X353191Y213728D01*
X354036Y213716D01*
X353989Y210340D01*
X353144Y210352D01*
G37*
D40*
G36*
X355197Y296691D02*
X355457Y315307D01*
X356303Y315295D01*
X356043Y296679D01*
X355197Y296691D01*
G37*
D18*
G36*
X355102Y289911D02*
X355149Y293287D01*
X355996Y293275D01*
X355949Y289899D01*
X355102Y289911D01*
G37*
D13*
G36*
X354971Y280590D02*
X355030Y284830D01*
X355877Y284818D01*
X355818Y280578D01*
X354971Y280590D01*
G37*
D41*
G36*
X354841Y271295D02*
X354912Y276373D01*
X355759Y276361D01*
X355688Y271283D01*
X354841Y271295D01*
G37*
D18*
G36*
X354747Y264514D02*
X354794Y267890D01*
X355641Y267878D01*
X355594Y264502D01*
X354747Y264514D01*
G37*
D13*
G36*
X354641Y256894D02*
X354700Y261134D01*
X355547Y261122D01*
X355488Y256882D01*
X354641Y256894D01*
G37*
D18*
G36*
X354534Y249275D02*
X354581Y252651D01*
X355428Y252639D01*
X355381Y249263D01*
X354534Y249275D01*
G37*
D19*
G36*
X354440Y242494D02*
X354487Y245896D01*
X355334Y245884D01*
X355287Y242482D01*
X354440Y242494D01*
G37*
D13*
G36*
X354321Y234036D02*
X354380Y238276D01*
X355227Y238264D01*
X355168Y234024D01*
X354321Y234036D01*
G37*
G36*
X354215Y226417D02*
X354274Y230657D01*
X355121Y230645D01*
X355062Y226405D01*
X354215Y226417D01*
G37*
D19*
G36*
X353979Y209477D02*
X354026Y212879D01*
X354873Y212867D01*
X354826Y209465D01*
X353979Y209477D01*
G37*
D42*
G36*
X356045Y296680D02*
X356305Y315295D01*
X357149Y315284D01*
X356889Y296669D01*
X356045Y296680D01*
G37*
D24*
G36*
X355938Y289061D02*
X355997Y293275D01*
X356842Y293263D01*
X356783Y289049D01*
X355938Y289061D01*
G37*
D14*
G36*
X355820Y280578D02*
X355867Y283980D01*
X356712Y283968D01*
X356665Y280566D01*
X355820Y280578D01*
G37*
D30*
G36*
X355677Y270419D02*
X355760Y276361D01*
X356605Y276349D01*
X356522Y270407D01*
X355677Y270419D01*
G37*
D11*
G36*
X355595Y264502D02*
X355642Y267878D01*
X356487Y267866D01*
X356440Y264490D01*
X355595Y264502D01*
G37*
D30*
G36*
X355465Y255180D02*
X355548Y261122D01*
X356393Y261110D01*
X356310Y255168D01*
X355465Y255180D01*
G37*
D11*
G36*
X355382Y249263D02*
X355429Y252639D01*
X356274Y252627D01*
X356227Y249251D01*
X355382Y249263D01*
G37*
D15*
G36*
X355287Y242482D02*
X355346Y246722D01*
X356191Y246710D01*
X356132Y242470D01*
X355287Y242482D01*
G37*
G36*
X355169Y234024D02*
X355228Y238264D01*
X356073Y238252D01*
X356014Y234012D01*
X355169Y234024D01*
G37*
D43*
G36*
X354945Y217948D02*
X355122Y230646D01*
X355967Y230634D01*
X355790Y217936D01*
X354945Y217948D01*
G37*
D14*
G36*
X354827Y209465D02*
X354874Y212867D01*
X355719Y212855D01*
X355672Y209453D01*
X354827Y209465D01*
G37*
D11*
G36*
X357103Y311907D02*
X357150Y315283D01*
X357995Y315271D01*
X357948Y311895D01*
X357103Y311907D01*
G37*
D44*
G36*
X356890Y296668D02*
X357055Y308502D01*
X357900Y308490D01*
X357735Y296656D01*
X356890Y296668D01*
G37*
D45*
G36*
X356665Y280566D02*
X356830Y292426D01*
X357675Y292414D01*
X357510Y280554D01*
X356665Y280566D01*
G37*
G36*
X356441Y264489D02*
X356606Y276349D01*
X357451Y276337D01*
X357286Y264477D01*
X356441Y264489D01*
G37*
G36*
X356228Y249251D02*
X356393Y261111D01*
X357238Y261099D01*
X357073Y249239D01*
X356228Y249251D01*
G37*
D24*
G36*
X356145Y243334D02*
X356204Y247548D01*
X357049Y247536D01*
X356990Y243322D01*
X356145Y243334D01*
G37*
G36*
X356003Y233175D02*
X356062Y237389D01*
X356907Y237377D01*
X356848Y233163D01*
X356003Y233175D01*
G37*
D46*
G36*
X355779Y217072D02*
X355968Y230634D01*
X356813Y230622D01*
X356624Y217060D01*
X355779Y217072D01*
G37*
D14*
G36*
X355672Y209453D02*
X355719Y212855D01*
X356564Y212843D01*
X356517Y209441D01*
X355672Y209453D01*
G37*
D18*
G36*
X357949Y311895D02*
X357996Y315271D01*
X358843Y315259D01*
X358796Y311883D01*
X357949Y311895D01*
G37*
D47*
G36*
X357736Y296657D02*
X357819Y302573D01*
X358666Y302561D01*
X358583Y296645D01*
X357736Y296657D01*
G37*
D37*
G36*
X357511Y280554D02*
X357665Y291576D01*
X358511Y291564D01*
X358357Y280542D01*
X357511Y280554D01*
G37*
D48*
G36*
X357287Y264477D02*
X357452Y276337D01*
X358299Y276325D01*
X358134Y264465D01*
X357287Y264477D01*
G37*
G36*
X357074Y249239D02*
X357239Y261099D01*
X358086Y261087D01*
X357921Y249227D01*
X357074Y249239D01*
G37*
D12*
G36*
X356991Y243322D02*
X357050Y247536D01*
X357897Y247524D01*
X357838Y243310D01*
X356991Y243322D01*
G37*
G36*
X356849Y233163D02*
X356908Y237377D01*
X357755Y237365D01*
X357696Y233151D01*
X356849Y233163D01*
G37*
D49*
G36*
X356625Y217060D02*
X356814Y230622D01*
X357661Y230610D01*
X357472Y217048D01*
X356625Y217060D01*
G37*
D13*
G36*
X356506Y208603D02*
X356565Y212843D01*
X357412Y212831D01*
X357353Y208591D01*
X356506Y208603D01*
G37*
D11*
G36*
X358797Y311883D02*
X358844Y315259D01*
X359689Y315247D01*
X359642Y311871D01*
X358797Y311883D01*
G37*
G36*
X358584Y296645D02*
X358631Y300021D01*
X359476Y300009D01*
X359429Y296633D01*
X358584Y296645D01*
G37*
D50*
G36*
X358372Y281406D02*
X358513Y291564D01*
X359358Y291552D01*
X359217Y281394D01*
X358372Y281406D01*
G37*
D23*
G36*
X358147Y265304D02*
X358301Y276326D01*
X359145Y276314D01*
X358991Y265292D01*
X358147Y265304D01*
G37*
D45*
G36*
X357922Y249227D02*
X358087Y261087D01*
X358932Y261075D01*
X358767Y249215D01*
X357922Y249227D01*
G37*
D15*
G36*
X357851Y244148D02*
X357910Y248388D01*
X358755Y248376D01*
X358696Y244136D01*
X357851Y244148D01*
G37*
D11*
G36*
X357697Y233151D02*
X357744Y236527D01*
X358589Y236515D01*
X358542Y233139D01*
X357697Y233151D01*
G37*
D46*
G36*
X357473Y217048D02*
X357662Y230610D01*
X358507Y230598D01*
X358318Y217036D01*
X357473Y217048D01*
G37*
D11*
G36*
X357354Y208592D02*
X357401Y211968D01*
X358246Y211956D01*
X358199Y208580D01*
X357354Y208592D01*
G37*
G36*
X359642Y311872D02*
X359689Y315248D01*
X360534Y315236D01*
X360487Y311860D01*
X359642Y311872D01*
G37*
G36*
X359430Y296633D02*
X359477Y300009D01*
X360322Y299997D01*
X360275Y296621D01*
X359430Y296633D01*
G37*
D22*
G36*
X359228Y282232D02*
X359335Y289850D01*
X360180Y289838D01*
X360073Y282220D01*
X359228Y282232D01*
G37*
D14*
G36*
X359099Y272912D02*
X359146Y276314D01*
X359991Y276302D01*
X359944Y272900D01*
X359099Y272912D01*
G37*
D30*
G36*
X358992Y265292D02*
X359075Y271234D01*
X359920Y271222D01*
X359837Y265280D01*
X358992Y265292D01*
G37*
D14*
G36*
X358886Y257673D02*
X358933Y261075D01*
X359778Y261063D01*
X359731Y257661D01*
X358886Y257673D01*
G37*
D30*
G36*
X358779Y250054D02*
X358862Y255996D01*
X359707Y255984D01*
X359624Y250042D01*
X358779Y250054D01*
G37*
D20*
G36*
X358709Y244974D02*
X358744Y247512D01*
X359589Y247500D01*
X359554Y244962D01*
X358709Y244974D01*
G37*
G36*
X358543Y233139D02*
X358578Y235677D01*
X359423Y235665D01*
X359388Y233127D01*
X358543Y233139D01*
G37*
D14*
G36*
X358460Y227196D02*
X358507Y230598D01*
X359352Y230586D01*
X359305Y227184D01*
X358460Y227196D01*
G37*
D51*
G36*
X358330Y217901D02*
X358425Y224655D01*
X359270Y224643D01*
X359175Y217889D01*
X358330Y217901D01*
G37*
D24*
G36*
X358188Y207742D02*
X358247Y211956D01*
X359092Y211944D01*
X359033Y207730D01*
X358188Y207742D01*
G37*
D18*
G36*
X360489Y311860D02*
X360536Y315236D01*
X361383Y315224D01*
X361336Y311848D01*
X360489Y311860D01*
G37*
G36*
X360276Y296621D02*
X360323Y299997D01*
X361170Y299985D01*
X361123Y296609D01*
X360276Y296621D01*
G37*
G36*
X360110Y284761D02*
X360157Y288137D01*
X361004Y288125D01*
X360957Y284749D01*
X360110Y284761D01*
G37*
D17*
G36*
X359957Y273764D02*
X359980Y275438D01*
X360827Y275426D01*
X360804Y273752D01*
X359957Y273764D01*
G37*
D32*
G36*
X359862Y266982D02*
X359897Y269520D01*
X360744Y269508D01*
X360709Y266970D01*
X359862Y266982D01*
G37*
D17*
G36*
X359744Y258525D02*
X359767Y260199D01*
X360614Y260187D01*
X360591Y258513D01*
X359744Y258525D01*
G37*
D32*
G36*
X359638Y250906D02*
X359673Y253444D01*
X360520Y253432D01*
X360485Y250894D01*
X359638Y250906D01*
G37*
D52*
G36*
X359567Y245825D02*
X359578Y246662D01*
X360425Y246651D01*
X360414Y245814D01*
X359567Y245825D01*
G37*
G36*
X359401Y233965D02*
X359412Y234802D01*
X360259Y234791D01*
X360248Y233954D01*
X359401Y233965D01*
G37*
D19*
G36*
X359306Y227184D02*
X359353Y230586D01*
X360200Y230574D01*
X360153Y227172D01*
X359306Y227184D01*
G37*
D18*
G36*
X359034Y207730D02*
X359081Y211106D01*
X359928Y211094D01*
X359881Y207718D01*
X359034Y207730D01*
G37*
D11*
G36*
X361337Y311848D02*
X361384Y315224D01*
X362229Y315212D01*
X362182Y311836D01*
X361337Y311848D01*
G37*
G36*
X361124Y296609D02*
X361171Y299985D01*
X362016Y299973D01*
X361969Y296597D01*
X361124Y296609D01*
G37*
D14*
G36*
X360154Y227172D02*
X360201Y230574D01*
X361046Y230562D01*
X360999Y227160D01*
X360154Y227172D01*
G37*
D15*
G36*
X359870Y206854D02*
X359929Y211094D01*
X360774Y211082D01*
X360715Y206842D01*
X359870Y206854D01*
G37*
D11*
G36*
X362182Y311836D02*
X362229Y315212D01*
X363074Y315200D01*
X363027Y311824D01*
X362182Y311836D01*
G37*
G36*
X361969Y296598D02*
X362016Y299974D01*
X362861Y299962D01*
X362814Y296586D01*
X361969Y296598D01*
G37*
D14*
G36*
X361000Y227161D02*
X361047Y230563D01*
X361892Y230551D01*
X361845Y227149D01*
X361000Y227161D01*
G37*
D15*
G36*
X360704Y206004D02*
X360763Y210244D01*
X361608Y210232D01*
X361549Y205992D01*
X360704Y206004D01*
G37*
D53*
G36*
X360586Y197546D02*
X360609Y199221D01*
X361454Y199210D01*
X361431Y197535D01*
X360586Y197546D01*
G37*
D18*
G36*
X363028Y311824D02*
X363075Y315200D01*
X363922Y315188D01*
X363875Y311812D01*
X363028Y311824D01*
G37*
G36*
X362815Y296586D02*
X362862Y299962D01*
X363709Y299950D01*
X363662Y296574D01*
X362815Y296586D01*
G37*
D19*
G36*
X361846Y227149D02*
X361893Y230551D01*
X362740Y230539D01*
X362693Y227137D01*
X361846Y227149D01*
G37*
D12*
G36*
X361539Y205155D02*
X361598Y209369D01*
X362445Y209357D01*
X362386Y205143D01*
X361539Y205155D01*
G37*
D19*
G36*
X361420Y196672D02*
X361467Y200074D01*
X362314Y200062D01*
X362267Y196660D01*
X361420Y196672D01*
G37*
D11*
G36*
X363876Y311813D02*
X363923Y315189D01*
X364768Y315177D01*
X364721Y311801D01*
X363876Y311813D01*
G37*
G36*
X363663Y296574D02*
X363710Y299950D01*
X364555Y299938D01*
X364508Y296562D01*
X363663Y296574D01*
G37*
D15*
G36*
X362682Y226299D02*
X362741Y230539D01*
X363586Y230527D01*
X363527Y226287D01*
X362682Y226299D01*
G37*
D28*
G36*
X362375Y204279D02*
X362446Y209357D01*
X363291Y209345D01*
X363220Y204267D01*
X362375Y204279D01*
G37*
D14*
G36*
X362269Y196660D02*
X362316Y200062D01*
X363161Y200050D01*
X363114Y196648D01*
X362269Y196660D01*
G37*
D11*
G36*
X364722Y311801D02*
X364769Y315177D01*
X365614Y315165D01*
X365567Y311789D01*
X364722Y311801D01*
G37*
G36*
X364509Y296562D02*
X364556Y299938D01*
X365401Y299926D01*
X365354Y296550D01*
X364509Y296562D01*
G37*
D54*
G36*
X363386Y216127D02*
X363587Y230527D01*
X364432Y230515D01*
X364231Y216115D01*
X363386Y216127D01*
G37*
D45*
G36*
X363114Y196648D02*
X363279Y208508D01*
X364124Y208496D01*
X363959Y196636D01*
X363114Y196648D01*
G37*
D18*
G36*
X365568Y311789D02*
X365615Y315165D01*
X366462Y315153D01*
X366415Y311777D01*
X365568Y311789D01*
G37*
G36*
X365355Y296550D02*
X365402Y299926D01*
X366249Y299914D01*
X366202Y296538D01*
X365355Y296550D01*
G37*
D55*
G36*
X364220Y215278D02*
X364433Y230516D01*
X365280Y230504D01*
X365067Y215266D01*
X364220Y215278D01*
G37*
D37*
G36*
X363960Y196636D02*
X364114Y207658D01*
X364960Y207646D01*
X364806Y196624D01*
X363960Y196636D01*
G37*
D11*
G36*
X366416Y311777D02*
X366463Y315153D01*
X367308Y315141D01*
X367261Y311765D01*
X366416Y311777D01*
G37*
G36*
X366203Y296539D02*
X366250Y299915D01*
X367095Y299903D01*
X367048Y296527D01*
X366203Y296539D01*
G37*
D56*
G36*
X365068Y215266D02*
X365281Y230504D01*
X366126Y230492D01*
X365913Y215254D01*
X365068Y215266D01*
G37*
D50*
G36*
X364808Y196624D02*
X364949Y206782D01*
X365794Y206770D01*
X365653Y196612D01*
X364808Y196624D01*
G37*
D11*
G36*
X367262Y311765D02*
X367309Y315141D01*
X368154Y315129D01*
X368107Y311753D01*
X367262Y311765D01*
G37*
D20*
G36*
X367049Y296527D02*
X367084Y299065D01*
X367929Y299053D01*
X367894Y296515D01*
X367049Y296527D01*
G37*
D54*
G36*
X365926Y216092D02*
X366127Y230492D01*
X366972Y230480D01*
X366771Y216080D01*
X365926Y216092D01*
G37*
D36*
G36*
X365653Y196612D02*
X365772Y205094D01*
X366617Y205082D01*
X366498Y196600D01*
X365653Y196612D01*
G37*
D10*
G36*
X368120Y312591D02*
X368143Y314291D01*
X368990Y314279D01*
X368967Y312579D01*
X368120Y312591D01*
G37*
D52*
G36*
X367907Y297352D02*
X367918Y298189D01*
X368765Y298178D01*
X368754Y297341D01*
X367907Y297352D01*
G37*
D17*
G36*
X366938Y227942D02*
X366961Y229616D01*
X367808Y229604D01*
X367785Y227930D01*
X366938Y227942D01*
G37*
D57*
G36*
X366831Y220322D02*
X366926Y227076D01*
X367773Y227064D01*
X367678Y220310D01*
X366831Y220322D01*
G37*
D47*
G36*
X366512Y197464D02*
X366595Y203380D01*
X367442Y203368D01*
X367359Y197452D01*
X366512Y197464D01*
G37*
D58*
G36*
X367372Y198290D02*
X367383Y199127D01*
X368228Y199116D01*
X368217Y198279D01*
X367372Y198290D01*
G37*
G36*
X327533Y212380D02*
X327579Y213216D01*
X328423Y213170D01*
X328377Y212334D01*
X327533Y212380D01*
G37*
D32*
G36*
X328333Y211496D02*
X328471Y214032D01*
X329317Y213986D01*
X329179Y211450D01*
X328333Y211496D01*
G37*
D41*
G36*
X327647Y198815D02*
X327921Y203887D01*
X328767Y203841D01*
X328493Y198769D01*
X327647Y198815D01*
G37*
D20*
G36*
X329180Y211451D02*
X329318Y213987D01*
X330162Y213941D01*
X330024Y211405D01*
X329180Y211451D01*
G37*
D30*
G36*
X328446Y197907D02*
X328768Y203841D01*
X329612Y203795D01*
X329290Y197861D01*
X328446Y197907D01*
G37*
D11*
G36*
X330025Y211405D02*
X330207Y214777D01*
X331051Y214731D01*
X330869Y211359D01*
X330025Y211405D01*
G37*
D28*
G36*
X329338Y198724D02*
X329612Y203796D01*
X330456Y203750D01*
X330182Y198678D01*
X329338Y198724D01*
G37*
D13*
G36*
X330822Y210497D02*
X331052Y214731D01*
X331898Y214685D01*
X331668Y210451D01*
X330822Y210497D01*
G37*
D10*
G36*
X330273Y200352D02*
X330365Y202050D01*
X331211Y202004D01*
X331119Y200306D01*
X330273Y200352D01*
G37*
D35*
G36*
X331807Y212988D02*
X331899Y214686D01*
X332743Y214640D01*
X332651Y212942D01*
X331807Y212988D01*
G37*
G36*
X331670Y210451D02*
X331762Y212149D01*
X332606Y212103D01*
X332514Y210405D01*
X331670Y210451D01*
G37*
G36*
X331120Y200306D02*
X331212Y202004D01*
X332056Y201958D01*
X331964Y200260D01*
X331120Y200306D01*
G37*
D20*
G36*
X332651Y212941D02*
X332789Y215477D01*
X333633Y215431D01*
X333495Y212895D01*
X332651Y212941D01*
G37*
G36*
X332469Y209568D02*
X332607Y212104D01*
X333451Y212058D01*
X333313Y209522D01*
X332469Y209568D01*
G37*
D35*
G36*
X331965Y200261D02*
X332057Y201959D01*
X332901Y201913D01*
X332809Y200215D01*
X331965Y200261D01*
G37*
D17*
G36*
X333543Y213759D02*
X333633Y215431D01*
X334479Y215385D01*
X334389Y213713D01*
X333543Y213759D01*
G37*
D10*
G36*
X333314Y209523D02*
X333406Y211221D01*
X334252Y211175D01*
X334160Y209477D01*
X333314Y209523D01*
G37*
G36*
X332810Y200215D02*
X332902Y201913D01*
X333748Y201867D01*
X333656Y200169D01*
X332810Y200215D01*
G37*
D53*
G36*
X334390Y213713D02*
X334480Y215385D01*
X335324Y215339D01*
X335234Y213667D01*
X334390Y213713D01*
G37*
D35*
G36*
X334161Y209477D02*
X334253Y211175D01*
X335097Y211129D01*
X335005Y209431D01*
X334161Y209477D01*
G37*
G36*
X333657Y200169D02*
X333749Y201867D01*
X334593Y201821D01*
X334501Y200123D01*
X333657Y200169D01*
G37*
D53*
G36*
X335235Y213667D02*
X335325Y215339D01*
X336169Y215293D01*
X336079Y213621D01*
X335235Y213667D01*
G37*
D20*
G36*
X334960Y208594D02*
X335098Y211130D01*
X335942Y211084D01*
X335804Y208548D01*
X334960Y208594D01*
G37*
D35*
G36*
X334501Y200123D02*
X334593Y201821D01*
X335437Y201775D01*
X335345Y200077D01*
X334501Y200123D01*
G37*
D32*
G36*
X336079Y213621D02*
X336217Y216157D01*
X337063Y216111D01*
X336925Y213575D01*
X336079Y213621D01*
G37*
D17*
G36*
X335805Y208549D02*
X335895Y210221D01*
X336741Y210175D01*
X336651Y208503D01*
X335805Y208549D01*
G37*
D10*
G36*
X335346Y200077D02*
X335438Y201775D01*
X336284Y201729D01*
X336192Y200031D01*
X335346Y200077D01*
G37*
D35*
G36*
X336972Y214412D02*
X337064Y216110D01*
X337908Y216064D01*
X337816Y214366D01*
X336972Y214412D01*
G37*
D53*
G36*
X336652Y208503D02*
X336742Y210175D01*
X337586Y210129D01*
X337496Y208457D01*
X336652Y208503D01*
G37*
D35*
G36*
X336193Y200032D02*
X336285Y201730D01*
X337129Y201684D01*
X337037Y199986D01*
X336193Y200032D01*
G37*
G36*
X337816Y214367D02*
X337908Y216065D01*
X338752Y216019D01*
X338660Y214321D01*
X337816Y214367D01*
G37*
G36*
X337449Y207595D02*
X337541Y209293D01*
X338385Y209247D01*
X338293Y207549D01*
X337449Y207595D01*
G37*
D59*
G36*
X337175Y202522D02*
X337221Y203384D01*
X338065Y203338D01*
X338019Y202476D01*
X337175Y202522D01*
G37*
D20*
G36*
X336992Y199148D02*
X337130Y201684D01*
X337974Y201638D01*
X337836Y199102D01*
X336992Y199148D01*
G37*
D10*
G36*
X338661Y214321D02*
X338753Y216019D01*
X339599Y215973D01*
X339507Y214275D01*
X338661Y214321D01*
G37*
G36*
X338294Y207549D02*
X338386Y209247D01*
X339232Y209201D01*
X339140Y207503D01*
X338294Y207549D01*
G37*
D13*
G36*
X337837Y199103D02*
X338067Y203337D01*
X338913Y203291D01*
X338683Y199057D01*
X337837Y199103D01*
G37*
D35*
G36*
X339553Y215112D02*
X339645Y216810D01*
X340489Y216764D01*
X340397Y215066D01*
X339553Y215112D01*
G37*
D20*
G36*
X339095Y206666D02*
X339233Y209202D01*
X340077Y209156D01*
X339939Y206620D01*
X339095Y206666D01*
G37*
D11*
G36*
X338684Y199057D02*
X338866Y202429D01*
X339710Y202383D01*
X339528Y199011D01*
X338684Y199057D01*
G37*
D35*
G36*
X340398Y215066D02*
X340490Y216764D01*
X341334Y216718D01*
X341242Y215020D01*
X340398Y215066D01*
G37*
G36*
X339940Y206620D02*
X340032Y208318D01*
X340876Y208272D01*
X340784Y206574D01*
X339940Y206620D01*
G37*
D20*
G36*
X339528Y199011D02*
X339666Y201547D01*
X340510Y201501D01*
X340372Y198965D01*
X339528Y199011D01*
G37*
D16*
G36*
X341243Y215020D02*
X341289Y215882D01*
X342135Y215836D01*
X342089Y214974D01*
X341243Y215020D01*
G37*
D52*
G36*
X340785Y206574D02*
X340831Y207410D01*
X341677Y207364D01*
X341631Y206528D01*
X340785Y206574D01*
G37*
D10*
G36*
X340373Y198966D02*
X340465Y200664D01*
X341311Y200618D01*
X341219Y198920D01*
X340373Y198966D01*
G37*
D60*
X358672Y179804D02*
X359518Y179804D01*
X358672Y179804D02*
X358617Y179806D01*
X358561Y179811D01*
X358507Y179820D01*
X358453Y179833D01*
X358400Y179849D01*
X358348Y179868D01*
X358297Y179891D01*
X358249Y179917D01*
X358201Y179947D01*
X358156Y179979D01*
X358114Y180014D01*
X358073Y180052D01*
X358035Y180093D01*
X358000Y180135D01*
X357968Y180180D01*
X357938Y180228D01*
X357912Y180276D01*
X357889Y180327D01*
X357870Y180379D01*
X357854Y180432D01*
X357841Y180486D01*
X357832Y180540D01*
X357827Y180596D01*
X357825Y180651D01*
X357825Y182767D01*
X357827Y182825D01*
X357833Y182882D01*
X357843Y182939D01*
X357856Y182996D01*
X357874Y183051D01*
X357895Y183104D01*
X357920Y183157D01*
X357948Y183207D01*
X357980Y183255D01*
X358015Y183302D01*
X358053Y183345D01*
X358094Y183386D01*
X358137Y183424D01*
X358184Y183459D01*
X358232Y183491D01*
X358282Y183519D01*
X358335Y183544D01*
X358388Y183565D01*
X358443Y183583D01*
X358500Y183596D01*
X358557Y183606D01*
X358614Y183612D01*
X358672Y183614D01*
X359518Y183614D01*
X360883Y182767D02*
X361941Y183614D01*
X361941Y179804D01*
X360883Y179804D02*
X362999Y179804D01*
X246471Y244120D02*
X245624Y244120D01*
X245569Y244122D01*
X245513Y244127D01*
X245459Y244136D01*
X245405Y244149D01*
X245352Y244165D01*
X245300Y244184D01*
X245249Y244207D01*
X245201Y244233D01*
X245153Y244263D01*
X245108Y244295D01*
X245066Y244330D01*
X245025Y244368D01*
X244987Y244409D01*
X244952Y244451D01*
X244920Y244496D01*
X244890Y244544D01*
X244864Y244592D01*
X244841Y244643D01*
X244822Y244695D01*
X244806Y244748D01*
X244793Y244802D01*
X244784Y244856D01*
X244779Y244912D01*
X244777Y244967D01*
X244777Y247083D01*
X244779Y247141D01*
X244785Y247198D01*
X244795Y247255D01*
X244808Y247312D01*
X244826Y247367D01*
X244847Y247420D01*
X244872Y247473D01*
X244900Y247523D01*
X244932Y247571D01*
X244967Y247618D01*
X245005Y247661D01*
X245046Y247702D01*
X245089Y247740D01*
X245136Y247775D01*
X245184Y247807D01*
X245234Y247835D01*
X245287Y247860D01*
X245340Y247881D01*
X245395Y247899D01*
X245452Y247912D01*
X245509Y247922D01*
X245566Y247928D01*
X245624Y247930D01*
X246471Y247930D01*
X247835Y247083D02*
X248893Y247930D01*
X248893Y244120D01*
X247835Y244120D02*
X249951Y244120D01*
X251492Y246025D02*
X251494Y246135D01*
X251500Y246244D01*
X251509Y246353D01*
X251523Y246462D01*
X251540Y246570D01*
X251561Y246678D01*
X251585Y246784D01*
X251614Y246890D01*
X251646Y246995D01*
X251681Y247099D01*
X251720Y247201D01*
X251763Y247302D01*
X251810Y247401D01*
X251830Y247451D01*
X251852Y247500D01*
X251878Y247548D01*
X251907Y247593D01*
X251940Y247636D01*
X251975Y247677D01*
X252013Y247716D01*
X252053Y247751D01*
X252096Y247784D01*
X252141Y247814D01*
X252188Y247841D01*
X252236Y247864D01*
X252286Y247884D01*
X252338Y247900D01*
X252390Y247913D01*
X252443Y247923D01*
X252497Y247928D01*
X252551Y247930D01*
X252605Y247928D01*
X252659Y247923D01*
X252712Y247913D01*
X252764Y247900D01*
X252816Y247884D01*
X252866Y247864D01*
X252914Y247841D01*
X252961Y247814D01*
X253006Y247784D01*
X253049Y247751D01*
X253089Y247716D01*
X253127Y247677D01*
X253162Y247636D01*
X253195Y247593D01*
X253224Y247548D01*
X253250Y247500D01*
X253272Y247451D01*
X253292Y247401D01*
X253291Y247401D02*
X253338Y247302D01*
X253381Y247201D01*
X253420Y247099D01*
X253455Y246995D01*
X253487Y246890D01*
X253516Y246784D01*
X253540Y246678D01*
X253561Y246570D01*
X253578Y246462D01*
X253592Y246353D01*
X253601Y246244D01*
X253607Y246135D01*
X253609Y246025D01*
X251492Y246025D02*
X251494Y245915D01*
X251500Y245806D01*
X251509Y245697D01*
X251523Y245588D01*
X251540Y245480D01*
X251561Y245372D01*
X251585Y245266D01*
X251614Y245160D01*
X251646Y245055D01*
X251681Y244952D01*
X251720Y244849D01*
X251763Y244748D01*
X251810Y244649D01*
X251830Y244599D01*
X251852Y244550D01*
X251878Y244502D01*
X251907Y244457D01*
X251940Y244414D01*
X251975Y244373D01*
X252013Y244334D01*
X252053Y244299D01*
X252096Y244266D01*
X252141Y244236D01*
X252188Y244209D01*
X252236Y244186D01*
X252286Y244166D01*
X252338Y244150D01*
X252390Y244137D01*
X252443Y244127D01*
X252497Y244122D01*
X252551Y244120D01*
X253291Y244649D02*
X253338Y244748D01*
X253381Y244849D01*
X253420Y244952D01*
X253455Y245055D01*
X253487Y245160D01*
X253516Y245266D01*
X253540Y245372D01*
X253561Y245480D01*
X253578Y245588D01*
X253592Y245697D01*
X253601Y245806D01*
X253607Y245915D01*
X253609Y246025D01*
X253292Y244649D02*
X253272Y244599D01*
X253250Y244550D01*
X253224Y244502D01*
X253195Y244457D01*
X253162Y244414D01*
X253127Y244373D01*
X253089Y244334D01*
X253049Y244299D01*
X253006Y244266D01*
X252961Y244236D01*
X252914Y244209D01*
X252866Y244186D01*
X252816Y244166D01*
X252764Y244150D01*
X252712Y244137D01*
X252659Y244127D01*
X252605Y244122D01*
X252551Y244120D01*
X251704Y244967D02*
X253397Y247083D01*
X314095Y255200D02*
X314095Y256046D01*
X314095Y255200D02*
X314093Y255142D01*
X314087Y255085D01*
X314077Y255028D01*
X314064Y254971D01*
X314046Y254916D01*
X314025Y254863D01*
X314000Y254810D01*
X313972Y254760D01*
X313940Y254712D01*
X313905Y254665D01*
X313867Y254622D01*
X313826Y254581D01*
X313783Y254543D01*
X313736Y254508D01*
X313688Y254476D01*
X313638Y254448D01*
X313585Y254423D01*
X313532Y254402D01*
X313477Y254384D01*
X313420Y254371D01*
X313363Y254361D01*
X313306Y254355D01*
X313248Y254353D01*
X311131Y254353D01*
X311073Y254355D01*
X311016Y254361D01*
X310959Y254371D01*
X310902Y254384D01*
X310847Y254402D01*
X310794Y254423D01*
X310741Y254448D01*
X310691Y254476D01*
X310643Y254508D01*
X310596Y254543D01*
X310553Y254581D01*
X310512Y254622D01*
X310474Y254665D01*
X310439Y254712D01*
X310407Y254760D01*
X310379Y254810D01*
X310354Y254863D01*
X310333Y254916D01*
X310315Y254971D01*
X310302Y255028D01*
X310292Y255085D01*
X310286Y255142D01*
X310284Y255200D01*
X310285Y255200D02*
X310285Y256046D01*
X311131Y257411D02*
X310285Y258469D01*
X314095Y258469D01*
X314095Y257411D02*
X314095Y259527D01*
X311131Y261068D02*
X310285Y262126D01*
X314095Y262126D01*
X314095Y261068D02*
X314095Y263185D01*
X296329Y261620D02*
X295482Y261620D01*
X295427Y261622D01*
X295371Y261627D01*
X295317Y261636D01*
X295263Y261649D01*
X295210Y261665D01*
X295158Y261684D01*
X295107Y261707D01*
X295059Y261733D01*
X295011Y261763D01*
X294966Y261795D01*
X294924Y261830D01*
X294883Y261868D01*
X294845Y261909D01*
X294810Y261951D01*
X294778Y261996D01*
X294748Y262044D01*
X294722Y262092D01*
X294699Y262143D01*
X294680Y262195D01*
X294664Y262248D01*
X294651Y262302D01*
X294642Y262356D01*
X294637Y262412D01*
X294635Y262467D01*
X294635Y264583D01*
X294637Y264641D01*
X294643Y264698D01*
X294653Y264755D01*
X294666Y264812D01*
X294684Y264867D01*
X294705Y264920D01*
X294730Y264973D01*
X294758Y265023D01*
X294790Y265071D01*
X294825Y265118D01*
X294863Y265161D01*
X294904Y265202D01*
X294947Y265240D01*
X294994Y265275D01*
X295042Y265307D01*
X295092Y265335D01*
X295145Y265360D01*
X295198Y265381D01*
X295253Y265399D01*
X295310Y265412D01*
X295367Y265422D01*
X295424Y265428D01*
X295482Y265430D01*
X296329Y265430D01*
X297693Y264583D02*
X298751Y265430D01*
X298751Y261620D01*
X297693Y261620D02*
X299809Y261620D01*
X303467Y264478D02*
X303465Y264538D01*
X303459Y264597D01*
X303450Y264657D01*
X303437Y264715D01*
X303420Y264772D01*
X303400Y264829D01*
X303376Y264884D01*
X303349Y264937D01*
X303319Y264989D01*
X303285Y265038D01*
X303248Y265085D01*
X303209Y265130D01*
X303166Y265173D01*
X303121Y265212D01*
X303074Y265249D01*
X303025Y265283D01*
X302973Y265313D01*
X302920Y265340D01*
X302865Y265364D01*
X302808Y265384D01*
X302751Y265401D01*
X302693Y265414D01*
X302633Y265423D01*
X302574Y265429D01*
X302514Y265431D01*
X302514Y265430D02*
X302447Y265428D01*
X302380Y265423D01*
X302314Y265414D01*
X302248Y265401D01*
X302184Y265385D01*
X302120Y265365D01*
X302057Y265341D01*
X301995Y265315D01*
X301936Y265285D01*
X301878Y265252D01*
X301821Y265215D01*
X301767Y265176D01*
X301715Y265134D01*
X301666Y265089D01*
X301619Y265041D01*
X301575Y264991D01*
X301533Y264938D01*
X301495Y264883D01*
X301459Y264827D01*
X301427Y264768D01*
X301398Y264708D01*
X301372Y264646D01*
X301350Y264583D01*
X303150Y263737D02*
X303191Y263779D01*
X303230Y263824D01*
X303267Y263870D01*
X303301Y263919D01*
X303332Y263969D01*
X303359Y264021D01*
X303384Y264075D01*
X303406Y264130D01*
X303425Y264186D01*
X303440Y264243D01*
X303452Y264301D01*
X303460Y264360D01*
X303465Y264419D01*
X303467Y264478D01*
X303149Y263737D02*
X301350Y261620D01*
X303467Y261620D01*
X146381Y337184D02*
X146381Y338030D01*
X146381Y337184D02*
X146379Y337126D01*
X146373Y337069D01*
X146363Y337012D01*
X146350Y336955D01*
X146332Y336900D01*
X146311Y336847D01*
X146286Y336794D01*
X146258Y336744D01*
X146226Y336696D01*
X146191Y336649D01*
X146153Y336606D01*
X146112Y336565D01*
X146069Y336527D01*
X146022Y336492D01*
X145974Y336460D01*
X145924Y336432D01*
X145871Y336407D01*
X145818Y336386D01*
X145763Y336368D01*
X145706Y336355D01*
X145649Y336345D01*
X145592Y336339D01*
X145534Y336337D01*
X143418Y336337D01*
X143360Y336339D01*
X143303Y336345D01*
X143246Y336355D01*
X143189Y336368D01*
X143134Y336386D01*
X143081Y336407D01*
X143028Y336432D01*
X142978Y336460D01*
X142930Y336492D01*
X142883Y336527D01*
X142840Y336565D01*
X142799Y336606D01*
X142761Y336649D01*
X142726Y336696D01*
X142694Y336744D01*
X142666Y336794D01*
X142641Y336847D01*
X142620Y336900D01*
X142602Y336955D01*
X142589Y337012D01*
X142579Y337069D01*
X142573Y337126D01*
X142571Y337184D01*
X142571Y338030D01*
X143418Y339395D02*
X142571Y340453D01*
X146381Y340453D01*
X146381Y339395D02*
X146381Y341511D01*
X146381Y343052D02*
X146381Y344110D01*
X146379Y344174D01*
X146373Y344238D01*
X146364Y344301D01*
X146350Y344363D01*
X146333Y344425D01*
X146312Y344485D01*
X146288Y344544D01*
X146260Y344602D01*
X146228Y344657D01*
X146194Y344711D01*
X146156Y344762D01*
X146115Y344812D01*
X146071Y344858D01*
X146025Y344902D01*
X145975Y344943D01*
X145924Y344981D01*
X145870Y345015D01*
X145815Y345047D01*
X145757Y345075D01*
X145698Y345099D01*
X145638Y345120D01*
X145576Y345137D01*
X145514Y345151D01*
X145451Y345160D01*
X145387Y345166D01*
X145323Y345168D01*
X145259Y345166D01*
X145195Y345160D01*
X145132Y345151D01*
X145070Y345137D01*
X145008Y345120D01*
X144948Y345099D01*
X144889Y345075D01*
X144831Y345047D01*
X144776Y345015D01*
X144722Y344981D01*
X144671Y344943D01*
X144621Y344902D01*
X144575Y344858D01*
X144531Y344812D01*
X144490Y344762D01*
X144452Y344711D01*
X144418Y344657D01*
X144386Y344602D01*
X144358Y344544D01*
X144334Y344485D01*
X144313Y344425D01*
X144296Y344363D01*
X144282Y344301D01*
X144273Y344238D01*
X144267Y344174D01*
X144265Y344110D01*
X142571Y344322D02*
X142571Y343052D01*
X142571Y344322D02*
X142573Y344379D01*
X142579Y344435D01*
X142588Y344491D01*
X142601Y344546D01*
X142618Y344600D01*
X142638Y344653D01*
X142662Y344704D01*
X142689Y344754D01*
X142720Y344801D01*
X142753Y344847D01*
X142790Y344890D01*
X142829Y344931D01*
X142871Y344969D01*
X142916Y345004D01*
X142962Y345036D01*
X143011Y345065D01*
X143061Y345090D01*
X143114Y345112D01*
X143167Y345131D01*
X143222Y345146D01*
X143277Y345157D01*
X143333Y345165D01*
X143390Y345169D01*
X143446Y345169D01*
X143503Y345165D01*
X143559Y345157D01*
X143614Y345146D01*
X143669Y345131D01*
X143722Y345112D01*
X143775Y345090D01*
X143825Y345065D01*
X143874Y345036D01*
X143920Y345004D01*
X143965Y344969D01*
X144007Y344931D01*
X144046Y344890D01*
X144083Y344847D01*
X144116Y344801D01*
X144147Y344754D01*
X144174Y344704D01*
X144198Y344653D01*
X144218Y344600D01*
X144235Y344546D01*
X144248Y344491D01*
X144257Y344435D01*
X144263Y344379D01*
X144265Y344322D01*
X144264Y344322D02*
X144264Y343475D01*
X260624Y266620D02*
X261471Y266620D01*
X260624Y266620D02*
X260569Y266622D01*
X260513Y266627D01*
X260459Y266636D01*
X260405Y266649D01*
X260352Y266665D01*
X260300Y266684D01*
X260249Y266707D01*
X260201Y266733D01*
X260153Y266763D01*
X260108Y266795D01*
X260066Y266830D01*
X260025Y266868D01*
X259987Y266909D01*
X259952Y266951D01*
X259920Y266996D01*
X259890Y267044D01*
X259864Y267092D01*
X259841Y267143D01*
X259822Y267195D01*
X259806Y267248D01*
X259793Y267302D01*
X259784Y267356D01*
X259779Y267412D01*
X259777Y267467D01*
X259777Y269583D01*
X259779Y269641D01*
X259785Y269698D01*
X259795Y269755D01*
X259808Y269812D01*
X259826Y269867D01*
X259847Y269920D01*
X259872Y269973D01*
X259900Y270023D01*
X259932Y270071D01*
X259967Y270118D01*
X260005Y270161D01*
X260046Y270202D01*
X260089Y270240D01*
X260136Y270275D01*
X260184Y270307D01*
X260234Y270335D01*
X260287Y270360D01*
X260340Y270381D01*
X260395Y270399D01*
X260452Y270412D01*
X260509Y270422D01*
X260566Y270428D01*
X260624Y270430D01*
X261471Y270430D01*
X262835Y269583D02*
X263893Y270430D01*
X263893Y266620D01*
X262835Y266620D02*
X264951Y266620D01*
X266492Y267467D02*
X267339Y270430D01*
X266492Y267467D02*
X268609Y267467D01*
X267974Y268313D02*
X267974Y266620D01*
X295681Y284262D02*
X296527Y284262D01*
X295681Y284262D02*
X295626Y284264D01*
X295570Y284269D01*
X295516Y284278D01*
X295462Y284291D01*
X295409Y284307D01*
X295357Y284326D01*
X295306Y284349D01*
X295258Y284375D01*
X295210Y284405D01*
X295165Y284437D01*
X295123Y284472D01*
X295082Y284510D01*
X295044Y284551D01*
X295009Y284593D01*
X294977Y284638D01*
X294947Y284686D01*
X294921Y284734D01*
X294898Y284785D01*
X294879Y284837D01*
X294863Y284890D01*
X294850Y284944D01*
X294841Y284998D01*
X294836Y285054D01*
X294834Y285109D01*
X294834Y287226D01*
X294836Y287284D01*
X294842Y287341D01*
X294852Y287398D01*
X294865Y287455D01*
X294883Y287510D01*
X294904Y287563D01*
X294929Y287616D01*
X294957Y287666D01*
X294989Y287714D01*
X295024Y287761D01*
X295062Y287804D01*
X295103Y287845D01*
X295146Y287883D01*
X295193Y287918D01*
X295241Y287950D01*
X295291Y287978D01*
X295344Y288003D01*
X295397Y288024D01*
X295452Y288042D01*
X295509Y288055D01*
X295566Y288065D01*
X295623Y288071D01*
X295681Y288073D01*
X295681Y288072D02*
X296527Y288072D01*
X297891Y287226D02*
X298950Y288072D01*
X298950Y284262D01*
X300008Y284262D02*
X297891Y284262D01*
X301549Y284262D02*
X302819Y284262D01*
X302874Y284264D01*
X302930Y284269D01*
X302984Y284278D01*
X303038Y284291D01*
X303091Y284307D01*
X303143Y284326D01*
X303194Y284349D01*
X303243Y284375D01*
X303290Y284405D01*
X303335Y284437D01*
X303377Y284472D01*
X303418Y284510D01*
X303456Y284551D01*
X303491Y284593D01*
X303523Y284638D01*
X303553Y284686D01*
X303579Y284734D01*
X303602Y284785D01*
X303621Y284837D01*
X303637Y284890D01*
X303650Y284944D01*
X303659Y284998D01*
X303664Y285054D01*
X303666Y285109D01*
X303666Y285532D01*
X303664Y285587D01*
X303659Y285643D01*
X303650Y285697D01*
X303637Y285751D01*
X303621Y285804D01*
X303602Y285856D01*
X303579Y285907D01*
X303553Y285956D01*
X303523Y286003D01*
X303491Y286048D01*
X303456Y286090D01*
X303418Y286131D01*
X303377Y286169D01*
X303335Y286204D01*
X303290Y286236D01*
X303243Y286266D01*
X303194Y286292D01*
X303143Y286315D01*
X303091Y286334D01*
X303038Y286350D01*
X302984Y286363D01*
X302930Y286372D01*
X302874Y286377D01*
X302819Y286379D01*
X301549Y286379D01*
X301549Y288072D01*
X303666Y288072D01*
X245612Y349712D02*
X244766Y349712D01*
X244711Y349714D01*
X244655Y349719D01*
X244601Y349728D01*
X244547Y349741D01*
X244494Y349757D01*
X244442Y349776D01*
X244391Y349799D01*
X244343Y349825D01*
X244295Y349855D01*
X244250Y349887D01*
X244208Y349922D01*
X244167Y349960D01*
X244129Y350001D01*
X244094Y350043D01*
X244062Y350088D01*
X244032Y350136D01*
X244006Y350184D01*
X243983Y350235D01*
X243964Y350287D01*
X243948Y350340D01*
X243935Y350394D01*
X243926Y350448D01*
X243921Y350504D01*
X243919Y350559D01*
X243919Y352675D01*
X243921Y352733D01*
X243927Y352790D01*
X243937Y352847D01*
X243950Y352904D01*
X243968Y352959D01*
X243989Y353012D01*
X244014Y353065D01*
X244042Y353115D01*
X244074Y353163D01*
X244109Y353210D01*
X244147Y353253D01*
X244188Y353294D01*
X244231Y353332D01*
X244278Y353367D01*
X244326Y353399D01*
X244376Y353427D01*
X244429Y353452D01*
X244482Y353473D01*
X244537Y353491D01*
X244594Y353504D01*
X244651Y353514D01*
X244708Y353520D01*
X244766Y353522D01*
X245612Y353522D01*
X246976Y352675D02*
X248035Y353522D01*
X248035Y349712D01*
X249093Y349712D02*
X246976Y349712D01*
X250634Y351829D02*
X251904Y351829D01*
X251959Y351827D01*
X252015Y351822D01*
X252069Y351813D01*
X252123Y351800D01*
X252176Y351784D01*
X252228Y351765D01*
X252279Y351742D01*
X252328Y351716D01*
X252375Y351686D01*
X252420Y351654D01*
X252462Y351619D01*
X252503Y351581D01*
X252541Y351540D01*
X252576Y351498D01*
X252608Y351453D01*
X252638Y351406D01*
X252664Y351357D01*
X252687Y351306D01*
X252706Y351254D01*
X252722Y351201D01*
X252735Y351147D01*
X252744Y351093D01*
X252749Y351037D01*
X252751Y350982D01*
X252751Y350770D01*
X252750Y350770D02*
X252748Y350706D01*
X252742Y350642D01*
X252733Y350579D01*
X252719Y350517D01*
X252702Y350455D01*
X252681Y350395D01*
X252657Y350336D01*
X252629Y350278D01*
X252597Y350223D01*
X252563Y350169D01*
X252525Y350118D01*
X252484Y350068D01*
X252440Y350022D01*
X252394Y349978D01*
X252344Y349937D01*
X252293Y349899D01*
X252239Y349865D01*
X252184Y349833D01*
X252126Y349805D01*
X252067Y349781D01*
X252007Y349760D01*
X251945Y349743D01*
X251883Y349729D01*
X251820Y349720D01*
X251756Y349714D01*
X251692Y349712D01*
X251628Y349714D01*
X251564Y349720D01*
X251501Y349729D01*
X251439Y349743D01*
X251377Y349760D01*
X251317Y349781D01*
X251258Y349805D01*
X251200Y349833D01*
X251145Y349865D01*
X251091Y349899D01*
X251040Y349937D01*
X250990Y349978D01*
X250944Y350022D01*
X250900Y350068D01*
X250859Y350118D01*
X250821Y350169D01*
X250787Y350223D01*
X250755Y350278D01*
X250727Y350336D01*
X250703Y350395D01*
X250682Y350455D01*
X250665Y350517D01*
X250651Y350579D01*
X250642Y350642D01*
X250636Y350706D01*
X250634Y350770D01*
X250634Y351829D01*
X250636Y351910D01*
X250642Y351990D01*
X250651Y352070D01*
X250665Y352149D01*
X250682Y352228D01*
X250703Y352306D01*
X250727Y352383D01*
X250755Y352458D01*
X250787Y352532D01*
X250822Y352605D01*
X250861Y352675D01*
X250903Y352744D01*
X250948Y352811D01*
X250996Y352876D01*
X251048Y352938D01*
X251102Y352997D01*
X251159Y353054D01*
X251218Y353108D01*
X251280Y353160D01*
X251345Y353208D01*
X251412Y353253D01*
X251480Y353295D01*
X251551Y353334D01*
X251624Y353369D01*
X251698Y353401D01*
X251773Y353429D01*
X251850Y353453D01*
X251928Y353474D01*
X252007Y353491D01*
X252086Y353505D01*
X252166Y353514D01*
X252246Y353520D01*
X252327Y353522D01*
X122523Y330785D02*
X122523Y329938D01*
X122521Y329880D01*
X122515Y329823D01*
X122505Y329766D01*
X122492Y329709D01*
X122474Y329654D01*
X122453Y329601D01*
X122428Y329548D01*
X122400Y329498D01*
X122368Y329450D01*
X122333Y329403D01*
X122295Y329360D01*
X122254Y329319D01*
X122211Y329281D01*
X122164Y329246D01*
X122116Y329214D01*
X122066Y329186D01*
X122013Y329161D01*
X121960Y329140D01*
X121905Y329122D01*
X121848Y329109D01*
X121791Y329099D01*
X121734Y329093D01*
X121676Y329091D01*
X119560Y329091D01*
X119502Y329093D01*
X119445Y329099D01*
X119388Y329109D01*
X119331Y329122D01*
X119276Y329140D01*
X119223Y329161D01*
X119170Y329186D01*
X119120Y329214D01*
X119072Y329246D01*
X119025Y329281D01*
X118982Y329319D01*
X118941Y329360D01*
X118903Y329403D01*
X118868Y329450D01*
X118836Y329498D01*
X118808Y329548D01*
X118783Y329601D01*
X118762Y329654D01*
X118744Y329709D01*
X118731Y329766D01*
X118721Y329823D01*
X118715Y329880D01*
X118713Y329938D01*
X118713Y330785D01*
X119560Y332149D02*
X118713Y333207D01*
X122523Y333207D01*
X122523Y332149D02*
X122523Y334266D01*
X119136Y335806D02*
X118713Y335806D01*
X118713Y337923D01*
X122523Y336865D01*
X195539Y266620D02*
X196385Y266620D01*
X195539Y266620D02*
X195484Y266622D01*
X195428Y266627D01*
X195374Y266636D01*
X195320Y266649D01*
X195267Y266665D01*
X195215Y266684D01*
X195164Y266707D01*
X195116Y266733D01*
X195068Y266763D01*
X195023Y266795D01*
X194981Y266830D01*
X194940Y266868D01*
X194902Y266909D01*
X194867Y266951D01*
X194835Y266996D01*
X194805Y267044D01*
X194779Y267092D01*
X194756Y267143D01*
X194737Y267195D01*
X194721Y267248D01*
X194708Y267302D01*
X194699Y267356D01*
X194694Y267412D01*
X194692Y267467D01*
X194692Y269583D01*
X194694Y269641D01*
X194700Y269698D01*
X194710Y269755D01*
X194723Y269812D01*
X194741Y269867D01*
X194762Y269920D01*
X194787Y269973D01*
X194815Y270023D01*
X194847Y270071D01*
X194882Y270118D01*
X194920Y270161D01*
X194961Y270202D01*
X195004Y270240D01*
X195051Y270275D01*
X195099Y270307D01*
X195149Y270335D01*
X195202Y270360D01*
X195255Y270381D01*
X195310Y270399D01*
X195367Y270412D01*
X195424Y270422D01*
X195481Y270428D01*
X195539Y270430D01*
X196385Y270430D01*
X197749Y269583D02*
X198808Y270430D01*
X198808Y266620D01*
X199866Y266620D02*
X197749Y266620D01*
X201407Y267678D02*
X201409Y267742D01*
X201415Y267806D01*
X201424Y267869D01*
X201438Y267931D01*
X201455Y267993D01*
X201476Y268053D01*
X201500Y268112D01*
X201528Y268170D01*
X201560Y268225D01*
X201594Y268279D01*
X201632Y268330D01*
X201673Y268380D01*
X201717Y268426D01*
X201763Y268470D01*
X201813Y268511D01*
X201864Y268549D01*
X201918Y268583D01*
X201973Y268615D01*
X202031Y268643D01*
X202090Y268667D01*
X202150Y268688D01*
X202212Y268705D01*
X202274Y268719D01*
X202337Y268728D01*
X202401Y268734D01*
X202465Y268736D01*
X202529Y268734D01*
X202593Y268728D01*
X202656Y268719D01*
X202718Y268705D01*
X202780Y268688D01*
X202840Y268667D01*
X202899Y268643D01*
X202957Y268615D01*
X203012Y268583D01*
X203066Y268549D01*
X203117Y268511D01*
X203167Y268470D01*
X203213Y268426D01*
X203257Y268380D01*
X203298Y268330D01*
X203336Y268279D01*
X203370Y268225D01*
X203402Y268170D01*
X203430Y268112D01*
X203454Y268053D01*
X203475Y267993D01*
X203492Y267931D01*
X203506Y267869D01*
X203515Y267806D01*
X203521Y267742D01*
X203523Y267678D01*
X203521Y267614D01*
X203515Y267550D01*
X203506Y267487D01*
X203492Y267425D01*
X203475Y267363D01*
X203454Y267303D01*
X203430Y267244D01*
X203402Y267186D01*
X203370Y267131D01*
X203336Y267077D01*
X203298Y267026D01*
X203257Y266976D01*
X203213Y266930D01*
X203167Y266886D01*
X203117Y266845D01*
X203066Y266807D01*
X203012Y266773D01*
X202957Y266741D01*
X202899Y266713D01*
X202840Y266689D01*
X202780Y266668D01*
X202718Y266651D01*
X202656Y266637D01*
X202593Y266628D01*
X202529Y266622D01*
X202465Y266620D01*
X202401Y266622D01*
X202337Y266628D01*
X202274Y266637D01*
X202212Y266651D01*
X202150Y266668D01*
X202090Y266689D01*
X202031Y266713D01*
X201973Y266741D01*
X201918Y266773D01*
X201864Y266807D01*
X201813Y266845D01*
X201763Y266886D01*
X201717Y266930D01*
X201673Y266976D01*
X201632Y267026D01*
X201594Y267077D01*
X201560Y267131D01*
X201528Y267186D01*
X201500Y267244D01*
X201476Y267303D01*
X201455Y267363D01*
X201438Y267425D01*
X201424Y267487D01*
X201415Y267550D01*
X201409Y267614D01*
X201407Y267678D01*
X201618Y269583D02*
X201620Y269640D01*
X201626Y269696D01*
X201635Y269752D01*
X201648Y269807D01*
X201665Y269861D01*
X201685Y269914D01*
X201709Y269965D01*
X201736Y270015D01*
X201767Y270062D01*
X201800Y270108D01*
X201837Y270151D01*
X201876Y270192D01*
X201918Y270230D01*
X201963Y270265D01*
X202009Y270297D01*
X202058Y270326D01*
X202108Y270351D01*
X202161Y270373D01*
X202214Y270392D01*
X202269Y270407D01*
X202324Y270418D01*
X202380Y270426D01*
X202437Y270430D01*
X202493Y270430D01*
X202550Y270426D01*
X202606Y270418D01*
X202661Y270407D01*
X202716Y270392D01*
X202769Y270373D01*
X202822Y270351D01*
X202872Y270326D01*
X202921Y270297D01*
X202967Y270265D01*
X203012Y270230D01*
X203054Y270192D01*
X203093Y270151D01*
X203130Y270108D01*
X203163Y270062D01*
X203194Y270015D01*
X203221Y269965D01*
X203245Y269914D01*
X203265Y269861D01*
X203282Y269807D01*
X203295Y269752D01*
X203304Y269696D01*
X203310Y269640D01*
X203312Y269583D01*
X203310Y269526D01*
X203304Y269470D01*
X203295Y269414D01*
X203282Y269359D01*
X203265Y269305D01*
X203245Y269252D01*
X203221Y269201D01*
X203194Y269151D01*
X203163Y269104D01*
X203130Y269058D01*
X203093Y269015D01*
X203054Y268974D01*
X203012Y268936D01*
X202967Y268901D01*
X202921Y268869D01*
X202872Y268840D01*
X202822Y268815D01*
X202769Y268793D01*
X202716Y268774D01*
X202661Y268759D01*
X202606Y268748D01*
X202550Y268740D01*
X202493Y268736D01*
X202437Y268736D01*
X202380Y268740D01*
X202324Y268748D01*
X202269Y268759D01*
X202214Y268774D01*
X202161Y268793D01*
X202108Y268815D01*
X202058Y268840D01*
X202009Y268869D01*
X201963Y268901D01*
X201918Y268936D01*
X201876Y268974D01*
X201837Y269015D01*
X201800Y269058D01*
X201767Y269104D01*
X201736Y269151D01*
X201709Y269201D01*
X201685Y269252D01*
X201665Y269305D01*
X201648Y269359D01*
X201635Y269414D01*
X201626Y269470D01*
X201620Y269526D01*
X201618Y269583D01*
X204124Y106307D02*
X204971Y106307D01*
X204124Y106306D02*
X204069Y106308D01*
X204013Y106313D01*
X203959Y106322D01*
X203905Y106335D01*
X203852Y106351D01*
X203800Y106370D01*
X203749Y106393D01*
X203701Y106419D01*
X203653Y106449D01*
X203608Y106481D01*
X203566Y106516D01*
X203525Y106554D01*
X203487Y106595D01*
X203452Y106637D01*
X203420Y106682D01*
X203390Y106730D01*
X203364Y106778D01*
X203341Y106829D01*
X203322Y106881D01*
X203306Y106934D01*
X203293Y106988D01*
X203284Y107042D01*
X203279Y107098D01*
X203277Y107153D01*
X203278Y107153D02*
X203278Y109270D01*
X203277Y109270D02*
X203279Y109328D01*
X203285Y109385D01*
X203295Y109442D01*
X203308Y109499D01*
X203326Y109554D01*
X203347Y109607D01*
X203372Y109660D01*
X203400Y109710D01*
X203432Y109758D01*
X203467Y109805D01*
X203505Y109848D01*
X203546Y109889D01*
X203589Y109927D01*
X203636Y109962D01*
X203684Y109994D01*
X203734Y110022D01*
X203787Y110047D01*
X203840Y110068D01*
X203895Y110086D01*
X203952Y110099D01*
X204009Y110109D01*
X204066Y110115D01*
X204124Y110117D01*
X204971Y110117D01*
X206335Y109270D02*
X207393Y110117D01*
X207393Y106307D01*
X206335Y106307D02*
X208452Y106307D01*
X210839Y108000D02*
X212109Y108000D01*
X210839Y108000D02*
X210784Y108002D01*
X210728Y108007D01*
X210674Y108016D01*
X210620Y108029D01*
X210567Y108045D01*
X210515Y108064D01*
X210464Y108087D01*
X210416Y108113D01*
X210368Y108143D01*
X210323Y108175D01*
X210281Y108210D01*
X210240Y108248D01*
X210202Y108289D01*
X210167Y108331D01*
X210135Y108376D01*
X210105Y108424D01*
X210079Y108472D01*
X210056Y108523D01*
X210037Y108575D01*
X210021Y108628D01*
X210008Y108682D01*
X209999Y108736D01*
X209994Y108792D01*
X209992Y108847D01*
X209993Y108847D02*
X209993Y109058D01*
X209995Y109122D01*
X210001Y109186D01*
X210010Y109249D01*
X210024Y109311D01*
X210041Y109373D01*
X210062Y109433D01*
X210086Y109492D01*
X210114Y109550D01*
X210146Y109605D01*
X210180Y109659D01*
X210218Y109710D01*
X210259Y109760D01*
X210303Y109806D01*
X210349Y109850D01*
X210399Y109891D01*
X210450Y109929D01*
X210504Y109963D01*
X210559Y109995D01*
X210617Y110023D01*
X210676Y110047D01*
X210736Y110068D01*
X210798Y110085D01*
X210860Y110099D01*
X210923Y110108D01*
X210987Y110114D01*
X211051Y110116D01*
X211115Y110114D01*
X211179Y110108D01*
X211242Y110099D01*
X211304Y110085D01*
X211366Y110068D01*
X211426Y110047D01*
X211485Y110023D01*
X211543Y109995D01*
X211598Y109963D01*
X211652Y109929D01*
X211703Y109891D01*
X211753Y109850D01*
X211799Y109806D01*
X211843Y109760D01*
X211884Y109710D01*
X211922Y109659D01*
X211956Y109605D01*
X211988Y109550D01*
X212016Y109492D01*
X212040Y109433D01*
X212061Y109373D01*
X212078Y109311D01*
X212092Y109249D01*
X212101Y109186D01*
X212107Y109122D01*
X212109Y109058D01*
X212109Y108000D01*
X212107Y107919D01*
X212101Y107839D01*
X212092Y107759D01*
X212078Y107680D01*
X212061Y107601D01*
X212040Y107523D01*
X212016Y107446D01*
X211988Y107371D01*
X211956Y107297D01*
X211921Y107224D01*
X211882Y107154D01*
X211840Y107085D01*
X211795Y107018D01*
X211747Y106953D01*
X211695Y106891D01*
X211641Y106832D01*
X211584Y106775D01*
X211525Y106721D01*
X211463Y106669D01*
X211398Y106621D01*
X211331Y106576D01*
X211263Y106534D01*
X211192Y106495D01*
X211119Y106460D01*
X211045Y106428D01*
X210970Y106400D01*
X210893Y106376D01*
X210815Y106355D01*
X210736Y106338D01*
X210657Y106324D01*
X210577Y106315D01*
X210497Y106309D01*
X210416Y106307D01*
X356187Y138443D02*
X357034Y138443D01*
X356187Y138443D02*
X356132Y138445D01*
X356076Y138450D01*
X356022Y138459D01*
X355968Y138472D01*
X355915Y138488D01*
X355863Y138507D01*
X355812Y138530D01*
X355764Y138556D01*
X355716Y138586D01*
X355671Y138618D01*
X355629Y138653D01*
X355588Y138691D01*
X355550Y138732D01*
X355515Y138774D01*
X355483Y138819D01*
X355453Y138867D01*
X355427Y138915D01*
X355404Y138966D01*
X355385Y139018D01*
X355369Y139071D01*
X355356Y139125D01*
X355347Y139179D01*
X355342Y139235D01*
X355340Y139290D01*
X355341Y139290D02*
X355341Y141406D01*
X355340Y141406D02*
X355342Y141464D01*
X355348Y141521D01*
X355358Y141578D01*
X355371Y141635D01*
X355389Y141690D01*
X355410Y141743D01*
X355435Y141796D01*
X355463Y141846D01*
X355495Y141894D01*
X355530Y141941D01*
X355568Y141984D01*
X355609Y142025D01*
X355652Y142063D01*
X355699Y142098D01*
X355747Y142130D01*
X355797Y142158D01*
X355850Y142183D01*
X355903Y142204D01*
X355958Y142222D01*
X356015Y142235D01*
X356072Y142245D01*
X356129Y142251D01*
X356187Y142253D01*
X357034Y142253D01*
X359562Y142254D02*
X359622Y142252D01*
X359681Y142246D01*
X359741Y142237D01*
X359799Y142224D01*
X359856Y142207D01*
X359913Y142187D01*
X359968Y142163D01*
X360021Y142136D01*
X360073Y142106D01*
X360122Y142072D01*
X360169Y142035D01*
X360214Y141996D01*
X360257Y141953D01*
X360296Y141908D01*
X360333Y141861D01*
X360367Y141812D01*
X360397Y141760D01*
X360424Y141707D01*
X360448Y141652D01*
X360468Y141595D01*
X360485Y141538D01*
X360498Y141480D01*
X360507Y141420D01*
X360513Y141361D01*
X360515Y141301D01*
X359562Y142253D02*
X359495Y142251D01*
X359428Y142246D01*
X359362Y142237D01*
X359296Y142224D01*
X359232Y142208D01*
X359168Y142188D01*
X359105Y142164D01*
X359043Y142138D01*
X358984Y142108D01*
X358926Y142075D01*
X358869Y142038D01*
X358815Y141999D01*
X358763Y141957D01*
X358714Y141912D01*
X358667Y141864D01*
X358623Y141814D01*
X358581Y141761D01*
X358543Y141706D01*
X358507Y141650D01*
X358475Y141591D01*
X358446Y141531D01*
X358420Y141469D01*
X358398Y141406D01*
X360198Y140560D02*
X360239Y140602D01*
X360278Y140647D01*
X360315Y140693D01*
X360349Y140742D01*
X360380Y140792D01*
X360407Y140844D01*
X360432Y140898D01*
X360454Y140953D01*
X360473Y141009D01*
X360488Y141066D01*
X360500Y141124D01*
X360508Y141183D01*
X360513Y141242D01*
X360515Y141301D01*
X360197Y140560D02*
X358398Y138443D01*
X360515Y138443D01*
X116186Y271762D02*
X115339Y271762D01*
X115284Y271764D01*
X115228Y271769D01*
X115174Y271778D01*
X115120Y271791D01*
X115067Y271807D01*
X115015Y271826D01*
X114964Y271849D01*
X114916Y271875D01*
X114868Y271905D01*
X114823Y271937D01*
X114781Y271972D01*
X114740Y272010D01*
X114702Y272051D01*
X114667Y272093D01*
X114635Y272138D01*
X114605Y272186D01*
X114579Y272234D01*
X114556Y272285D01*
X114537Y272337D01*
X114521Y272390D01*
X114508Y272444D01*
X114499Y272498D01*
X114494Y272554D01*
X114492Y272609D01*
X114492Y274726D01*
X114494Y274784D01*
X114500Y274841D01*
X114510Y274898D01*
X114523Y274955D01*
X114541Y275010D01*
X114562Y275063D01*
X114587Y275116D01*
X114615Y275166D01*
X114647Y275214D01*
X114682Y275261D01*
X114720Y275304D01*
X114761Y275345D01*
X114804Y275383D01*
X114851Y275418D01*
X114899Y275450D01*
X114949Y275478D01*
X115002Y275503D01*
X115055Y275524D01*
X115110Y275542D01*
X115167Y275555D01*
X115224Y275565D01*
X115281Y275571D01*
X115339Y275573D01*
X115339Y275572D02*
X116186Y275572D01*
X118714Y275573D02*
X118774Y275571D01*
X118833Y275565D01*
X118893Y275556D01*
X118951Y275543D01*
X119008Y275526D01*
X119065Y275506D01*
X119120Y275482D01*
X119173Y275455D01*
X119225Y275425D01*
X119274Y275391D01*
X119321Y275354D01*
X119366Y275315D01*
X119409Y275272D01*
X119448Y275227D01*
X119485Y275180D01*
X119519Y275131D01*
X119549Y275079D01*
X119576Y275026D01*
X119600Y274971D01*
X119620Y274914D01*
X119637Y274857D01*
X119650Y274799D01*
X119659Y274739D01*
X119665Y274680D01*
X119667Y274620D01*
X118714Y275573D02*
X118647Y275571D01*
X118580Y275566D01*
X118514Y275557D01*
X118448Y275544D01*
X118384Y275528D01*
X118320Y275508D01*
X118257Y275484D01*
X118195Y275458D01*
X118136Y275428D01*
X118078Y275395D01*
X118021Y275358D01*
X117967Y275319D01*
X117915Y275277D01*
X117866Y275232D01*
X117819Y275184D01*
X117775Y275134D01*
X117733Y275081D01*
X117695Y275026D01*
X117659Y274970D01*
X117627Y274911D01*
X117598Y274851D01*
X117572Y274789D01*
X117550Y274726D01*
X119349Y273879D02*
X119390Y273921D01*
X119429Y273966D01*
X119466Y274012D01*
X119500Y274061D01*
X119531Y274111D01*
X119558Y274163D01*
X119583Y274217D01*
X119605Y274272D01*
X119624Y274328D01*
X119639Y274385D01*
X119651Y274443D01*
X119659Y274502D01*
X119664Y274561D01*
X119666Y274620D01*
X119349Y273879D02*
X117550Y271762D01*
X119667Y271762D01*
X121207Y273667D02*
X121209Y273777D01*
X121215Y273886D01*
X121224Y273995D01*
X121238Y274104D01*
X121255Y274212D01*
X121276Y274320D01*
X121300Y274426D01*
X121329Y274532D01*
X121361Y274637D01*
X121396Y274741D01*
X121435Y274843D01*
X121478Y274944D01*
X121525Y275043D01*
X121545Y275093D01*
X121567Y275142D01*
X121593Y275190D01*
X121622Y275235D01*
X121655Y275278D01*
X121690Y275319D01*
X121728Y275358D01*
X121768Y275393D01*
X121811Y275426D01*
X121856Y275456D01*
X121903Y275483D01*
X121951Y275506D01*
X122001Y275526D01*
X122053Y275542D01*
X122105Y275555D01*
X122158Y275565D01*
X122212Y275570D01*
X122266Y275572D01*
X122320Y275570D01*
X122374Y275565D01*
X122427Y275555D01*
X122479Y275542D01*
X122531Y275526D01*
X122581Y275506D01*
X122629Y275483D01*
X122676Y275456D01*
X122721Y275426D01*
X122764Y275393D01*
X122804Y275358D01*
X122842Y275319D01*
X122877Y275278D01*
X122910Y275235D01*
X122939Y275190D01*
X122965Y275142D01*
X122987Y275093D01*
X123007Y275043D01*
X123006Y275043D02*
X123053Y274944D01*
X123096Y274843D01*
X123135Y274741D01*
X123170Y274637D01*
X123202Y274532D01*
X123231Y274426D01*
X123255Y274320D01*
X123276Y274212D01*
X123293Y274104D01*
X123307Y273995D01*
X123316Y273886D01*
X123322Y273777D01*
X123324Y273667D01*
X121207Y273667D02*
X121209Y273557D01*
X121215Y273448D01*
X121224Y273339D01*
X121238Y273230D01*
X121255Y273122D01*
X121276Y273014D01*
X121300Y272908D01*
X121329Y272802D01*
X121361Y272697D01*
X121396Y272594D01*
X121435Y272491D01*
X121478Y272390D01*
X121525Y272291D01*
X121545Y272241D01*
X121567Y272192D01*
X121593Y272144D01*
X121622Y272099D01*
X121655Y272056D01*
X121690Y272015D01*
X121728Y271976D01*
X121768Y271941D01*
X121811Y271908D01*
X121856Y271878D01*
X121903Y271851D01*
X121951Y271828D01*
X122001Y271808D01*
X122053Y271792D01*
X122105Y271779D01*
X122158Y271769D01*
X122212Y271764D01*
X122266Y271762D01*
X123006Y272291D02*
X123053Y272390D01*
X123096Y272491D01*
X123135Y272594D01*
X123170Y272697D01*
X123202Y272802D01*
X123231Y272908D01*
X123255Y273014D01*
X123276Y273122D01*
X123293Y273230D01*
X123307Y273339D01*
X123316Y273448D01*
X123322Y273557D01*
X123324Y273667D01*
X123007Y272291D02*
X122987Y272241D01*
X122965Y272192D01*
X122939Y272144D01*
X122910Y272099D01*
X122877Y272056D01*
X122842Y272015D01*
X122804Y271976D01*
X122764Y271941D01*
X122721Y271908D01*
X122676Y271878D01*
X122629Y271851D01*
X122581Y271828D01*
X122531Y271808D01*
X122479Y271792D01*
X122427Y271779D01*
X122374Y271769D01*
X122320Y271764D01*
X122266Y271762D01*
X121419Y272609D02*
X123112Y274726D01*
X78527Y133120D02*
X78527Y132274D01*
X78525Y132216D01*
X78519Y132159D01*
X78509Y132102D01*
X78496Y132045D01*
X78478Y131990D01*
X78457Y131937D01*
X78432Y131884D01*
X78404Y131834D01*
X78372Y131786D01*
X78337Y131739D01*
X78299Y131696D01*
X78258Y131655D01*
X78215Y131617D01*
X78168Y131582D01*
X78120Y131550D01*
X78070Y131522D01*
X78017Y131497D01*
X77964Y131476D01*
X77909Y131458D01*
X77852Y131445D01*
X77795Y131435D01*
X77738Y131429D01*
X77680Y131427D01*
X75563Y131427D01*
X75505Y131429D01*
X75448Y131435D01*
X75391Y131445D01*
X75334Y131458D01*
X75279Y131476D01*
X75226Y131497D01*
X75173Y131522D01*
X75123Y131550D01*
X75075Y131582D01*
X75028Y131617D01*
X74985Y131655D01*
X74944Y131696D01*
X74906Y131739D01*
X74871Y131786D01*
X74839Y131834D01*
X74811Y131884D01*
X74786Y131937D01*
X74765Y131990D01*
X74747Y132045D01*
X74734Y132102D01*
X74724Y132159D01*
X74718Y132216D01*
X74716Y132274D01*
X74717Y132274D02*
X74717Y133120D01*
X74716Y135648D02*
X74718Y135708D01*
X74724Y135767D01*
X74733Y135827D01*
X74746Y135885D01*
X74763Y135942D01*
X74783Y135999D01*
X74807Y136054D01*
X74834Y136107D01*
X74864Y136159D01*
X74898Y136208D01*
X74935Y136255D01*
X74974Y136300D01*
X75017Y136343D01*
X75062Y136382D01*
X75109Y136419D01*
X75158Y136453D01*
X75210Y136483D01*
X75263Y136510D01*
X75318Y136534D01*
X75375Y136554D01*
X75432Y136571D01*
X75490Y136584D01*
X75550Y136593D01*
X75609Y136599D01*
X75669Y136601D01*
X74716Y135648D02*
X74718Y135581D01*
X74723Y135514D01*
X74732Y135448D01*
X74745Y135382D01*
X74761Y135318D01*
X74781Y135254D01*
X74805Y135191D01*
X74831Y135129D01*
X74861Y135070D01*
X74894Y135012D01*
X74931Y134955D01*
X74970Y134901D01*
X75012Y134849D01*
X75057Y134800D01*
X75105Y134753D01*
X75155Y134709D01*
X75208Y134667D01*
X75263Y134629D01*
X75319Y134593D01*
X75378Y134561D01*
X75438Y134532D01*
X75500Y134506D01*
X75563Y134484D01*
X76410Y136283D02*
X76368Y136325D01*
X76323Y136364D01*
X76277Y136401D01*
X76228Y136435D01*
X76178Y136465D01*
X76126Y136493D01*
X76072Y136518D01*
X76017Y136540D01*
X75961Y136559D01*
X75904Y136574D01*
X75846Y136586D01*
X75787Y136594D01*
X75728Y136599D01*
X75669Y136601D01*
X76410Y136283D02*
X78527Y134484D01*
X78527Y136601D01*
X75563Y138142D02*
X74717Y139200D01*
X78527Y139200D01*
X78527Y138142D02*
X78527Y140259D01*
X240601Y210626D02*
X240601Y211473D01*
X240601Y210626D02*
X240599Y210568D01*
X240593Y210511D01*
X240583Y210454D01*
X240570Y210397D01*
X240552Y210342D01*
X240531Y210289D01*
X240506Y210236D01*
X240478Y210186D01*
X240446Y210138D01*
X240411Y210091D01*
X240373Y210048D01*
X240332Y210007D01*
X240289Y209969D01*
X240242Y209934D01*
X240194Y209902D01*
X240144Y209874D01*
X240091Y209849D01*
X240038Y209828D01*
X239983Y209810D01*
X239926Y209797D01*
X239869Y209787D01*
X239812Y209781D01*
X239754Y209779D01*
X237637Y209779D01*
X237579Y209781D01*
X237522Y209787D01*
X237465Y209797D01*
X237408Y209810D01*
X237353Y209828D01*
X237300Y209849D01*
X237247Y209874D01*
X237197Y209902D01*
X237149Y209934D01*
X237102Y209969D01*
X237059Y210007D01*
X237018Y210048D01*
X236980Y210091D01*
X236945Y210138D01*
X236913Y210186D01*
X236885Y210236D01*
X236860Y210289D01*
X236839Y210342D01*
X236821Y210397D01*
X236808Y210454D01*
X236798Y210511D01*
X236792Y210568D01*
X236790Y210626D01*
X236791Y210626D02*
X236791Y211473D01*
X236790Y214001D02*
X236792Y214061D01*
X236798Y214120D01*
X236807Y214180D01*
X236820Y214238D01*
X236837Y214295D01*
X236857Y214352D01*
X236881Y214407D01*
X236908Y214460D01*
X236938Y214512D01*
X236972Y214561D01*
X237009Y214608D01*
X237048Y214653D01*
X237091Y214696D01*
X237136Y214735D01*
X237183Y214772D01*
X237232Y214806D01*
X237284Y214836D01*
X237337Y214863D01*
X237392Y214887D01*
X237449Y214907D01*
X237506Y214924D01*
X237564Y214937D01*
X237624Y214946D01*
X237683Y214952D01*
X237743Y214954D01*
X236790Y214001D02*
X236792Y213934D01*
X236797Y213867D01*
X236806Y213801D01*
X236819Y213735D01*
X236835Y213671D01*
X236855Y213607D01*
X236879Y213544D01*
X236905Y213482D01*
X236935Y213423D01*
X236968Y213365D01*
X237005Y213308D01*
X237044Y213254D01*
X237086Y213202D01*
X237131Y213153D01*
X237179Y213106D01*
X237229Y213062D01*
X237282Y213020D01*
X237337Y212982D01*
X237393Y212946D01*
X237452Y212914D01*
X237512Y212885D01*
X237574Y212859D01*
X237637Y212837D01*
X238484Y214635D02*
X238442Y214677D01*
X238397Y214716D01*
X238351Y214753D01*
X238302Y214787D01*
X238252Y214817D01*
X238200Y214845D01*
X238146Y214870D01*
X238091Y214892D01*
X238035Y214911D01*
X237978Y214926D01*
X237920Y214938D01*
X237861Y214946D01*
X237802Y214951D01*
X237743Y214953D01*
X238484Y214636D02*
X240601Y212837D01*
X240601Y214953D01*
X237743Y218612D02*
X237683Y218610D01*
X237624Y218604D01*
X237564Y218595D01*
X237506Y218582D01*
X237449Y218565D01*
X237392Y218545D01*
X237337Y218521D01*
X237284Y218494D01*
X237232Y218464D01*
X237183Y218430D01*
X237136Y218393D01*
X237091Y218354D01*
X237048Y218311D01*
X237009Y218266D01*
X236972Y218219D01*
X236938Y218170D01*
X236908Y218118D01*
X236881Y218065D01*
X236857Y218010D01*
X236837Y217953D01*
X236820Y217896D01*
X236807Y217838D01*
X236798Y217778D01*
X236792Y217719D01*
X236790Y217659D01*
X236792Y217592D01*
X236797Y217525D01*
X236806Y217459D01*
X236819Y217393D01*
X236835Y217329D01*
X236855Y217265D01*
X236879Y217202D01*
X236905Y217140D01*
X236935Y217081D01*
X236968Y217023D01*
X237005Y216966D01*
X237044Y216912D01*
X237086Y216860D01*
X237131Y216811D01*
X237179Y216764D01*
X237229Y216720D01*
X237282Y216678D01*
X237337Y216640D01*
X237393Y216604D01*
X237452Y216572D01*
X237512Y216543D01*
X237574Y216517D01*
X237637Y216495D01*
X238484Y218293D02*
X238442Y218335D01*
X238397Y218374D01*
X238351Y218411D01*
X238302Y218445D01*
X238252Y218475D01*
X238200Y218503D01*
X238146Y218528D01*
X238091Y218550D01*
X238035Y218569D01*
X237978Y218584D01*
X237920Y218596D01*
X237861Y218604D01*
X237802Y218609D01*
X237743Y218611D01*
X238484Y218294D02*
X240601Y216494D01*
X240601Y218611D01*
X86073Y238978D02*
X85227Y238978D01*
X85172Y238980D01*
X85116Y238985D01*
X85062Y238994D01*
X85008Y239007D01*
X84955Y239023D01*
X84903Y239042D01*
X84852Y239065D01*
X84804Y239091D01*
X84756Y239121D01*
X84711Y239153D01*
X84669Y239188D01*
X84628Y239226D01*
X84590Y239267D01*
X84555Y239309D01*
X84523Y239354D01*
X84493Y239402D01*
X84467Y239450D01*
X84444Y239501D01*
X84425Y239553D01*
X84409Y239606D01*
X84396Y239660D01*
X84387Y239714D01*
X84382Y239770D01*
X84380Y239825D01*
X84380Y241941D01*
X84382Y241999D01*
X84388Y242056D01*
X84398Y242113D01*
X84411Y242170D01*
X84429Y242225D01*
X84450Y242278D01*
X84475Y242331D01*
X84503Y242381D01*
X84535Y242429D01*
X84570Y242476D01*
X84608Y242519D01*
X84649Y242560D01*
X84692Y242598D01*
X84739Y242633D01*
X84787Y242665D01*
X84837Y242693D01*
X84890Y242718D01*
X84943Y242739D01*
X84998Y242757D01*
X85055Y242770D01*
X85112Y242780D01*
X85169Y242786D01*
X85227Y242788D01*
X86073Y242788D01*
X88601Y242789D02*
X88661Y242787D01*
X88720Y242781D01*
X88780Y242772D01*
X88838Y242759D01*
X88895Y242742D01*
X88952Y242722D01*
X89007Y242698D01*
X89060Y242671D01*
X89112Y242641D01*
X89161Y242607D01*
X89208Y242570D01*
X89253Y242531D01*
X89296Y242488D01*
X89335Y242443D01*
X89372Y242396D01*
X89406Y242347D01*
X89436Y242295D01*
X89463Y242242D01*
X89487Y242187D01*
X89507Y242130D01*
X89524Y242073D01*
X89537Y242015D01*
X89546Y241955D01*
X89552Y241896D01*
X89554Y241836D01*
X88601Y242788D02*
X88534Y242786D01*
X88467Y242781D01*
X88401Y242772D01*
X88335Y242759D01*
X88271Y242743D01*
X88207Y242723D01*
X88144Y242699D01*
X88082Y242673D01*
X88023Y242643D01*
X87965Y242610D01*
X87908Y242573D01*
X87854Y242534D01*
X87802Y242492D01*
X87753Y242447D01*
X87706Y242399D01*
X87662Y242349D01*
X87620Y242296D01*
X87582Y242241D01*
X87546Y242185D01*
X87514Y242126D01*
X87485Y242066D01*
X87459Y242004D01*
X87437Y241941D01*
X89237Y241095D02*
X89278Y241137D01*
X89317Y241182D01*
X89354Y241228D01*
X89388Y241277D01*
X89419Y241327D01*
X89446Y241379D01*
X89471Y241433D01*
X89493Y241488D01*
X89512Y241544D01*
X89527Y241601D01*
X89539Y241659D01*
X89547Y241718D01*
X89552Y241777D01*
X89554Y241836D01*
X89236Y241095D02*
X87437Y238978D01*
X89554Y238978D01*
X91095Y238978D02*
X92153Y238978D01*
X92217Y238980D01*
X92281Y238986D01*
X92344Y238995D01*
X92406Y239009D01*
X92468Y239026D01*
X92528Y239047D01*
X92587Y239071D01*
X92645Y239099D01*
X92700Y239131D01*
X92754Y239165D01*
X92805Y239203D01*
X92855Y239244D01*
X92901Y239288D01*
X92945Y239334D01*
X92986Y239384D01*
X93024Y239435D01*
X93058Y239489D01*
X93090Y239544D01*
X93118Y239602D01*
X93142Y239661D01*
X93163Y239721D01*
X93180Y239783D01*
X93194Y239845D01*
X93203Y239908D01*
X93209Y239972D01*
X93211Y240036D01*
X93209Y240100D01*
X93203Y240164D01*
X93194Y240227D01*
X93180Y240289D01*
X93163Y240351D01*
X93142Y240411D01*
X93118Y240470D01*
X93090Y240528D01*
X93058Y240583D01*
X93024Y240637D01*
X92986Y240688D01*
X92945Y240738D01*
X92901Y240784D01*
X92855Y240828D01*
X92805Y240869D01*
X92754Y240907D01*
X92700Y240941D01*
X92645Y240973D01*
X92587Y241001D01*
X92528Y241025D01*
X92468Y241046D01*
X92406Y241063D01*
X92344Y241077D01*
X92281Y241086D01*
X92217Y241092D01*
X92153Y241094D01*
X92365Y242788D02*
X91095Y242788D01*
X92365Y242788D02*
X92422Y242786D01*
X92478Y242780D01*
X92534Y242771D01*
X92589Y242758D01*
X92643Y242741D01*
X92696Y242721D01*
X92747Y242697D01*
X92797Y242670D01*
X92844Y242639D01*
X92890Y242606D01*
X92933Y242569D01*
X92974Y242530D01*
X93012Y242488D01*
X93047Y242443D01*
X93079Y242397D01*
X93108Y242348D01*
X93133Y242298D01*
X93155Y242245D01*
X93174Y242192D01*
X93189Y242137D01*
X93200Y242082D01*
X93208Y242026D01*
X93212Y241969D01*
X93212Y241913D01*
X93208Y241856D01*
X93200Y241800D01*
X93189Y241745D01*
X93174Y241690D01*
X93155Y241637D01*
X93133Y241584D01*
X93108Y241534D01*
X93079Y241485D01*
X93047Y241439D01*
X93012Y241394D01*
X92974Y241352D01*
X92933Y241313D01*
X92890Y241276D01*
X92844Y241243D01*
X92797Y241212D01*
X92747Y241185D01*
X92696Y241161D01*
X92643Y241141D01*
X92589Y241124D01*
X92534Y241111D01*
X92478Y241102D01*
X92422Y241096D01*
X92365Y241094D01*
X92365Y241095D02*
X91518Y241095D01*
X78239Y165328D02*
X78239Y164482D01*
X78237Y164424D01*
X78231Y164367D01*
X78221Y164310D01*
X78208Y164253D01*
X78190Y164198D01*
X78169Y164145D01*
X78144Y164092D01*
X78116Y164042D01*
X78084Y163994D01*
X78049Y163947D01*
X78011Y163904D01*
X77970Y163863D01*
X77927Y163825D01*
X77880Y163790D01*
X77832Y163758D01*
X77782Y163730D01*
X77729Y163705D01*
X77676Y163684D01*
X77621Y163666D01*
X77564Y163653D01*
X77507Y163643D01*
X77450Y163637D01*
X77392Y163635D01*
X75276Y163635D01*
X75218Y163637D01*
X75161Y163643D01*
X75104Y163653D01*
X75047Y163666D01*
X74992Y163684D01*
X74939Y163705D01*
X74886Y163730D01*
X74836Y163758D01*
X74788Y163790D01*
X74741Y163825D01*
X74698Y163863D01*
X74657Y163904D01*
X74619Y163947D01*
X74584Y163994D01*
X74552Y164042D01*
X74524Y164092D01*
X74499Y164145D01*
X74478Y164198D01*
X74460Y164253D01*
X74447Y164310D01*
X74437Y164367D01*
X74431Y164424D01*
X74429Y164482D01*
X74429Y165328D01*
X74428Y167857D02*
X74430Y167917D01*
X74436Y167976D01*
X74445Y168036D01*
X74458Y168094D01*
X74475Y168151D01*
X74495Y168208D01*
X74519Y168263D01*
X74546Y168316D01*
X74576Y168368D01*
X74610Y168417D01*
X74647Y168464D01*
X74686Y168509D01*
X74729Y168552D01*
X74774Y168591D01*
X74821Y168628D01*
X74870Y168662D01*
X74922Y168692D01*
X74975Y168719D01*
X75030Y168743D01*
X75087Y168763D01*
X75144Y168780D01*
X75202Y168793D01*
X75262Y168802D01*
X75321Y168808D01*
X75381Y168810D01*
X74429Y167857D02*
X74431Y167790D01*
X74436Y167723D01*
X74445Y167657D01*
X74458Y167591D01*
X74474Y167527D01*
X74494Y167463D01*
X74518Y167400D01*
X74544Y167338D01*
X74574Y167279D01*
X74607Y167221D01*
X74644Y167164D01*
X74683Y167110D01*
X74725Y167058D01*
X74770Y167009D01*
X74818Y166962D01*
X74868Y166918D01*
X74921Y166876D01*
X74976Y166838D01*
X75032Y166802D01*
X75091Y166770D01*
X75151Y166741D01*
X75213Y166715D01*
X75276Y166693D01*
X76122Y168491D02*
X76080Y168533D01*
X76035Y168572D01*
X75989Y168609D01*
X75940Y168643D01*
X75890Y168673D01*
X75838Y168701D01*
X75784Y168726D01*
X75729Y168748D01*
X75673Y168767D01*
X75616Y168782D01*
X75558Y168794D01*
X75499Y168802D01*
X75440Y168807D01*
X75381Y168809D01*
X76122Y168492D02*
X78239Y166692D01*
X78239Y168809D01*
X77392Y170350D02*
X74429Y171197D01*
X77392Y170350D02*
X77392Y172467D01*
X76546Y171832D02*
X78239Y171832D01*
X173062Y106336D02*
X173908Y106336D01*
X173062Y106336D02*
X173007Y106338D01*
X172951Y106343D01*
X172897Y106352D01*
X172843Y106365D01*
X172790Y106381D01*
X172738Y106400D01*
X172687Y106423D01*
X172639Y106449D01*
X172591Y106479D01*
X172546Y106511D01*
X172504Y106546D01*
X172463Y106584D01*
X172425Y106625D01*
X172390Y106667D01*
X172358Y106712D01*
X172328Y106760D01*
X172302Y106808D01*
X172279Y106859D01*
X172260Y106911D01*
X172244Y106964D01*
X172231Y107018D01*
X172222Y107072D01*
X172217Y107128D01*
X172215Y107183D01*
X172215Y109299D01*
X172217Y109357D01*
X172223Y109414D01*
X172233Y109471D01*
X172246Y109528D01*
X172264Y109583D01*
X172285Y109636D01*
X172310Y109689D01*
X172338Y109739D01*
X172370Y109787D01*
X172405Y109834D01*
X172443Y109877D01*
X172484Y109918D01*
X172527Y109956D01*
X172574Y109991D01*
X172622Y110023D01*
X172672Y110051D01*
X172725Y110076D01*
X172778Y110097D01*
X172833Y110115D01*
X172890Y110128D01*
X172947Y110138D01*
X173004Y110144D01*
X173062Y110146D01*
X173908Y110146D01*
X175272Y106336D02*
X176331Y106336D01*
X176395Y106338D01*
X176459Y106344D01*
X176522Y106353D01*
X176584Y106367D01*
X176646Y106384D01*
X176706Y106405D01*
X176765Y106429D01*
X176823Y106457D01*
X176878Y106489D01*
X176932Y106523D01*
X176983Y106561D01*
X177033Y106602D01*
X177079Y106646D01*
X177123Y106692D01*
X177164Y106742D01*
X177202Y106793D01*
X177236Y106847D01*
X177268Y106902D01*
X177296Y106960D01*
X177320Y107019D01*
X177341Y107079D01*
X177358Y107141D01*
X177372Y107203D01*
X177381Y107266D01*
X177387Y107330D01*
X177389Y107394D01*
X177387Y107458D01*
X177381Y107522D01*
X177372Y107585D01*
X177358Y107647D01*
X177341Y107709D01*
X177320Y107769D01*
X177296Y107828D01*
X177268Y107886D01*
X177236Y107941D01*
X177202Y107995D01*
X177164Y108046D01*
X177123Y108096D01*
X177079Y108142D01*
X177033Y108186D01*
X176983Y108227D01*
X176932Y108265D01*
X176878Y108299D01*
X176823Y108331D01*
X176765Y108359D01*
X176706Y108383D01*
X176646Y108404D01*
X176584Y108421D01*
X176522Y108435D01*
X176459Y108444D01*
X176395Y108450D01*
X176331Y108452D01*
X176542Y110146D02*
X175272Y110146D01*
X176542Y110146D02*
X176599Y110144D01*
X176655Y110138D01*
X176711Y110129D01*
X176766Y110116D01*
X176820Y110099D01*
X176873Y110079D01*
X176924Y110055D01*
X176974Y110028D01*
X177021Y109997D01*
X177067Y109964D01*
X177110Y109927D01*
X177151Y109888D01*
X177189Y109846D01*
X177224Y109801D01*
X177256Y109755D01*
X177285Y109706D01*
X177310Y109656D01*
X177332Y109603D01*
X177351Y109550D01*
X177366Y109495D01*
X177377Y109440D01*
X177385Y109384D01*
X177389Y109327D01*
X177389Y109271D01*
X177385Y109214D01*
X177377Y109158D01*
X177366Y109103D01*
X177351Y109048D01*
X177332Y108995D01*
X177310Y108942D01*
X177285Y108892D01*
X177256Y108843D01*
X177224Y108797D01*
X177189Y108752D01*
X177151Y108710D01*
X177110Y108671D01*
X177067Y108634D01*
X177021Y108601D01*
X176974Y108570D01*
X176924Y108543D01*
X176873Y108519D01*
X176820Y108499D01*
X176766Y108482D01*
X176711Y108469D01*
X176655Y108460D01*
X176599Y108454D01*
X176542Y108452D01*
X176542Y108453D02*
X175696Y108453D01*
X207339Y74830D02*
X207339Y73983D01*
X207340Y73983D02*
X207338Y73925D01*
X207332Y73868D01*
X207322Y73811D01*
X207309Y73754D01*
X207291Y73699D01*
X207270Y73646D01*
X207245Y73593D01*
X207217Y73543D01*
X207185Y73495D01*
X207150Y73448D01*
X207112Y73405D01*
X207071Y73364D01*
X207028Y73326D01*
X206981Y73291D01*
X206933Y73259D01*
X206883Y73231D01*
X206830Y73206D01*
X206777Y73185D01*
X206722Y73167D01*
X206665Y73154D01*
X206608Y73144D01*
X206551Y73138D01*
X206493Y73136D01*
X206493Y73137D02*
X204376Y73137D01*
X204376Y73136D02*
X204318Y73138D01*
X204261Y73144D01*
X204204Y73154D01*
X204147Y73167D01*
X204092Y73185D01*
X204039Y73206D01*
X203986Y73231D01*
X203936Y73259D01*
X203888Y73291D01*
X203841Y73326D01*
X203798Y73364D01*
X203757Y73405D01*
X203719Y73448D01*
X203684Y73495D01*
X203652Y73543D01*
X203624Y73593D01*
X203599Y73646D01*
X203578Y73699D01*
X203560Y73754D01*
X203547Y73811D01*
X203537Y73868D01*
X203531Y73925D01*
X203529Y73983D01*
X203529Y74830D01*
X203529Y77041D02*
X206493Y76194D01*
X206493Y78311D01*
X207339Y77676D02*
X205646Y77676D01*
X310424Y132393D02*
X310424Y133240D01*
X310425Y132393D02*
X310423Y132335D01*
X310417Y132278D01*
X310407Y132221D01*
X310394Y132164D01*
X310376Y132109D01*
X310355Y132056D01*
X310330Y132003D01*
X310302Y131953D01*
X310270Y131905D01*
X310235Y131858D01*
X310197Y131815D01*
X310156Y131774D01*
X310113Y131736D01*
X310066Y131701D01*
X310018Y131669D01*
X309968Y131641D01*
X309915Y131616D01*
X309862Y131595D01*
X309807Y131577D01*
X309750Y131564D01*
X309693Y131554D01*
X309636Y131548D01*
X309578Y131546D01*
X307461Y131546D01*
X307403Y131548D01*
X307346Y131554D01*
X307289Y131564D01*
X307232Y131577D01*
X307177Y131595D01*
X307124Y131616D01*
X307071Y131641D01*
X307021Y131669D01*
X306973Y131701D01*
X306926Y131736D01*
X306883Y131774D01*
X306842Y131815D01*
X306804Y131858D01*
X306769Y131905D01*
X306737Y131953D01*
X306709Y132003D01*
X306684Y132056D01*
X306663Y132109D01*
X306645Y132164D01*
X306632Y132221D01*
X306622Y132278D01*
X306616Y132335D01*
X306614Y132393D01*
X306614Y133240D01*
X310424Y134604D02*
X310424Y135874D01*
X310425Y135874D02*
X310423Y135929D01*
X310418Y135985D01*
X310409Y136039D01*
X310396Y136093D01*
X310380Y136146D01*
X310361Y136198D01*
X310338Y136249D01*
X310312Y136298D01*
X310282Y136345D01*
X310250Y136390D01*
X310215Y136432D01*
X310177Y136473D01*
X310136Y136511D01*
X310094Y136546D01*
X310049Y136578D01*
X310002Y136608D01*
X309953Y136634D01*
X309902Y136657D01*
X309850Y136676D01*
X309797Y136692D01*
X309743Y136705D01*
X309689Y136714D01*
X309633Y136719D01*
X309578Y136721D01*
X309578Y136720D02*
X309154Y136720D01*
X309154Y136721D02*
X309096Y136719D01*
X309039Y136713D01*
X308982Y136703D01*
X308925Y136690D01*
X308870Y136672D01*
X308817Y136651D01*
X308764Y136626D01*
X308714Y136598D01*
X308666Y136566D01*
X308619Y136531D01*
X308576Y136493D01*
X308535Y136452D01*
X308497Y136409D01*
X308462Y136362D01*
X308430Y136314D01*
X308402Y136264D01*
X308377Y136211D01*
X308356Y136158D01*
X308338Y136103D01*
X308325Y136046D01*
X308315Y135989D01*
X308309Y135932D01*
X308307Y135874D01*
X308308Y135874D02*
X308308Y134604D01*
X306614Y134604D01*
X306614Y136720D01*
X231521Y76726D02*
X231521Y75879D01*
X231519Y75821D01*
X231513Y75764D01*
X231503Y75707D01*
X231490Y75650D01*
X231472Y75595D01*
X231451Y75542D01*
X231426Y75489D01*
X231398Y75439D01*
X231366Y75391D01*
X231331Y75344D01*
X231293Y75301D01*
X231252Y75260D01*
X231209Y75222D01*
X231162Y75187D01*
X231114Y75155D01*
X231064Y75127D01*
X231011Y75102D01*
X230958Y75081D01*
X230903Y75063D01*
X230846Y75050D01*
X230789Y75040D01*
X230732Y75034D01*
X230674Y75032D01*
X228558Y75032D01*
X228500Y75034D01*
X228443Y75040D01*
X228386Y75050D01*
X228329Y75063D01*
X228274Y75081D01*
X228221Y75102D01*
X228168Y75127D01*
X228118Y75155D01*
X228070Y75187D01*
X228023Y75222D01*
X227980Y75260D01*
X227939Y75301D01*
X227901Y75344D01*
X227866Y75391D01*
X227834Y75439D01*
X227806Y75489D01*
X227781Y75542D01*
X227760Y75595D01*
X227742Y75650D01*
X227729Y75707D01*
X227719Y75764D01*
X227713Y75821D01*
X227711Y75879D01*
X227711Y76726D01*
X229404Y78090D02*
X229404Y79360D01*
X229406Y79415D01*
X229411Y79471D01*
X229420Y79525D01*
X229433Y79579D01*
X229449Y79632D01*
X229468Y79684D01*
X229491Y79735D01*
X229517Y79784D01*
X229547Y79831D01*
X229579Y79876D01*
X229614Y79918D01*
X229652Y79959D01*
X229693Y79997D01*
X229735Y80032D01*
X229780Y80064D01*
X229828Y80094D01*
X229876Y80120D01*
X229927Y80143D01*
X229979Y80162D01*
X230032Y80178D01*
X230086Y80191D01*
X230140Y80200D01*
X230196Y80205D01*
X230251Y80207D01*
X230251Y80206D02*
X230463Y80206D01*
X230527Y80204D01*
X230591Y80198D01*
X230654Y80189D01*
X230716Y80175D01*
X230778Y80158D01*
X230838Y80137D01*
X230897Y80113D01*
X230955Y80085D01*
X231010Y80053D01*
X231064Y80019D01*
X231115Y79981D01*
X231165Y79940D01*
X231211Y79896D01*
X231255Y79850D01*
X231296Y79800D01*
X231334Y79749D01*
X231368Y79695D01*
X231400Y79640D01*
X231428Y79582D01*
X231452Y79523D01*
X231473Y79463D01*
X231490Y79401D01*
X231504Y79339D01*
X231513Y79276D01*
X231519Y79212D01*
X231521Y79148D01*
X231519Y79084D01*
X231513Y79020D01*
X231504Y78957D01*
X231490Y78895D01*
X231473Y78833D01*
X231452Y78773D01*
X231428Y78714D01*
X231400Y78656D01*
X231368Y78601D01*
X231334Y78547D01*
X231296Y78496D01*
X231255Y78446D01*
X231211Y78400D01*
X231165Y78356D01*
X231115Y78315D01*
X231064Y78277D01*
X231010Y78243D01*
X230955Y78211D01*
X230897Y78183D01*
X230838Y78159D01*
X230778Y78138D01*
X230716Y78121D01*
X230654Y78107D01*
X230591Y78098D01*
X230527Y78092D01*
X230463Y78090D01*
X229404Y78090D01*
X229323Y78092D01*
X229243Y78098D01*
X229163Y78107D01*
X229084Y78121D01*
X229005Y78138D01*
X228927Y78159D01*
X228850Y78183D01*
X228775Y78211D01*
X228701Y78243D01*
X228628Y78278D01*
X228558Y78317D01*
X228489Y78359D01*
X228422Y78404D01*
X228357Y78452D01*
X228295Y78503D01*
X228236Y78558D01*
X228179Y78615D01*
X228125Y78674D01*
X228073Y78736D01*
X228025Y78801D01*
X227980Y78868D01*
X227938Y78936D01*
X227899Y79007D01*
X227864Y79080D01*
X227832Y79154D01*
X227804Y79229D01*
X227780Y79306D01*
X227759Y79384D01*
X227742Y79463D01*
X227728Y79542D01*
X227719Y79622D01*
X227713Y79702D01*
X227711Y79783D01*
X318440Y74780D02*
X319287Y74780D01*
X318440Y74779D02*
X318385Y74781D01*
X318329Y74786D01*
X318275Y74795D01*
X318221Y74808D01*
X318168Y74824D01*
X318116Y74843D01*
X318065Y74866D01*
X318017Y74892D01*
X317969Y74922D01*
X317924Y74954D01*
X317882Y74989D01*
X317841Y75027D01*
X317803Y75068D01*
X317768Y75110D01*
X317736Y75155D01*
X317706Y75203D01*
X317680Y75251D01*
X317657Y75302D01*
X317638Y75354D01*
X317622Y75407D01*
X317609Y75461D01*
X317600Y75515D01*
X317595Y75571D01*
X317593Y75626D01*
X317594Y75626D02*
X317594Y77743D01*
X317593Y77743D02*
X317595Y77801D01*
X317601Y77858D01*
X317611Y77915D01*
X317624Y77972D01*
X317642Y78027D01*
X317663Y78080D01*
X317688Y78133D01*
X317716Y78183D01*
X317748Y78231D01*
X317783Y78278D01*
X317821Y78321D01*
X317862Y78362D01*
X317905Y78400D01*
X317952Y78435D01*
X318000Y78467D01*
X318050Y78495D01*
X318103Y78520D01*
X318156Y78541D01*
X318211Y78559D01*
X318268Y78572D01*
X318325Y78582D01*
X318382Y78588D01*
X318440Y78590D01*
X319287Y78590D01*
X320651Y78590D02*
X320651Y78166D01*
X320651Y78590D02*
X322768Y78590D01*
X321709Y74780D01*
X310915Y102875D02*
X310915Y103722D01*
X310916Y102875D02*
X310914Y102817D01*
X310908Y102760D01*
X310898Y102703D01*
X310885Y102646D01*
X310867Y102591D01*
X310846Y102538D01*
X310821Y102485D01*
X310793Y102435D01*
X310761Y102387D01*
X310726Y102340D01*
X310688Y102297D01*
X310647Y102256D01*
X310604Y102218D01*
X310557Y102183D01*
X310509Y102151D01*
X310459Y102123D01*
X310406Y102098D01*
X310353Y102077D01*
X310298Y102059D01*
X310241Y102046D01*
X310184Y102036D01*
X310127Y102030D01*
X310069Y102028D01*
X310069Y102029D02*
X307952Y102029D01*
X307952Y102028D02*
X307894Y102030D01*
X307837Y102036D01*
X307780Y102046D01*
X307723Y102059D01*
X307668Y102077D01*
X307615Y102098D01*
X307562Y102123D01*
X307512Y102151D01*
X307464Y102183D01*
X307417Y102218D01*
X307374Y102256D01*
X307333Y102297D01*
X307295Y102340D01*
X307260Y102387D01*
X307228Y102435D01*
X307200Y102485D01*
X307175Y102538D01*
X307154Y102591D01*
X307136Y102646D01*
X307123Y102703D01*
X307113Y102760D01*
X307107Y102817D01*
X307105Y102875D01*
X307105Y103722D01*
X309857Y105086D02*
X309793Y105088D01*
X309729Y105094D01*
X309666Y105103D01*
X309604Y105117D01*
X309542Y105134D01*
X309482Y105155D01*
X309423Y105179D01*
X309365Y105207D01*
X309310Y105239D01*
X309256Y105273D01*
X309205Y105311D01*
X309155Y105352D01*
X309109Y105396D01*
X309065Y105442D01*
X309024Y105492D01*
X308986Y105543D01*
X308952Y105597D01*
X308920Y105652D01*
X308892Y105710D01*
X308868Y105769D01*
X308847Y105829D01*
X308830Y105891D01*
X308816Y105953D01*
X308807Y106016D01*
X308801Y106080D01*
X308799Y106144D01*
X308801Y106208D01*
X308807Y106272D01*
X308816Y106335D01*
X308830Y106397D01*
X308847Y106459D01*
X308868Y106519D01*
X308892Y106578D01*
X308920Y106636D01*
X308952Y106691D01*
X308986Y106745D01*
X309024Y106796D01*
X309065Y106846D01*
X309109Y106892D01*
X309155Y106936D01*
X309205Y106977D01*
X309256Y107015D01*
X309310Y107049D01*
X309365Y107081D01*
X309423Y107109D01*
X309482Y107133D01*
X309542Y107154D01*
X309604Y107171D01*
X309666Y107185D01*
X309729Y107194D01*
X309793Y107200D01*
X309857Y107202D01*
X309921Y107200D01*
X309985Y107194D01*
X310048Y107185D01*
X310110Y107171D01*
X310172Y107154D01*
X310232Y107133D01*
X310291Y107109D01*
X310349Y107081D01*
X310404Y107049D01*
X310458Y107015D01*
X310509Y106977D01*
X310559Y106936D01*
X310605Y106892D01*
X310649Y106846D01*
X310690Y106796D01*
X310728Y106745D01*
X310762Y106691D01*
X310794Y106636D01*
X310822Y106578D01*
X310846Y106519D01*
X310867Y106459D01*
X310884Y106397D01*
X310898Y106335D01*
X310907Y106272D01*
X310913Y106208D01*
X310915Y106144D01*
X310913Y106080D01*
X310907Y106016D01*
X310898Y105953D01*
X310884Y105891D01*
X310867Y105829D01*
X310846Y105769D01*
X310822Y105710D01*
X310794Y105652D01*
X310762Y105597D01*
X310728Y105543D01*
X310690Y105492D01*
X310649Y105442D01*
X310605Y105396D01*
X310559Y105352D01*
X310509Y105311D01*
X310458Y105273D01*
X310404Y105239D01*
X310349Y105207D01*
X310291Y105179D01*
X310232Y105155D01*
X310172Y105134D01*
X310110Y105117D01*
X310048Y105103D01*
X309985Y105094D01*
X309921Y105088D01*
X309857Y105086D01*
X307952Y105297D02*
X307895Y105299D01*
X307839Y105305D01*
X307783Y105314D01*
X307728Y105327D01*
X307674Y105344D01*
X307621Y105364D01*
X307570Y105388D01*
X307520Y105415D01*
X307473Y105446D01*
X307427Y105479D01*
X307384Y105516D01*
X307343Y105555D01*
X307305Y105597D01*
X307270Y105642D01*
X307238Y105688D01*
X307209Y105737D01*
X307184Y105787D01*
X307162Y105840D01*
X307143Y105893D01*
X307128Y105948D01*
X307117Y106003D01*
X307109Y106059D01*
X307105Y106116D01*
X307105Y106172D01*
X307109Y106229D01*
X307117Y106285D01*
X307128Y106340D01*
X307143Y106395D01*
X307162Y106448D01*
X307184Y106501D01*
X307209Y106551D01*
X307238Y106600D01*
X307270Y106646D01*
X307305Y106691D01*
X307343Y106733D01*
X307384Y106772D01*
X307427Y106809D01*
X307473Y106842D01*
X307520Y106873D01*
X307570Y106900D01*
X307621Y106924D01*
X307674Y106944D01*
X307728Y106961D01*
X307783Y106974D01*
X307839Y106983D01*
X307895Y106989D01*
X307952Y106991D01*
X308009Y106989D01*
X308065Y106983D01*
X308121Y106974D01*
X308176Y106961D01*
X308230Y106944D01*
X308283Y106924D01*
X308334Y106900D01*
X308384Y106873D01*
X308431Y106842D01*
X308477Y106809D01*
X308520Y106772D01*
X308561Y106733D01*
X308599Y106691D01*
X308634Y106646D01*
X308666Y106600D01*
X308695Y106551D01*
X308720Y106501D01*
X308742Y106448D01*
X308761Y106395D01*
X308776Y106340D01*
X308787Y106285D01*
X308795Y106229D01*
X308799Y106172D01*
X308799Y106116D01*
X308795Y106059D01*
X308787Y106003D01*
X308776Y105948D01*
X308761Y105893D01*
X308742Y105840D01*
X308720Y105787D01*
X308695Y105737D01*
X308666Y105688D01*
X308634Y105642D01*
X308599Y105597D01*
X308561Y105555D01*
X308520Y105516D01*
X308477Y105479D01*
X308431Y105446D01*
X308384Y105415D01*
X308334Y105388D01*
X308283Y105364D01*
X308230Y105344D01*
X308176Y105327D01*
X308121Y105314D01*
X308065Y105305D01*
X308009Y105299D01*
X307952Y105297D01*
X312674Y223005D02*
X312674Y223852D01*
X312675Y223005D02*
X312673Y222947D01*
X312667Y222890D01*
X312657Y222833D01*
X312644Y222776D01*
X312626Y222721D01*
X312605Y222668D01*
X312580Y222615D01*
X312552Y222565D01*
X312520Y222517D01*
X312485Y222470D01*
X312447Y222427D01*
X312406Y222386D01*
X312363Y222348D01*
X312316Y222313D01*
X312268Y222281D01*
X312218Y222253D01*
X312165Y222228D01*
X312112Y222207D01*
X312057Y222189D01*
X312000Y222176D01*
X311943Y222166D01*
X311886Y222160D01*
X311828Y222158D01*
X309711Y222158D01*
X309653Y222160D01*
X309596Y222166D01*
X309539Y222176D01*
X309482Y222189D01*
X309427Y222207D01*
X309374Y222228D01*
X309321Y222253D01*
X309271Y222281D01*
X309223Y222313D01*
X309176Y222348D01*
X309133Y222386D01*
X309092Y222427D01*
X309054Y222470D01*
X309019Y222517D01*
X308987Y222565D01*
X308959Y222615D01*
X308934Y222668D01*
X308913Y222721D01*
X308895Y222776D01*
X308882Y222833D01*
X308872Y222890D01*
X308866Y222947D01*
X308864Y223005D01*
X308864Y223852D01*
X310981Y226062D02*
X310981Y227332D01*
X310981Y226062D02*
X310979Y226007D01*
X310974Y225951D01*
X310965Y225897D01*
X310952Y225843D01*
X310936Y225790D01*
X310917Y225738D01*
X310894Y225687D01*
X310868Y225638D01*
X310838Y225591D01*
X310806Y225546D01*
X310771Y225504D01*
X310733Y225463D01*
X310692Y225425D01*
X310650Y225390D01*
X310605Y225358D01*
X310557Y225328D01*
X310509Y225302D01*
X310458Y225279D01*
X310406Y225260D01*
X310353Y225244D01*
X310299Y225231D01*
X310245Y225222D01*
X310189Y225217D01*
X310134Y225215D01*
X310134Y225216D02*
X309923Y225216D01*
X309859Y225218D01*
X309795Y225224D01*
X309732Y225233D01*
X309670Y225247D01*
X309608Y225264D01*
X309548Y225285D01*
X309489Y225309D01*
X309431Y225337D01*
X309376Y225369D01*
X309322Y225403D01*
X309271Y225441D01*
X309221Y225482D01*
X309175Y225526D01*
X309131Y225572D01*
X309090Y225622D01*
X309052Y225673D01*
X309018Y225727D01*
X308986Y225782D01*
X308958Y225840D01*
X308934Y225899D01*
X308913Y225959D01*
X308896Y226021D01*
X308882Y226083D01*
X308873Y226146D01*
X308867Y226210D01*
X308865Y226274D01*
X308867Y226338D01*
X308873Y226402D01*
X308882Y226465D01*
X308896Y226527D01*
X308913Y226589D01*
X308934Y226649D01*
X308958Y226708D01*
X308986Y226766D01*
X309018Y226821D01*
X309052Y226875D01*
X309090Y226926D01*
X309131Y226976D01*
X309175Y227022D01*
X309221Y227066D01*
X309271Y227107D01*
X309322Y227145D01*
X309376Y227179D01*
X309431Y227211D01*
X309489Y227239D01*
X309548Y227263D01*
X309608Y227284D01*
X309670Y227301D01*
X309732Y227315D01*
X309795Y227324D01*
X309859Y227330D01*
X309923Y227332D01*
X310981Y227332D01*
X311062Y227330D01*
X311142Y227324D01*
X311222Y227315D01*
X311301Y227301D01*
X311380Y227284D01*
X311458Y227263D01*
X311535Y227239D01*
X311610Y227211D01*
X311684Y227179D01*
X311757Y227144D01*
X311828Y227105D01*
X311896Y227063D01*
X311963Y227018D01*
X312028Y226970D01*
X312090Y226918D01*
X312149Y226864D01*
X312206Y226807D01*
X312260Y226748D01*
X312312Y226686D01*
X312360Y226621D01*
X312405Y226554D01*
X312447Y226486D01*
X312486Y226415D01*
X312521Y226342D01*
X312553Y226268D01*
X312581Y226193D01*
X312605Y226116D01*
X312626Y226038D01*
X312643Y225959D01*
X312657Y225880D01*
X312666Y225800D01*
X312672Y225720D01*
X312674Y225639D01*
D61*
X263400Y180250D02*
X263400Y174750D01*
X263400Y180250D02*
X292600Y180250D01*
X292600Y174750D01*
X263400Y174750D01*
X262500Y171250D02*
X262500Y160750D01*
X363500Y102750D02*
X363500Y97250D01*
X334500Y97250D01*
X334500Y102750D01*
X363500Y102750D01*
X365000Y106250D02*
X365000Y118750D01*
D62*
X260940Y237540D02*
X260942Y237574D01*
X260948Y237608D01*
X260957Y237641D01*
X260971Y237672D01*
X260988Y237702D01*
X261008Y237730D01*
X261031Y237755D01*
X261057Y237778D01*
X261085Y237797D01*
X261115Y237813D01*
X261147Y237825D01*
X261180Y237834D01*
X261214Y237839D01*
X261249Y237840D01*
X261283Y237837D01*
X261316Y237830D01*
X261349Y237820D01*
X261380Y237805D01*
X261409Y237788D01*
X261436Y237767D01*
X261461Y237743D01*
X261483Y237716D01*
X261501Y237688D01*
X261516Y237657D01*
X261528Y237625D01*
X261536Y237591D01*
X261540Y237557D01*
X261540Y237523D01*
X261536Y237489D01*
X261528Y237455D01*
X261516Y237423D01*
X261501Y237392D01*
X261483Y237364D01*
X261461Y237337D01*
X261436Y237313D01*
X261409Y237292D01*
X261380Y237275D01*
X261349Y237260D01*
X261316Y237250D01*
X261283Y237243D01*
X261249Y237240D01*
X261214Y237241D01*
X261180Y237246D01*
X261147Y237255D01*
X261115Y237267D01*
X261085Y237283D01*
X261057Y237302D01*
X261031Y237325D01*
X261008Y237350D01*
X260988Y237378D01*
X260971Y237408D01*
X260957Y237439D01*
X260948Y237472D01*
X260942Y237506D01*
X260940Y237540D01*
D61*
X268000Y332000D02*
X268000Y346750D01*
X118250Y231750D02*
X118250Y138250D01*
X118250Y231750D02*
X211750Y231750D01*
X211750Y138250D01*
X118250Y138250D01*
D63*
X118750Y122750D02*
X118752Y122820D01*
X118758Y122890D01*
X118768Y122959D01*
X118781Y123028D01*
X118799Y123096D01*
X118820Y123163D01*
X118845Y123228D01*
X118874Y123292D01*
X118906Y123355D01*
X118942Y123415D01*
X118981Y123473D01*
X119023Y123529D01*
X119068Y123583D01*
X119116Y123634D01*
X119167Y123682D01*
X119221Y123727D01*
X119277Y123769D01*
X119335Y123808D01*
X119395Y123844D01*
X119458Y123876D01*
X119522Y123905D01*
X119587Y123930D01*
X119654Y123951D01*
X119722Y123969D01*
X119791Y123982D01*
X119860Y123992D01*
X119930Y123998D01*
X120000Y124000D01*
X120070Y123998D01*
X120140Y123992D01*
X120209Y123982D01*
X120278Y123969D01*
X120346Y123951D01*
X120413Y123930D01*
X120478Y123905D01*
X120542Y123876D01*
X120605Y123844D01*
X120665Y123808D01*
X120723Y123769D01*
X120779Y123727D01*
X120833Y123682D01*
X120884Y123634D01*
X120932Y123583D01*
X120977Y123529D01*
X121019Y123473D01*
X121058Y123415D01*
X121094Y123355D01*
X121126Y123292D01*
X121155Y123228D01*
X121180Y123163D01*
X121201Y123096D01*
X121219Y123028D01*
X121232Y122959D01*
X121242Y122890D01*
X121248Y122820D01*
X121250Y122750D01*
X121248Y122680D01*
X121242Y122610D01*
X121232Y122541D01*
X121219Y122472D01*
X121201Y122404D01*
X121180Y122337D01*
X121155Y122272D01*
X121126Y122208D01*
X121094Y122145D01*
X121058Y122085D01*
X121019Y122027D01*
X120977Y121971D01*
X120932Y121917D01*
X120884Y121866D01*
X120833Y121818D01*
X120779Y121773D01*
X120723Y121731D01*
X120665Y121692D01*
X120605Y121656D01*
X120542Y121624D01*
X120478Y121595D01*
X120413Y121570D01*
X120346Y121549D01*
X120278Y121531D01*
X120209Y121518D01*
X120140Y121508D01*
X120070Y121502D01*
X120000Y121500D01*
X119930Y121502D01*
X119860Y121508D01*
X119791Y121518D01*
X119722Y121531D01*
X119654Y121549D01*
X119587Y121570D01*
X119522Y121595D01*
X119458Y121624D01*
X119395Y121656D01*
X119335Y121692D01*
X119277Y121731D01*
X119221Y121773D01*
X119167Y121818D01*
X119116Y121866D01*
X119068Y121917D01*
X119023Y121971D01*
X118981Y122027D01*
X118942Y122085D01*
X118906Y122145D01*
X118874Y122208D01*
X118845Y122272D01*
X118820Y122337D01*
X118799Y122404D01*
X118781Y122472D01*
X118768Y122541D01*
X118758Y122610D01*
X118752Y122680D01*
X118750Y122750D01*
D64*
X300000Y123000D02*
X300000Y131000D01*
X262000Y131000D02*
X262000Y123000D01*
X46000Y216000D02*
X34420Y216000D01*
X36000Y224000D02*
X46000Y224000D01*
D65*
X52000Y218000D03*
D64*
X52002Y217956D01*
X52008Y217913D01*
X52017Y217871D01*
X52030Y217829D01*
X52047Y217789D01*
X52067Y217750D01*
X52090Y217713D01*
X52117Y217679D01*
X52146Y217646D01*
X52179Y217617D01*
X52213Y217590D01*
X52250Y217567D01*
X52289Y217547D01*
X52329Y217530D01*
X52371Y217517D01*
X52413Y217508D01*
X52456Y217502D01*
X52500Y217500D01*
X52544Y217502D01*
X52587Y217508D01*
X52629Y217517D01*
X52671Y217530D01*
X52711Y217547D01*
X52750Y217567D01*
X52787Y217590D01*
X52821Y217617D01*
X52854Y217646D01*
X52883Y217679D01*
X52910Y217713D01*
X52933Y217750D01*
X52953Y217789D01*
X52970Y217829D01*
X52983Y217871D01*
X52992Y217913D01*
X52998Y217956D01*
X53000Y218000D01*
D65*
X53000Y218000D03*
D64*
X52998Y218044D01*
X52992Y218087D01*
X52983Y218129D01*
X52970Y218171D01*
X52953Y218211D01*
X52933Y218250D01*
X52910Y218287D01*
X52883Y218321D01*
X52854Y218354D01*
X52821Y218383D01*
X52787Y218410D01*
X52750Y218433D01*
X52711Y218453D01*
X52671Y218470D01*
X52629Y218483D01*
X52587Y218492D01*
X52544Y218498D01*
X52500Y218500D01*
X52456Y218498D01*
X52413Y218492D01*
X52371Y218483D01*
X52329Y218470D01*
X52289Y218453D01*
X52250Y218433D01*
X52213Y218410D01*
X52179Y218383D01*
X52146Y218354D01*
X52117Y218321D01*
X52090Y218287D01*
X52067Y218250D01*
X52047Y218211D01*
X52030Y218171D01*
X52017Y218129D01*
X52008Y218087D01*
X52002Y218044D01*
X52000Y218000D01*
D60*
X33595Y226495D02*
X33595Y230305D01*
X33595Y226495D02*
X35289Y226495D01*
X36765Y226495D02*
X38458Y226495D01*
X36765Y226495D02*
X36765Y230305D01*
X38458Y230305D01*
X38035Y228612D02*
X36765Y228612D01*
X39929Y230305D02*
X39929Y226495D01*
X39929Y230305D02*
X40987Y230305D01*
X41051Y230303D01*
X41115Y230297D01*
X41178Y230288D01*
X41240Y230274D01*
X41302Y230257D01*
X41362Y230236D01*
X41421Y230212D01*
X41479Y230184D01*
X41534Y230152D01*
X41588Y230118D01*
X41639Y230080D01*
X41689Y230039D01*
X41735Y229995D01*
X41779Y229949D01*
X41820Y229899D01*
X41858Y229848D01*
X41892Y229794D01*
X41924Y229739D01*
X41952Y229681D01*
X41976Y229622D01*
X41997Y229562D01*
X42014Y229500D01*
X42028Y229438D01*
X42037Y229375D01*
X42043Y229311D01*
X42045Y229247D01*
X42045Y227553D01*
X42043Y227489D01*
X42037Y227425D01*
X42028Y227362D01*
X42014Y227300D01*
X41997Y227238D01*
X41976Y227178D01*
X41952Y227119D01*
X41924Y227061D01*
X41892Y227006D01*
X41858Y226952D01*
X41820Y226901D01*
X41779Y226851D01*
X41735Y226805D01*
X41689Y226761D01*
X41639Y226720D01*
X41588Y226682D01*
X41534Y226648D01*
X41479Y226616D01*
X41421Y226588D01*
X41362Y226564D01*
X41302Y226543D01*
X41240Y226526D01*
X41178Y226512D01*
X41115Y226503D01*
X41051Y226497D01*
X40987Y226495D01*
X39929Y226495D01*
X43708Y229458D02*
X44766Y230305D01*
X44766Y226495D01*
X43708Y226495D02*
X45825Y226495D01*
D66*
X57000Y189000D03*
D61*
X56998Y189044D01*
X56992Y189087D01*
X56983Y189129D01*
X56970Y189171D01*
X56953Y189211D01*
X56933Y189250D01*
X56910Y189287D01*
X56883Y189321D01*
X56854Y189354D01*
X56821Y189383D01*
X56787Y189410D01*
X56750Y189433D01*
X56711Y189453D01*
X56671Y189470D01*
X56629Y189483D01*
X56587Y189492D01*
X56544Y189498D01*
X56500Y189500D01*
X56456Y189498D01*
X56413Y189492D01*
X56371Y189483D01*
X56329Y189470D01*
X56289Y189453D01*
X56250Y189433D01*
X56213Y189410D01*
X56179Y189383D01*
X56146Y189354D01*
X56117Y189321D01*
X56090Y189287D01*
X56067Y189250D01*
X56047Y189211D01*
X56030Y189171D01*
X56017Y189129D01*
X56008Y189087D01*
X56002Y189044D01*
X56000Y189000D01*
D66*
X56000Y189000D03*
D61*
X56002Y188956D01*
X56008Y188913D01*
X56017Y188871D01*
X56030Y188829D01*
X56047Y188789D01*
X56067Y188750D01*
X56090Y188713D01*
X56117Y188679D01*
X56146Y188646D01*
X56179Y188617D01*
X56213Y188590D01*
X56250Y188567D01*
X56289Y188547D01*
X56329Y188530D01*
X56371Y188517D01*
X56413Y188508D01*
X56456Y188502D01*
X56500Y188500D01*
X56544Y188502D01*
X56587Y188508D01*
X56629Y188517D01*
X56671Y188530D01*
X56711Y188547D01*
X56750Y188567D01*
X56787Y188590D01*
X56821Y188617D01*
X56854Y188646D01*
X56883Y188679D01*
X56910Y188713D01*
X56933Y188750D01*
X56953Y188789D01*
X56970Y188829D01*
X56983Y188871D01*
X56992Y188913D01*
X56998Y188956D01*
X57000Y189000D01*
D66*
X57000Y189000D03*
D61*
X56998Y189044D01*
X56992Y189087D01*
X56983Y189129D01*
X56970Y189171D01*
X56953Y189211D01*
X56933Y189250D01*
X56910Y189287D01*
X56883Y189321D01*
X56854Y189354D01*
X56821Y189383D01*
X56787Y189410D01*
X56750Y189433D01*
X56711Y189453D01*
X56671Y189470D01*
X56629Y189483D01*
X56587Y189492D01*
X56544Y189498D01*
X56500Y189500D01*
X56456Y189498D01*
X56413Y189492D01*
X56371Y189483D01*
X56329Y189470D01*
X56289Y189453D01*
X56250Y189433D01*
X56213Y189410D01*
X56179Y189383D01*
X56146Y189354D01*
X56117Y189321D01*
X56090Y189287D01*
X56067Y189250D01*
X56047Y189211D01*
X56030Y189171D01*
X56017Y189129D01*
X56008Y189087D01*
X56002Y189044D01*
X56000Y189000D01*
D60*
X33921Y196532D02*
X33921Y200342D01*
X33921Y196532D02*
X35614Y196532D01*
X37091Y196532D02*
X38784Y196532D01*
X37091Y196532D02*
X37091Y200342D01*
X38784Y200342D01*
X38361Y198649D02*
X37091Y198649D01*
X40254Y200342D02*
X40254Y196532D01*
X40254Y200342D02*
X41313Y200342D01*
X41377Y200340D01*
X41441Y200334D01*
X41504Y200325D01*
X41566Y200311D01*
X41628Y200294D01*
X41688Y200273D01*
X41747Y200249D01*
X41805Y200221D01*
X41860Y200189D01*
X41914Y200155D01*
X41965Y200117D01*
X42015Y200076D01*
X42061Y200032D01*
X42105Y199986D01*
X42146Y199936D01*
X42184Y199885D01*
X42218Y199831D01*
X42250Y199776D01*
X42278Y199718D01*
X42302Y199659D01*
X42323Y199599D01*
X42340Y199537D01*
X42354Y199475D01*
X42363Y199412D01*
X42369Y199348D01*
X42371Y199284D01*
X42371Y197590D01*
X42369Y197526D01*
X42363Y197462D01*
X42354Y197399D01*
X42340Y197337D01*
X42323Y197275D01*
X42302Y197215D01*
X42278Y197156D01*
X42250Y197098D01*
X42218Y197043D01*
X42184Y196989D01*
X42146Y196938D01*
X42105Y196888D01*
X42061Y196842D01*
X42015Y196798D01*
X41965Y196757D01*
X41914Y196719D01*
X41860Y196685D01*
X41805Y196653D01*
X41747Y196625D01*
X41688Y196601D01*
X41628Y196580D01*
X41566Y196563D01*
X41504Y196549D01*
X41441Y196540D01*
X41377Y196534D01*
X41313Y196532D01*
X40254Y196532D01*
X45198Y200343D02*
X45258Y200341D01*
X45317Y200335D01*
X45377Y200326D01*
X45435Y200313D01*
X45492Y200296D01*
X45549Y200276D01*
X45604Y200252D01*
X45657Y200225D01*
X45709Y200195D01*
X45758Y200161D01*
X45805Y200124D01*
X45850Y200085D01*
X45893Y200042D01*
X45932Y199997D01*
X45969Y199950D01*
X46003Y199901D01*
X46033Y199849D01*
X46060Y199796D01*
X46084Y199741D01*
X46104Y199684D01*
X46121Y199627D01*
X46134Y199569D01*
X46143Y199509D01*
X46149Y199450D01*
X46151Y199390D01*
X45198Y200342D02*
X45131Y200340D01*
X45064Y200335D01*
X44998Y200326D01*
X44932Y200313D01*
X44868Y200297D01*
X44804Y200277D01*
X44741Y200253D01*
X44679Y200227D01*
X44620Y200197D01*
X44562Y200164D01*
X44505Y200127D01*
X44451Y200088D01*
X44399Y200046D01*
X44350Y200001D01*
X44303Y199953D01*
X44259Y199903D01*
X44217Y199850D01*
X44179Y199795D01*
X44143Y199739D01*
X44111Y199680D01*
X44082Y199620D01*
X44056Y199558D01*
X44034Y199495D01*
X45833Y198649D02*
X45874Y198691D01*
X45913Y198736D01*
X45950Y198782D01*
X45984Y198831D01*
X46015Y198881D01*
X46042Y198933D01*
X46067Y198987D01*
X46089Y199042D01*
X46108Y199098D01*
X46123Y199155D01*
X46135Y199213D01*
X46143Y199272D01*
X46148Y199331D01*
X46150Y199390D01*
X45833Y198649D02*
X44034Y196532D01*
X46150Y196532D01*
D61*
X337000Y145500D02*
X349000Y145500D01*
X337000Y145500D02*
X337000Y174500D01*
X349000Y174500D01*
X349000Y145500D01*
X352500Y145000D02*
X361500Y145000D01*
D60*
X300751Y178240D02*
X296941Y178240D01*
X296941Y179298D01*
X296942Y179298D02*
X296944Y179362D01*
X296950Y179426D01*
X296959Y179489D01*
X296973Y179551D01*
X296990Y179613D01*
X297011Y179673D01*
X297035Y179732D01*
X297063Y179790D01*
X297095Y179845D01*
X297129Y179899D01*
X297167Y179950D01*
X297208Y180000D01*
X297252Y180046D01*
X297298Y180090D01*
X297348Y180131D01*
X297399Y180169D01*
X297453Y180203D01*
X297508Y180235D01*
X297566Y180263D01*
X297625Y180287D01*
X297685Y180308D01*
X297747Y180325D01*
X297809Y180339D01*
X297872Y180348D01*
X297936Y180354D01*
X298000Y180356D01*
X298064Y180354D01*
X298128Y180348D01*
X298191Y180339D01*
X298253Y180325D01*
X298315Y180308D01*
X298375Y180287D01*
X298434Y180263D01*
X298492Y180235D01*
X298547Y180203D01*
X298601Y180169D01*
X298652Y180131D01*
X298702Y180090D01*
X298748Y180046D01*
X298792Y180000D01*
X298833Y179950D01*
X298871Y179899D01*
X298905Y179845D01*
X298937Y179790D01*
X298965Y179732D01*
X298989Y179673D01*
X299010Y179613D01*
X299027Y179551D01*
X299041Y179489D01*
X299050Y179426D01*
X299056Y179362D01*
X299058Y179298D01*
X299058Y178240D01*
X299058Y179510D02*
X300751Y180357D01*
X297788Y181877D02*
X296941Y182935D01*
X300751Y182935D01*
X300751Y181877D02*
X300751Y183993D01*
X84169Y194571D02*
X84169Y198381D01*
X85228Y198381D01*
X85292Y198379D01*
X85356Y198373D01*
X85419Y198364D01*
X85481Y198350D01*
X85543Y198333D01*
X85603Y198312D01*
X85662Y198288D01*
X85720Y198260D01*
X85775Y198228D01*
X85829Y198194D01*
X85880Y198156D01*
X85930Y198115D01*
X85976Y198071D01*
X86020Y198025D01*
X86061Y197975D01*
X86099Y197924D01*
X86133Y197870D01*
X86165Y197815D01*
X86193Y197757D01*
X86217Y197698D01*
X86238Y197638D01*
X86255Y197576D01*
X86269Y197514D01*
X86278Y197451D01*
X86284Y197387D01*
X86286Y197323D01*
X86284Y197259D01*
X86278Y197195D01*
X86269Y197132D01*
X86255Y197070D01*
X86238Y197008D01*
X86217Y196948D01*
X86193Y196889D01*
X86165Y196831D01*
X86133Y196776D01*
X86099Y196722D01*
X86061Y196671D01*
X86020Y196621D01*
X85976Y196575D01*
X85930Y196531D01*
X85880Y196490D01*
X85829Y196452D01*
X85775Y196418D01*
X85720Y196386D01*
X85662Y196358D01*
X85603Y196334D01*
X85543Y196313D01*
X85481Y196296D01*
X85419Y196282D01*
X85356Y196273D01*
X85292Y196267D01*
X85228Y196265D01*
X85228Y196264D02*
X84169Y196264D01*
X85439Y196264D02*
X86286Y194571D01*
X87806Y197534D02*
X88864Y198381D01*
X88864Y194571D01*
X87806Y194571D02*
X89923Y194571D01*
X91463Y196476D02*
X91465Y196586D01*
X91471Y196695D01*
X91480Y196804D01*
X91494Y196913D01*
X91511Y197021D01*
X91532Y197129D01*
X91556Y197235D01*
X91585Y197341D01*
X91617Y197446D01*
X91652Y197550D01*
X91691Y197652D01*
X91734Y197753D01*
X91781Y197852D01*
X91801Y197902D01*
X91823Y197951D01*
X91849Y197999D01*
X91878Y198044D01*
X91911Y198087D01*
X91946Y198128D01*
X91984Y198167D01*
X92024Y198202D01*
X92067Y198235D01*
X92112Y198265D01*
X92159Y198292D01*
X92207Y198315D01*
X92257Y198335D01*
X92309Y198351D01*
X92361Y198364D01*
X92414Y198374D01*
X92468Y198379D01*
X92522Y198381D01*
X92576Y198379D01*
X92630Y198374D01*
X92683Y198364D01*
X92735Y198351D01*
X92787Y198335D01*
X92837Y198315D01*
X92885Y198292D01*
X92932Y198265D01*
X92977Y198235D01*
X93020Y198202D01*
X93060Y198167D01*
X93098Y198128D01*
X93133Y198087D01*
X93166Y198044D01*
X93195Y197999D01*
X93221Y197951D01*
X93243Y197902D01*
X93263Y197852D01*
X93310Y197753D01*
X93353Y197652D01*
X93392Y197550D01*
X93427Y197446D01*
X93459Y197341D01*
X93488Y197235D01*
X93512Y197129D01*
X93533Y197021D01*
X93550Y196913D01*
X93564Y196804D01*
X93573Y196695D01*
X93579Y196586D01*
X93581Y196476D01*
X91463Y196476D02*
X91465Y196366D01*
X91471Y196257D01*
X91480Y196148D01*
X91494Y196039D01*
X91511Y195931D01*
X91532Y195823D01*
X91556Y195717D01*
X91585Y195611D01*
X91617Y195506D01*
X91652Y195403D01*
X91691Y195300D01*
X91734Y195199D01*
X91781Y195100D01*
X91801Y195050D01*
X91823Y195001D01*
X91849Y194953D01*
X91878Y194908D01*
X91911Y194865D01*
X91946Y194824D01*
X91984Y194785D01*
X92024Y194750D01*
X92067Y194717D01*
X92112Y194687D01*
X92159Y194660D01*
X92207Y194637D01*
X92257Y194617D01*
X92309Y194601D01*
X92361Y194588D01*
X92414Y194578D01*
X92468Y194573D01*
X92522Y194571D01*
X93262Y195100D02*
X93309Y195199D01*
X93352Y195300D01*
X93391Y195403D01*
X93426Y195506D01*
X93458Y195611D01*
X93487Y195717D01*
X93511Y195823D01*
X93532Y195931D01*
X93549Y196039D01*
X93563Y196148D01*
X93572Y196257D01*
X93578Y196366D01*
X93580Y196476D01*
X93263Y195100D02*
X93243Y195050D01*
X93221Y195001D01*
X93195Y194953D01*
X93166Y194908D01*
X93133Y194865D01*
X93098Y194824D01*
X93060Y194785D01*
X93020Y194750D01*
X92977Y194717D01*
X92932Y194687D01*
X92885Y194660D01*
X92837Y194637D01*
X92787Y194617D01*
X92735Y194601D01*
X92683Y194588D01*
X92630Y194578D01*
X92576Y194573D01*
X92522Y194571D01*
X91675Y195418D02*
X93369Y197534D01*
X147617Y270869D02*
X147617Y274679D01*
X148675Y274679D01*
X148675Y274678D02*
X148739Y274676D01*
X148803Y274670D01*
X148866Y274661D01*
X148928Y274647D01*
X148990Y274630D01*
X149050Y274609D01*
X149109Y274585D01*
X149167Y274557D01*
X149222Y274525D01*
X149276Y274491D01*
X149327Y274453D01*
X149377Y274412D01*
X149423Y274368D01*
X149467Y274322D01*
X149508Y274272D01*
X149546Y274221D01*
X149580Y274167D01*
X149612Y274112D01*
X149640Y274054D01*
X149664Y273995D01*
X149685Y273935D01*
X149702Y273873D01*
X149716Y273811D01*
X149725Y273748D01*
X149731Y273684D01*
X149733Y273620D01*
X149731Y273556D01*
X149725Y273492D01*
X149716Y273429D01*
X149702Y273367D01*
X149685Y273305D01*
X149664Y273245D01*
X149640Y273186D01*
X149612Y273128D01*
X149580Y273073D01*
X149546Y273019D01*
X149508Y272968D01*
X149467Y272918D01*
X149423Y272872D01*
X149377Y272828D01*
X149327Y272787D01*
X149276Y272749D01*
X149222Y272715D01*
X149167Y272683D01*
X149109Y272655D01*
X149050Y272631D01*
X148990Y272610D01*
X148928Y272593D01*
X148866Y272579D01*
X148803Y272570D01*
X148739Y272564D01*
X148675Y272562D01*
X147617Y272562D01*
X148887Y272562D02*
X149734Y270869D01*
X151254Y273832D02*
X152312Y274679D01*
X152312Y270869D01*
X151254Y270869D02*
X153370Y270869D01*
X154911Y273832D02*
X155969Y274679D01*
X155969Y270869D01*
X154911Y270869D02*
X157028Y270869D01*
X227531Y108406D02*
X231341Y108406D01*
X227531Y108406D02*
X227531Y109465D01*
X227532Y109465D02*
X227534Y109529D01*
X227540Y109593D01*
X227549Y109656D01*
X227563Y109718D01*
X227580Y109780D01*
X227601Y109840D01*
X227625Y109899D01*
X227653Y109957D01*
X227685Y110012D01*
X227719Y110066D01*
X227757Y110117D01*
X227798Y110167D01*
X227842Y110213D01*
X227888Y110257D01*
X227938Y110298D01*
X227989Y110336D01*
X228043Y110370D01*
X228098Y110402D01*
X228156Y110430D01*
X228215Y110454D01*
X228275Y110475D01*
X228337Y110492D01*
X228399Y110506D01*
X228462Y110515D01*
X228526Y110521D01*
X228590Y110523D01*
X228654Y110521D01*
X228718Y110515D01*
X228781Y110506D01*
X228843Y110492D01*
X228905Y110475D01*
X228965Y110454D01*
X229024Y110430D01*
X229082Y110402D01*
X229137Y110370D01*
X229191Y110336D01*
X229242Y110298D01*
X229292Y110257D01*
X229338Y110213D01*
X229382Y110167D01*
X229423Y110117D01*
X229461Y110066D01*
X229495Y110012D01*
X229527Y109957D01*
X229555Y109899D01*
X229579Y109840D01*
X229600Y109780D01*
X229617Y109718D01*
X229631Y109656D01*
X229640Y109593D01*
X229646Y109529D01*
X229648Y109465D01*
X229648Y108406D01*
X229648Y109676D02*
X231341Y110523D01*
X228484Y114160D02*
X228424Y114158D01*
X228365Y114152D01*
X228305Y114143D01*
X228247Y114130D01*
X228190Y114113D01*
X228133Y114093D01*
X228078Y114069D01*
X228025Y114042D01*
X227973Y114012D01*
X227924Y113978D01*
X227877Y113941D01*
X227832Y113902D01*
X227789Y113859D01*
X227750Y113814D01*
X227713Y113767D01*
X227679Y113718D01*
X227649Y113666D01*
X227622Y113613D01*
X227598Y113558D01*
X227578Y113501D01*
X227561Y113444D01*
X227548Y113386D01*
X227539Y113326D01*
X227533Y113267D01*
X227531Y113207D01*
X227533Y113140D01*
X227538Y113073D01*
X227547Y113007D01*
X227560Y112941D01*
X227576Y112877D01*
X227596Y112813D01*
X227620Y112750D01*
X227646Y112688D01*
X227676Y112629D01*
X227709Y112571D01*
X227746Y112514D01*
X227785Y112460D01*
X227827Y112408D01*
X227872Y112359D01*
X227920Y112312D01*
X227970Y112268D01*
X228023Y112226D01*
X228078Y112188D01*
X228134Y112152D01*
X228193Y112120D01*
X228253Y112091D01*
X228315Y112065D01*
X228378Y112043D01*
X229225Y113842D02*
X229183Y113884D01*
X229138Y113923D01*
X229092Y113960D01*
X229043Y113994D01*
X228993Y114024D01*
X228941Y114052D01*
X228887Y114077D01*
X228832Y114099D01*
X228776Y114118D01*
X228719Y114133D01*
X228661Y114145D01*
X228602Y114153D01*
X228543Y114158D01*
X228484Y114160D01*
X229225Y113842D02*
X231341Y112043D01*
X231341Y114160D01*
X275398Y53842D02*
X279208Y53842D01*
X275398Y53842D02*
X275398Y54901D01*
X275400Y54965D01*
X275406Y55029D01*
X275415Y55092D01*
X275429Y55154D01*
X275446Y55216D01*
X275467Y55276D01*
X275491Y55335D01*
X275519Y55393D01*
X275551Y55448D01*
X275585Y55502D01*
X275623Y55553D01*
X275664Y55603D01*
X275708Y55649D01*
X275754Y55693D01*
X275804Y55734D01*
X275855Y55772D01*
X275909Y55806D01*
X275964Y55838D01*
X276022Y55866D01*
X276081Y55890D01*
X276141Y55911D01*
X276203Y55928D01*
X276265Y55942D01*
X276328Y55951D01*
X276392Y55957D01*
X276456Y55959D01*
X276520Y55957D01*
X276584Y55951D01*
X276647Y55942D01*
X276709Y55928D01*
X276771Y55911D01*
X276831Y55890D01*
X276890Y55866D01*
X276948Y55838D01*
X277003Y55806D01*
X277057Y55772D01*
X277108Y55734D01*
X277158Y55693D01*
X277204Y55649D01*
X277248Y55603D01*
X277289Y55553D01*
X277327Y55502D01*
X277361Y55448D01*
X277393Y55393D01*
X277421Y55335D01*
X277445Y55276D01*
X277466Y55216D01*
X277483Y55154D01*
X277497Y55092D01*
X277506Y55029D01*
X277512Y54965D01*
X277514Y54901D01*
X277514Y53842D01*
X277514Y55112D02*
X279208Y55959D01*
X279208Y57479D02*
X279208Y58537D01*
X279207Y58537D02*
X279205Y58601D01*
X279199Y58665D01*
X279190Y58728D01*
X279176Y58790D01*
X279159Y58852D01*
X279138Y58912D01*
X279114Y58971D01*
X279086Y59029D01*
X279054Y59084D01*
X279020Y59138D01*
X278982Y59189D01*
X278941Y59239D01*
X278897Y59285D01*
X278851Y59329D01*
X278801Y59370D01*
X278750Y59408D01*
X278696Y59442D01*
X278641Y59474D01*
X278583Y59502D01*
X278524Y59526D01*
X278464Y59547D01*
X278402Y59564D01*
X278340Y59578D01*
X278277Y59587D01*
X278213Y59593D01*
X278149Y59595D01*
X278085Y59593D01*
X278021Y59587D01*
X277958Y59578D01*
X277896Y59564D01*
X277834Y59547D01*
X277774Y59526D01*
X277715Y59502D01*
X277657Y59474D01*
X277602Y59442D01*
X277548Y59408D01*
X277497Y59370D01*
X277447Y59329D01*
X277401Y59285D01*
X277357Y59239D01*
X277316Y59189D01*
X277278Y59138D01*
X277244Y59084D01*
X277212Y59029D01*
X277184Y58971D01*
X277160Y58912D01*
X277139Y58852D01*
X277122Y58790D01*
X277108Y58728D01*
X277099Y58665D01*
X277093Y58601D01*
X277091Y58537D01*
X275398Y58749D02*
X275398Y57479D01*
X275397Y58749D02*
X275399Y58806D01*
X275405Y58862D01*
X275414Y58918D01*
X275427Y58973D01*
X275444Y59027D01*
X275464Y59080D01*
X275488Y59131D01*
X275515Y59181D01*
X275546Y59228D01*
X275579Y59274D01*
X275616Y59317D01*
X275655Y59358D01*
X275697Y59396D01*
X275742Y59431D01*
X275788Y59463D01*
X275837Y59492D01*
X275887Y59517D01*
X275940Y59539D01*
X275993Y59558D01*
X276048Y59573D01*
X276103Y59584D01*
X276159Y59592D01*
X276216Y59596D01*
X276272Y59596D01*
X276329Y59592D01*
X276385Y59584D01*
X276440Y59573D01*
X276495Y59558D01*
X276548Y59539D01*
X276601Y59517D01*
X276651Y59492D01*
X276700Y59463D01*
X276746Y59431D01*
X276791Y59396D01*
X276833Y59358D01*
X276872Y59317D01*
X276909Y59274D01*
X276942Y59228D01*
X276973Y59181D01*
X277000Y59131D01*
X277024Y59080D01*
X277044Y59027D01*
X277061Y58973D01*
X277074Y58918D01*
X277083Y58862D01*
X277089Y58806D01*
X277091Y58749D01*
X277091Y57902D01*
X255509Y54245D02*
X251699Y54245D01*
X251699Y55303D01*
X251701Y55367D01*
X251707Y55431D01*
X251716Y55494D01*
X251730Y55556D01*
X251747Y55618D01*
X251768Y55678D01*
X251792Y55737D01*
X251820Y55795D01*
X251852Y55850D01*
X251886Y55904D01*
X251924Y55955D01*
X251965Y56005D01*
X252009Y56051D01*
X252055Y56095D01*
X252105Y56136D01*
X252156Y56174D01*
X252210Y56208D01*
X252265Y56240D01*
X252323Y56268D01*
X252382Y56292D01*
X252442Y56313D01*
X252504Y56330D01*
X252566Y56344D01*
X252629Y56353D01*
X252693Y56359D01*
X252757Y56361D01*
X252821Y56359D01*
X252885Y56353D01*
X252948Y56344D01*
X253010Y56330D01*
X253072Y56313D01*
X253132Y56292D01*
X253191Y56268D01*
X253249Y56240D01*
X253304Y56208D01*
X253358Y56174D01*
X253409Y56136D01*
X253459Y56095D01*
X253505Y56051D01*
X253549Y56005D01*
X253590Y55955D01*
X253628Y55904D01*
X253662Y55850D01*
X253694Y55795D01*
X253722Y55737D01*
X253746Y55678D01*
X253767Y55618D01*
X253784Y55556D01*
X253798Y55494D01*
X253807Y55431D01*
X253813Y55367D01*
X253815Y55303D01*
X253815Y54245D01*
X253815Y55515D02*
X255509Y56362D01*
X254662Y57882D02*
X251699Y58728D01*
X254662Y57882D02*
X254662Y59998D01*
X253815Y59363D02*
X255509Y59363D01*
X175679Y349002D02*
X175679Y352812D01*
X176738Y352812D01*
X176738Y352811D02*
X176802Y352809D01*
X176866Y352803D01*
X176929Y352794D01*
X176991Y352780D01*
X177053Y352763D01*
X177113Y352742D01*
X177172Y352718D01*
X177230Y352690D01*
X177285Y352658D01*
X177339Y352624D01*
X177390Y352586D01*
X177440Y352545D01*
X177486Y352501D01*
X177530Y352455D01*
X177571Y352405D01*
X177609Y352354D01*
X177643Y352300D01*
X177675Y352245D01*
X177703Y352187D01*
X177727Y352128D01*
X177748Y352068D01*
X177765Y352006D01*
X177779Y351944D01*
X177788Y351881D01*
X177794Y351817D01*
X177796Y351753D01*
X177794Y351689D01*
X177788Y351625D01*
X177779Y351562D01*
X177765Y351500D01*
X177748Y351438D01*
X177727Y351378D01*
X177703Y351319D01*
X177675Y351261D01*
X177643Y351206D01*
X177609Y351152D01*
X177571Y351101D01*
X177530Y351051D01*
X177486Y351005D01*
X177440Y350961D01*
X177390Y350920D01*
X177339Y350882D01*
X177285Y350848D01*
X177230Y350816D01*
X177172Y350788D01*
X177113Y350764D01*
X177053Y350743D01*
X176991Y350726D01*
X176929Y350712D01*
X176866Y350703D01*
X176802Y350697D01*
X176738Y350695D01*
X175679Y350695D01*
X176949Y350695D02*
X177796Y349002D01*
X179316Y349002D02*
X180586Y349002D01*
X180586Y349001D02*
X180641Y349003D01*
X180697Y349008D01*
X180751Y349017D01*
X180805Y349030D01*
X180858Y349046D01*
X180910Y349065D01*
X180961Y349088D01*
X181010Y349114D01*
X181057Y349144D01*
X181102Y349176D01*
X181144Y349211D01*
X181185Y349249D01*
X181223Y349290D01*
X181258Y349332D01*
X181290Y349377D01*
X181320Y349425D01*
X181346Y349473D01*
X181369Y349524D01*
X181388Y349576D01*
X181404Y349629D01*
X181417Y349683D01*
X181426Y349737D01*
X181431Y349793D01*
X181433Y349848D01*
X181433Y350272D01*
X181431Y350327D01*
X181426Y350383D01*
X181417Y350437D01*
X181404Y350491D01*
X181388Y350544D01*
X181369Y350596D01*
X181346Y350647D01*
X181320Y350696D01*
X181290Y350743D01*
X181258Y350788D01*
X181223Y350830D01*
X181185Y350871D01*
X181144Y350909D01*
X181102Y350944D01*
X181057Y350976D01*
X181010Y351006D01*
X180961Y351032D01*
X180910Y351055D01*
X180858Y351074D01*
X180805Y351090D01*
X180751Y351103D01*
X180697Y351112D01*
X180641Y351117D01*
X180586Y351119D01*
X180586Y351118D02*
X179316Y351118D01*
X179316Y352812D01*
X181433Y352812D01*
X295566Y311139D02*
X295566Y307329D01*
X295566Y311139D02*
X296624Y311139D01*
X296688Y311137D01*
X296752Y311131D01*
X296815Y311122D01*
X296877Y311108D01*
X296939Y311091D01*
X296999Y311070D01*
X297058Y311046D01*
X297116Y311018D01*
X297171Y310986D01*
X297225Y310952D01*
X297276Y310914D01*
X297326Y310873D01*
X297372Y310829D01*
X297416Y310783D01*
X297457Y310733D01*
X297495Y310682D01*
X297529Y310628D01*
X297561Y310573D01*
X297589Y310515D01*
X297613Y310456D01*
X297634Y310396D01*
X297651Y310334D01*
X297665Y310272D01*
X297674Y310209D01*
X297680Y310145D01*
X297682Y310081D01*
X297680Y310017D01*
X297674Y309953D01*
X297665Y309890D01*
X297651Y309828D01*
X297634Y309766D01*
X297613Y309706D01*
X297589Y309647D01*
X297561Y309589D01*
X297529Y309534D01*
X297495Y309480D01*
X297457Y309429D01*
X297416Y309379D01*
X297372Y309333D01*
X297326Y309289D01*
X297276Y309248D01*
X297225Y309210D01*
X297171Y309176D01*
X297116Y309144D01*
X297058Y309116D01*
X296999Y309092D01*
X296939Y309071D01*
X296877Y309054D01*
X296815Y309040D01*
X296752Y309031D01*
X296688Y309025D01*
X296624Y309023D01*
X295566Y309023D01*
X296836Y309023D02*
X297683Y307329D01*
X299203Y309446D02*
X300473Y309446D01*
X300528Y309444D01*
X300584Y309439D01*
X300638Y309430D01*
X300692Y309417D01*
X300745Y309401D01*
X300797Y309382D01*
X300848Y309359D01*
X300897Y309333D01*
X300944Y309303D01*
X300989Y309271D01*
X301031Y309236D01*
X301072Y309198D01*
X301110Y309157D01*
X301145Y309115D01*
X301177Y309070D01*
X301207Y309023D01*
X301233Y308974D01*
X301256Y308923D01*
X301275Y308871D01*
X301291Y308818D01*
X301304Y308764D01*
X301313Y308710D01*
X301318Y308654D01*
X301320Y308599D01*
X301319Y308599D02*
X301319Y308388D01*
X301317Y308324D01*
X301311Y308260D01*
X301302Y308197D01*
X301288Y308135D01*
X301271Y308073D01*
X301250Y308013D01*
X301226Y307954D01*
X301198Y307896D01*
X301166Y307841D01*
X301132Y307787D01*
X301094Y307736D01*
X301053Y307686D01*
X301009Y307640D01*
X300963Y307596D01*
X300913Y307555D01*
X300862Y307517D01*
X300808Y307483D01*
X300753Y307451D01*
X300695Y307423D01*
X300636Y307399D01*
X300576Y307378D01*
X300514Y307361D01*
X300452Y307347D01*
X300389Y307338D01*
X300325Y307332D01*
X300261Y307330D01*
X300197Y307332D01*
X300133Y307338D01*
X300070Y307347D01*
X300008Y307361D01*
X299946Y307378D01*
X299886Y307399D01*
X299827Y307423D01*
X299769Y307451D01*
X299714Y307483D01*
X299660Y307517D01*
X299609Y307555D01*
X299559Y307596D01*
X299513Y307640D01*
X299469Y307686D01*
X299428Y307736D01*
X299390Y307787D01*
X299356Y307841D01*
X299324Y307896D01*
X299296Y307954D01*
X299272Y308013D01*
X299251Y308073D01*
X299234Y308135D01*
X299220Y308197D01*
X299211Y308260D01*
X299205Y308324D01*
X299203Y308388D01*
X299203Y309446D01*
X299205Y309527D01*
X299211Y309607D01*
X299220Y309687D01*
X299234Y309766D01*
X299251Y309845D01*
X299272Y309923D01*
X299296Y310000D01*
X299324Y310075D01*
X299356Y310149D01*
X299391Y310222D01*
X299430Y310292D01*
X299472Y310361D01*
X299517Y310428D01*
X299565Y310493D01*
X299617Y310555D01*
X299671Y310614D01*
X299728Y310671D01*
X299787Y310725D01*
X299849Y310777D01*
X299914Y310825D01*
X299981Y310870D01*
X300049Y310912D01*
X300120Y310951D01*
X300193Y310986D01*
X300267Y311018D01*
X300342Y311046D01*
X300419Y311070D01*
X300497Y311091D01*
X300576Y311108D01*
X300655Y311122D01*
X300735Y311131D01*
X300815Y311137D01*
X300896Y311139D01*
X125330Y305642D02*
X125330Y301832D01*
X125330Y305642D02*
X126388Y305642D01*
X126452Y305640D01*
X126516Y305634D01*
X126579Y305625D01*
X126641Y305611D01*
X126703Y305594D01*
X126763Y305573D01*
X126822Y305549D01*
X126880Y305521D01*
X126935Y305489D01*
X126989Y305455D01*
X127040Y305417D01*
X127090Y305376D01*
X127136Y305332D01*
X127180Y305286D01*
X127221Y305236D01*
X127259Y305185D01*
X127293Y305131D01*
X127325Y305076D01*
X127353Y305018D01*
X127377Y304959D01*
X127398Y304899D01*
X127415Y304837D01*
X127429Y304775D01*
X127438Y304712D01*
X127444Y304648D01*
X127446Y304584D01*
X127444Y304520D01*
X127438Y304456D01*
X127429Y304393D01*
X127415Y304331D01*
X127398Y304269D01*
X127377Y304209D01*
X127353Y304150D01*
X127325Y304092D01*
X127293Y304037D01*
X127259Y303983D01*
X127221Y303932D01*
X127180Y303882D01*
X127136Y303836D01*
X127090Y303792D01*
X127040Y303751D01*
X126989Y303713D01*
X126935Y303679D01*
X126880Y303647D01*
X126822Y303619D01*
X126763Y303595D01*
X126703Y303574D01*
X126641Y303557D01*
X126579Y303543D01*
X126516Y303534D01*
X126452Y303528D01*
X126388Y303526D01*
X126388Y303525D02*
X125330Y303525D01*
X126600Y303525D02*
X127447Y301832D01*
X128967Y305219D02*
X128967Y305642D01*
X131083Y305642D01*
X130025Y301832D01*
X92924Y301619D02*
X92924Y305429D01*
X93982Y305429D01*
X94046Y305427D01*
X94110Y305421D01*
X94173Y305412D01*
X94235Y305398D01*
X94297Y305381D01*
X94357Y305360D01*
X94416Y305336D01*
X94474Y305308D01*
X94529Y305276D01*
X94583Y305242D01*
X94634Y305204D01*
X94684Y305163D01*
X94730Y305119D01*
X94774Y305073D01*
X94815Y305023D01*
X94853Y304972D01*
X94887Y304918D01*
X94919Y304863D01*
X94947Y304805D01*
X94971Y304746D01*
X94992Y304686D01*
X95009Y304624D01*
X95023Y304562D01*
X95032Y304499D01*
X95038Y304435D01*
X95040Y304371D01*
X95038Y304307D01*
X95032Y304243D01*
X95023Y304180D01*
X95009Y304118D01*
X94992Y304056D01*
X94971Y303996D01*
X94947Y303937D01*
X94919Y303879D01*
X94887Y303824D01*
X94853Y303770D01*
X94815Y303719D01*
X94774Y303669D01*
X94730Y303623D01*
X94684Y303579D01*
X94634Y303538D01*
X94583Y303500D01*
X94529Y303466D01*
X94474Y303434D01*
X94416Y303406D01*
X94357Y303382D01*
X94297Y303361D01*
X94235Y303344D01*
X94173Y303330D01*
X94110Y303321D01*
X94046Y303315D01*
X93982Y303313D01*
X93982Y303312D02*
X92924Y303312D01*
X94194Y303312D02*
X95041Y301619D01*
X96561Y302677D02*
X96563Y302741D01*
X96569Y302805D01*
X96578Y302868D01*
X96592Y302930D01*
X96609Y302992D01*
X96630Y303052D01*
X96654Y303111D01*
X96682Y303169D01*
X96714Y303224D01*
X96748Y303278D01*
X96786Y303329D01*
X96827Y303379D01*
X96871Y303425D01*
X96917Y303469D01*
X96967Y303510D01*
X97018Y303548D01*
X97072Y303582D01*
X97127Y303614D01*
X97185Y303642D01*
X97244Y303666D01*
X97304Y303687D01*
X97366Y303704D01*
X97428Y303718D01*
X97491Y303727D01*
X97555Y303733D01*
X97619Y303735D01*
X97683Y303733D01*
X97747Y303727D01*
X97810Y303718D01*
X97872Y303704D01*
X97934Y303687D01*
X97994Y303666D01*
X98053Y303642D01*
X98111Y303614D01*
X98166Y303582D01*
X98220Y303548D01*
X98271Y303510D01*
X98321Y303469D01*
X98367Y303425D01*
X98411Y303379D01*
X98452Y303329D01*
X98490Y303278D01*
X98524Y303224D01*
X98556Y303169D01*
X98584Y303111D01*
X98608Y303052D01*
X98629Y302992D01*
X98646Y302930D01*
X98660Y302868D01*
X98669Y302805D01*
X98675Y302741D01*
X98677Y302677D01*
X98675Y302613D01*
X98669Y302549D01*
X98660Y302486D01*
X98646Y302424D01*
X98629Y302362D01*
X98608Y302302D01*
X98584Y302243D01*
X98556Y302185D01*
X98524Y302130D01*
X98490Y302076D01*
X98452Y302025D01*
X98411Y301975D01*
X98367Y301929D01*
X98321Y301885D01*
X98271Y301844D01*
X98220Y301806D01*
X98166Y301772D01*
X98111Y301740D01*
X98053Y301712D01*
X97994Y301688D01*
X97934Y301667D01*
X97872Y301650D01*
X97810Y301636D01*
X97747Y301627D01*
X97683Y301621D01*
X97619Y301619D01*
X97555Y301621D01*
X97491Y301627D01*
X97428Y301636D01*
X97366Y301650D01*
X97304Y301667D01*
X97244Y301688D01*
X97185Y301712D01*
X97127Y301740D01*
X97072Y301772D01*
X97018Y301806D01*
X96967Y301844D01*
X96917Y301885D01*
X96871Y301929D01*
X96827Y301975D01*
X96786Y302025D01*
X96748Y302076D01*
X96714Y302130D01*
X96682Y302185D01*
X96654Y302243D01*
X96630Y302302D01*
X96609Y302362D01*
X96592Y302424D01*
X96578Y302486D01*
X96569Y302549D01*
X96563Y302613D01*
X96561Y302677D01*
X96772Y304582D02*
X96774Y304639D01*
X96780Y304695D01*
X96789Y304751D01*
X96802Y304806D01*
X96819Y304860D01*
X96839Y304913D01*
X96863Y304964D01*
X96890Y305014D01*
X96921Y305061D01*
X96954Y305107D01*
X96991Y305150D01*
X97030Y305191D01*
X97072Y305229D01*
X97117Y305264D01*
X97163Y305296D01*
X97212Y305325D01*
X97262Y305350D01*
X97315Y305372D01*
X97368Y305391D01*
X97423Y305406D01*
X97478Y305417D01*
X97534Y305425D01*
X97591Y305429D01*
X97647Y305429D01*
X97704Y305425D01*
X97760Y305417D01*
X97815Y305406D01*
X97870Y305391D01*
X97923Y305372D01*
X97976Y305350D01*
X98026Y305325D01*
X98075Y305296D01*
X98121Y305264D01*
X98166Y305229D01*
X98208Y305191D01*
X98247Y305150D01*
X98284Y305107D01*
X98317Y305061D01*
X98348Y305014D01*
X98375Y304964D01*
X98399Y304913D01*
X98419Y304860D01*
X98436Y304806D01*
X98449Y304751D01*
X98458Y304695D01*
X98464Y304639D01*
X98466Y304582D01*
X98464Y304525D01*
X98458Y304469D01*
X98449Y304413D01*
X98436Y304358D01*
X98419Y304304D01*
X98399Y304251D01*
X98375Y304200D01*
X98348Y304150D01*
X98317Y304103D01*
X98284Y304057D01*
X98247Y304014D01*
X98208Y303973D01*
X98166Y303935D01*
X98121Y303900D01*
X98075Y303868D01*
X98026Y303839D01*
X97976Y303814D01*
X97923Y303792D01*
X97870Y303773D01*
X97815Y303758D01*
X97760Y303747D01*
X97704Y303739D01*
X97647Y303735D01*
X97591Y303735D01*
X97534Y303739D01*
X97478Y303747D01*
X97423Y303758D01*
X97368Y303773D01*
X97315Y303792D01*
X97262Y303814D01*
X97212Y303839D01*
X97163Y303868D01*
X97117Y303900D01*
X97072Y303935D01*
X97030Y303973D01*
X96991Y304014D01*
X96954Y304057D01*
X96921Y304103D01*
X96890Y304150D01*
X96863Y304200D01*
X96839Y304251D01*
X96819Y304304D01*
X96802Y304358D01*
X96789Y304413D01*
X96780Y304469D01*
X96774Y304525D01*
X96772Y304582D01*
X85532Y220603D02*
X85532Y216793D01*
X85532Y220603D02*
X86590Y220603D01*
X86654Y220601D01*
X86718Y220595D01*
X86781Y220586D01*
X86843Y220572D01*
X86905Y220555D01*
X86965Y220534D01*
X87024Y220510D01*
X87082Y220482D01*
X87137Y220450D01*
X87191Y220416D01*
X87242Y220378D01*
X87292Y220337D01*
X87338Y220293D01*
X87382Y220247D01*
X87423Y220197D01*
X87461Y220146D01*
X87495Y220092D01*
X87527Y220037D01*
X87555Y219979D01*
X87579Y219920D01*
X87600Y219860D01*
X87617Y219798D01*
X87631Y219736D01*
X87640Y219673D01*
X87646Y219609D01*
X87648Y219545D01*
X87646Y219481D01*
X87640Y219417D01*
X87631Y219354D01*
X87617Y219292D01*
X87600Y219230D01*
X87579Y219170D01*
X87555Y219111D01*
X87527Y219053D01*
X87495Y218998D01*
X87461Y218944D01*
X87423Y218893D01*
X87382Y218843D01*
X87338Y218797D01*
X87292Y218753D01*
X87242Y218712D01*
X87191Y218674D01*
X87137Y218640D01*
X87082Y218608D01*
X87024Y218580D01*
X86965Y218556D01*
X86905Y218535D01*
X86843Y218518D01*
X86781Y218504D01*
X86718Y218495D01*
X86654Y218489D01*
X86590Y218487D01*
X86590Y218486D02*
X85532Y218486D01*
X86802Y218486D02*
X87648Y216793D01*
X90015Y218486D02*
X91285Y218486D01*
X90015Y218486D02*
X89960Y218488D01*
X89904Y218493D01*
X89850Y218502D01*
X89796Y218515D01*
X89743Y218531D01*
X89691Y218550D01*
X89640Y218573D01*
X89592Y218599D01*
X89544Y218629D01*
X89499Y218661D01*
X89457Y218696D01*
X89416Y218734D01*
X89378Y218775D01*
X89343Y218817D01*
X89311Y218862D01*
X89281Y218910D01*
X89255Y218958D01*
X89232Y219009D01*
X89213Y219061D01*
X89197Y219114D01*
X89184Y219168D01*
X89175Y219222D01*
X89170Y219278D01*
X89168Y219333D01*
X89168Y219545D01*
X89169Y219545D02*
X89171Y219609D01*
X89177Y219673D01*
X89186Y219736D01*
X89200Y219798D01*
X89217Y219860D01*
X89238Y219920D01*
X89262Y219979D01*
X89290Y220037D01*
X89322Y220092D01*
X89356Y220146D01*
X89394Y220197D01*
X89435Y220247D01*
X89479Y220293D01*
X89525Y220337D01*
X89575Y220378D01*
X89626Y220416D01*
X89680Y220450D01*
X89735Y220482D01*
X89793Y220510D01*
X89852Y220534D01*
X89912Y220555D01*
X89974Y220572D01*
X90036Y220586D01*
X90099Y220595D01*
X90163Y220601D01*
X90227Y220603D01*
X90291Y220601D01*
X90355Y220595D01*
X90418Y220586D01*
X90480Y220572D01*
X90542Y220555D01*
X90602Y220534D01*
X90661Y220510D01*
X90719Y220482D01*
X90774Y220450D01*
X90828Y220416D01*
X90879Y220378D01*
X90929Y220337D01*
X90975Y220293D01*
X91019Y220247D01*
X91060Y220197D01*
X91098Y220146D01*
X91132Y220092D01*
X91164Y220037D01*
X91192Y219979D01*
X91216Y219920D01*
X91237Y219860D01*
X91254Y219798D01*
X91268Y219736D01*
X91277Y219673D01*
X91283Y219609D01*
X91285Y219545D01*
X91285Y218486D01*
X91283Y218405D01*
X91277Y218325D01*
X91268Y218245D01*
X91254Y218166D01*
X91237Y218087D01*
X91216Y218009D01*
X91192Y217932D01*
X91164Y217857D01*
X91132Y217783D01*
X91097Y217710D01*
X91058Y217640D01*
X91016Y217571D01*
X90971Y217504D01*
X90923Y217439D01*
X90871Y217377D01*
X90817Y217318D01*
X90760Y217261D01*
X90701Y217207D01*
X90639Y217155D01*
X90574Y217107D01*
X90507Y217062D01*
X90439Y217020D01*
X90368Y216981D01*
X90295Y216946D01*
X90221Y216914D01*
X90146Y216886D01*
X90069Y216862D01*
X89991Y216841D01*
X89912Y216824D01*
X89833Y216810D01*
X89753Y216801D01*
X89673Y216795D01*
X89592Y216793D01*
D67*
X104400Y14150D02*
X174400Y14150D01*
X94400Y31900D02*
X94400Y56650D01*
X104400Y56650D01*
X174400Y56650D02*
X184400Y56650D01*
X184400Y31900D01*
D61*
X306010Y318860D02*
X306012Y318889D01*
X306018Y318917D01*
X306027Y318944D01*
X306041Y318969D01*
X306057Y318993D01*
X306077Y319013D01*
X306099Y319032D01*
X306123Y319046D01*
X306150Y319058D01*
X306177Y319066D01*
X306206Y319070D01*
X306234Y319070D01*
X306263Y319066D01*
X306290Y319058D01*
X306317Y319046D01*
X306341Y319032D01*
X306363Y319013D01*
X306383Y318993D01*
X306399Y318969D01*
X306413Y318944D01*
X306422Y318917D01*
X306428Y318889D01*
X306430Y318860D01*
X306428Y318831D01*
X306422Y318803D01*
X306413Y318776D01*
X306399Y318751D01*
X306383Y318727D01*
X306363Y318707D01*
X306341Y318688D01*
X306317Y318674D01*
X306290Y318662D01*
X306263Y318654D01*
X306234Y318650D01*
X306206Y318650D01*
X306177Y318654D01*
X306150Y318662D01*
X306123Y318674D01*
X306099Y318688D01*
X306077Y318707D01*
X306057Y318727D01*
X306041Y318751D01*
X306027Y318776D01*
X306018Y318803D01*
X306012Y318831D01*
X306010Y318860D01*
D60*
X288175Y330507D02*
X286905Y332306D01*
X288175Y330507D02*
X289445Y332306D01*
X288175Y330507D02*
X288175Y328496D01*
X290774Y331459D02*
X291833Y332306D01*
X291833Y328496D01*
X292891Y328496D02*
X290774Y328496D01*
D66*
X146000Y102000D03*
D61*
X145998Y102044D01*
X145992Y102087D01*
X145983Y102129D01*
X145970Y102171D01*
X145953Y102211D01*
X145933Y102250D01*
X145910Y102287D01*
X145883Y102321D01*
X145854Y102354D01*
X145821Y102383D01*
X145787Y102410D01*
X145750Y102433D01*
X145711Y102453D01*
X145671Y102470D01*
X145629Y102483D01*
X145587Y102492D01*
X145544Y102498D01*
X145500Y102500D01*
X145456Y102498D01*
X145413Y102492D01*
X145371Y102483D01*
X145329Y102470D01*
X145289Y102453D01*
X145250Y102433D01*
X145213Y102410D01*
X145179Y102383D01*
X145146Y102354D01*
X145117Y102321D01*
X145090Y102287D01*
X145067Y102250D01*
X145047Y102211D01*
X145030Y102171D01*
X145017Y102129D01*
X145008Y102087D01*
X145002Y102044D01*
X145000Y102000D01*
D66*
X145000Y102000D03*
D61*
X145002Y101956D01*
X145008Y101913D01*
X145017Y101871D01*
X145030Y101829D01*
X145047Y101789D01*
X145067Y101750D01*
X145090Y101713D01*
X145117Y101679D01*
X145146Y101646D01*
X145179Y101617D01*
X145213Y101590D01*
X145250Y101567D01*
X145289Y101547D01*
X145329Y101530D01*
X145371Y101517D01*
X145413Y101508D01*
X145456Y101502D01*
X145500Y101500D01*
X145544Y101502D01*
X145587Y101508D01*
X145629Y101517D01*
X145671Y101530D01*
X145711Y101547D01*
X145750Y101567D01*
X145787Y101590D01*
X145821Y101617D01*
X145854Y101646D01*
X145883Y101679D01*
X145910Y101713D01*
X145933Y101750D01*
X145953Y101789D01*
X145970Y101829D01*
X145983Y101871D01*
X145992Y101913D01*
X145998Y101956D01*
X146000Y102000D01*
D66*
X146000Y102000D03*
D61*
X145998Y102044D01*
X145992Y102087D01*
X145983Y102129D01*
X145970Y102171D01*
X145953Y102211D01*
X145933Y102250D01*
X145910Y102287D01*
X145883Y102321D01*
X145854Y102354D01*
X145821Y102383D01*
X145787Y102410D01*
X145750Y102433D01*
X145711Y102453D01*
X145671Y102470D01*
X145629Y102483D01*
X145587Y102492D01*
X145544Y102498D01*
X145500Y102500D01*
X145456Y102498D01*
X145413Y102492D01*
X145371Y102483D01*
X145329Y102470D01*
X145289Y102453D01*
X145250Y102433D01*
X145213Y102410D01*
X145179Y102383D01*
X145146Y102354D01*
X145117Y102321D01*
X145090Y102287D01*
X145067Y102250D01*
X145047Y102211D01*
X145030Y102171D01*
X145017Y102129D01*
X145008Y102087D01*
X145002Y102044D01*
X145000Y102000D01*
D60*
X115192Y93499D02*
X113922Y95298D01*
X115192Y93499D02*
X116462Y95298D01*
X115192Y93499D02*
X115192Y91488D01*
X118955Y95299D02*
X119015Y95297D01*
X119074Y95291D01*
X119134Y95282D01*
X119192Y95269D01*
X119249Y95252D01*
X119306Y95232D01*
X119361Y95208D01*
X119414Y95181D01*
X119466Y95151D01*
X119515Y95117D01*
X119562Y95080D01*
X119607Y95041D01*
X119650Y94998D01*
X119689Y94953D01*
X119726Y94906D01*
X119760Y94857D01*
X119790Y94805D01*
X119817Y94752D01*
X119841Y94697D01*
X119861Y94640D01*
X119878Y94583D01*
X119891Y94525D01*
X119900Y94465D01*
X119906Y94406D01*
X119908Y94346D01*
X118955Y95299D02*
X118888Y95297D01*
X118821Y95292D01*
X118755Y95283D01*
X118689Y95270D01*
X118625Y95254D01*
X118561Y95234D01*
X118498Y95210D01*
X118436Y95184D01*
X118377Y95154D01*
X118319Y95121D01*
X118262Y95084D01*
X118208Y95045D01*
X118156Y95003D01*
X118107Y94958D01*
X118060Y94910D01*
X118016Y94860D01*
X117974Y94807D01*
X117936Y94752D01*
X117900Y94696D01*
X117868Y94637D01*
X117839Y94577D01*
X117813Y94515D01*
X117791Y94452D01*
X119590Y93605D02*
X119631Y93647D01*
X119670Y93692D01*
X119707Y93738D01*
X119741Y93787D01*
X119772Y93837D01*
X119799Y93889D01*
X119824Y93943D01*
X119846Y93998D01*
X119865Y94054D01*
X119880Y94111D01*
X119892Y94169D01*
X119900Y94228D01*
X119905Y94287D01*
X119907Y94346D01*
X119590Y93605D02*
X117791Y91488D01*
X119908Y91488D01*
D62*
X6710Y80500D02*
X6710Y159500D01*
X14570Y159500D01*
X14570Y80500D02*
X6710Y80500D01*
D66*
X68160Y134000D03*
D61*
X68098Y133998D01*
X68037Y133992D01*
X67976Y133983D01*
X67916Y133970D01*
X67857Y133953D01*
X67799Y133932D01*
X67742Y133908D01*
X67687Y133881D01*
X67634Y133850D01*
X67582Y133816D01*
X67533Y133779D01*
X67486Y133739D01*
X67442Y133696D01*
X67401Y133651D01*
X67362Y133603D01*
X67326Y133552D01*
X67294Y133500D01*
X67265Y133446D01*
X67239Y133390D01*
X67217Y133332D01*
X67198Y133274D01*
X67183Y133214D01*
X67172Y133153D01*
X67164Y133092D01*
X67160Y133031D01*
X67160Y132969D01*
X67164Y132908D01*
X67172Y132847D01*
X67183Y132786D01*
X67198Y132726D01*
X67217Y132668D01*
X67239Y132610D01*
X67265Y132554D01*
X67294Y132500D01*
X67326Y132448D01*
X67362Y132397D01*
X67401Y132349D01*
X67442Y132304D01*
X67486Y132261D01*
X67533Y132221D01*
X67582Y132184D01*
X67634Y132150D01*
X67687Y132119D01*
X67742Y132092D01*
X67799Y132068D01*
X67857Y132047D01*
X67916Y132030D01*
X67976Y132017D01*
X68037Y132008D01*
X68098Y132002D01*
X68160Y132000D01*
D66*
X68160Y132000D03*
D61*
X68222Y132002D01*
X68283Y132008D01*
X68344Y132017D01*
X68404Y132030D01*
X68463Y132047D01*
X68521Y132068D01*
X68578Y132092D01*
X68633Y132119D01*
X68686Y132150D01*
X68738Y132184D01*
X68787Y132221D01*
X68834Y132261D01*
X68878Y132304D01*
X68919Y132349D01*
X68958Y132397D01*
X68994Y132448D01*
X69026Y132500D01*
X69055Y132554D01*
X69081Y132610D01*
X69103Y132668D01*
X69122Y132726D01*
X69137Y132786D01*
X69148Y132847D01*
X69156Y132908D01*
X69160Y132969D01*
X69160Y133031D01*
X69156Y133092D01*
X69148Y133153D01*
X69137Y133214D01*
X69122Y133274D01*
X69103Y133332D01*
X69081Y133390D01*
X69055Y133446D01*
X69026Y133500D01*
X68994Y133552D01*
X68958Y133603D01*
X68919Y133651D01*
X68878Y133696D01*
X68834Y133739D01*
X68787Y133779D01*
X68738Y133816D01*
X68686Y133850D01*
X68633Y133881D01*
X68578Y133908D01*
X68521Y133932D01*
X68463Y133953D01*
X68404Y133970D01*
X68344Y133983D01*
X68283Y133992D01*
X68222Y133998D01*
X68160Y134000D01*
X268120Y75500D02*
X294250Y75500D01*
X285880Y88500D02*
X268120Y88500D01*
D68*
X271849Y103158D02*
X271849Y114842D01*
X275095Y114842D01*
X275208Y114840D01*
X275321Y114834D01*
X275434Y114824D01*
X275547Y114810D01*
X275659Y114793D01*
X275770Y114771D01*
X275880Y114746D01*
X275990Y114716D01*
X276098Y114683D01*
X276205Y114646D01*
X276311Y114606D01*
X276415Y114561D01*
X276518Y114513D01*
X276619Y114462D01*
X276718Y114407D01*
X276815Y114349D01*
X276910Y114287D01*
X277003Y114222D01*
X277093Y114154D01*
X277181Y114083D01*
X277267Y114008D01*
X277350Y113931D01*
X277430Y113851D01*
X277507Y113768D01*
X277582Y113682D01*
X277653Y113594D01*
X277721Y113504D01*
X277786Y113411D01*
X277848Y113316D01*
X277906Y113219D01*
X277961Y113120D01*
X278012Y113019D01*
X278060Y112916D01*
X278105Y112812D01*
X278145Y112706D01*
X278182Y112599D01*
X278215Y112491D01*
X278245Y112381D01*
X278270Y112271D01*
X278292Y112160D01*
X278309Y112048D01*
X278323Y111935D01*
X278333Y111822D01*
X278339Y111709D01*
X278341Y111596D01*
X278340Y111596D02*
X278340Y106404D01*
X278341Y106404D02*
X278339Y106291D01*
X278333Y106178D01*
X278323Y106065D01*
X278309Y105952D01*
X278292Y105840D01*
X278270Y105729D01*
X278245Y105619D01*
X278215Y105509D01*
X278182Y105401D01*
X278145Y105294D01*
X278105Y105188D01*
X278060Y105084D01*
X278012Y104981D01*
X277961Y104880D01*
X277906Y104781D01*
X277848Y104684D01*
X277786Y104589D01*
X277721Y104496D01*
X277653Y104406D01*
X277582Y104318D01*
X277507Y104232D01*
X277430Y104149D01*
X277350Y104069D01*
X277267Y103992D01*
X277181Y103917D01*
X277093Y103846D01*
X277003Y103778D01*
X276910Y103713D01*
X276815Y103651D01*
X276718Y103593D01*
X276619Y103538D01*
X276518Y103487D01*
X276415Y103439D01*
X276311Y103394D01*
X276205Y103354D01*
X276098Y103317D01*
X275990Y103284D01*
X275880Y103254D01*
X275770Y103229D01*
X275659Y103207D01*
X275547Y103190D01*
X275434Y103176D01*
X275321Y103166D01*
X275208Y103160D01*
X275095Y103158D01*
X271849Y103158D01*
X287230Y114842D02*
X287337Y114840D01*
X287443Y114834D01*
X287549Y114824D01*
X287655Y114811D01*
X287761Y114793D01*
X287865Y114772D01*
X287969Y114747D01*
X288072Y114718D01*
X288173Y114686D01*
X288273Y114649D01*
X288372Y114609D01*
X288470Y114566D01*
X288566Y114519D01*
X288660Y114468D01*
X288752Y114414D01*
X288842Y114357D01*
X288930Y114297D01*
X289015Y114233D01*
X289098Y114166D01*
X289179Y114096D01*
X289257Y114024D01*
X289333Y113948D01*
X289405Y113870D01*
X289475Y113789D01*
X289542Y113706D01*
X289606Y113621D01*
X289666Y113533D01*
X289723Y113443D01*
X289777Y113351D01*
X289828Y113257D01*
X289875Y113161D01*
X289918Y113063D01*
X289958Y112964D01*
X289995Y112864D01*
X290027Y112763D01*
X290056Y112660D01*
X290081Y112556D01*
X290102Y112452D01*
X290120Y112346D01*
X290133Y112240D01*
X290143Y112134D01*
X290149Y112028D01*
X290151Y111921D01*
X287230Y114842D02*
X287109Y114840D01*
X286988Y114834D01*
X286868Y114824D01*
X286747Y114811D01*
X286628Y114793D01*
X286508Y114772D01*
X286390Y114747D01*
X286273Y114718D01*
X286156Y114685D01*
X286041Y114649D01*
X285927Y114608D01*
X285814Y114565D01*
X285702Y114517D01*
X285593Y114466D01*
X285485Y114411D01*
X285378Y114353D01*
X285274Y114292D01*
X285172Y114227D01*
X285072Y114159D01*
X284974Y114088D01*
X284878Y114014D01*
X284785Y113937D01*
X284695Y113856D01*
X284607Y113773D01*
X284522Y113687D01*
X284439Y113598D01*
X284360Y113507D01*
X284283Y113413D01*
X284210Y113317D01*
X284140Y113219D01*
X284073Y113118D01*
X284009Y113015D01*
X283949Y112910D01*
X283892Y112803D01*
X283838Y112695D01*
X283788Y112585D01*
X283742Y112473D01*
X283699Y112360D01*
X283660Y112245D01*
X289178Y109649D02*
X289257Y109726D01*
X289333Y109807D01*
X289406Y109890D01*
X289476Y109975D01*
X289543Y110063D01*
X289607Y110153D01*
X289667Y110245D01*
X289724Y110340D01*
X289778Y110436D01*
X289829Y110534D01*
X289876Y110634D01*
X289920Y110736D01*
X289960Y110839D01*
X289996Y110943D01*
X290028Y111049D01*
X290057Y111155D01*
X290082Y111263D01*
X290104Y111371D01*
X290121Y111481D01*
X290135Y111590D01*
X290144Y111700D01*
X290150Y111811D01*
X290152Y111921D01*
X289177Y109649D02*
X283660Y103158D01*
X290151Y103158D01*
M02*
