G04 EAGLE Gerber RS-274X export*
G75*
%MOMM*%
%FSLAX34Y34*%
%LPD*%
%INSolderpaste Top*%
%IPPOS*%
%AMOC8*
5,1,8,0,0,1.08239X$1,22.5*%
G01*
%ADD10R,1.100000X1.000000*%
%ADD11R,1.000000X1.100000*%
%ADD12R,0.700000X1.050000*%
%ADD13R,0.600000X1.250000*%
%ADD14R,0.500000X0.300000*%
%ADD15R,0.300000X0.500000*%
%ADD16R,0.450000X1.475000*%
%ADD17R,0.635000X1.270000*%
%ADD18R,0.300000X1.450000*%
%ADD19R,1.450000X0.300000*%
%ADD20R,4.300000X1.600000*%
%ADD21R,0.700000X0.500000*%
%ADD22R,1.050000X0.500000*%
%ADD23R,0.900000X0.600000*%
%ADD24R,0.600000X1.550000*%
%ADD25R,1.200000X1.800000*%
%ADD26R,1.200000X1.400000*%
%ADD27R,1.300000X1.100000*%
%ADD28R,1.350000X0.400000*%
%ADD29R,1.600000X2.100000*%
%ADD30R,1.900000X1.900000*%
%ADD31R,1.125000X0.500000*%


D10*
X342500Y189500D03*
X359500Y189500D03*
X248500Y237500D03*
X231500Y237500D03*
D11*
X320000Y258500D03*
X320000Y241500D03*
D10*
X298500Y255000D03*
X281500Y255000D03*
D11*
X153000Y324000D03*
X153000Y341000D03*
D10*
X263500Y260000D03*
X246500Y260000D03*
X281500Y277500D03*
X298500Y277500D03*
X231500Y360000D03*
X248500Y360000D03*
D11*
X128858Y316044D03*
X128858Y333044D03*
D10*
X198500Y260000D03*
X181500Y260000D03*
X191000Y100000D03*
X208000Y100000D03*
X340000Y132043D03*
X357000Y132043D03*
X118500Y265000D03*
X101500Y265000D03*
D11*
X85000Y136000D03*
X85000Y119000D03*
X247500Y213500D03*
X247500Y196500D03*
D10*
X88500Y232500D03*
X71500Y232500D03*
D11*
X85000Y151500D03*
X85000Y168500D03*
D10*
X173500Y100000D03*
X156500Y100000D03*
D11*
X214500Y59500D03*
X214500Y76500D03*
X317000Y117500D03*
X317000Y134500D03*
X238000Y59500D03*
X238000Y76500D03*
D10*
X304000Y68500D03*
X321000Y68500D03*
D11*
X317000Y103000D03*
X317000Y86000D03*
X320000Y223500D03*
X320000Y206500D03*
D12*
X268500Y166000D03*
X287500Y166000D03*
X278000Y189000D03*
D13*
X358500Y112500D03*
X349000Y112500D03*
X339500Y112500D03*
X339500Y87500D03*
X349000Y87500D03*
X358500Y87500D03*
D14*
X268000Y237500D03*
X268000Y232500D03*
X268000Y227500D03*
X268000Y222500D03*
X268000Y217500D03*
D15*
X275000Y215500D03*
X280000Y215500D03*
X285000Y215500D03*
D14*
X292000Y217500D03*
X292000Y222500D03*
X292000Y227500D03*
X292000Y232500D03*
X292000Y237500D03*
D15*
X285000Y239500D03*
X280000Y239500D03*
X275000Y239500D03*
D16*
X262250Y339380D03*
X255750Y339380D03*
X249250Y339380D03*
X242750Y339380D03*
X236250Y339380D03*
X229750Y339380D03*
X223250Y339380D03*
X216750Y339380D03*
X210250Y339380D03*
X203750Y339380D03*
X197250Y339380D03*
X190750Y339380D03*
X184250Y339380D03*
X177750Y339380D03*
X177750Y280620D03*
X184250Y280620D03*
X190750Y280620D03*
X197250Y280620D03*
X203750Y280620D03*
X210250Y280620D03*
X216750Y280620D03*
X223250Y280620D03*
X229750Y280620D03*
X236250Y280620D03*
X242750Y280620D03*
X249250Y280620D03*
X255750Y280620D03*
X262250Y280620D03*
D17*
X245400Y310000D03*
D18*
X127500Y127500D03*
X132500Y127500D03*
X137500Y127500D03*
X142500Y127500D03*
X147500Y127500D03*
X152500Y127500D03*
X157500Y127500D03*
X162500Y127500D03*
X167500Y127500D03*
X172500Y127500D03*
X177500Y127500D03*
X182500Y127500D03*
X187500Y127500D03*
X192500Y127500D03*
X197500Y127500D03*
X202500Y127500D03*
D19*
X222500Y147500D03*
X222500Y152500D03*
X222500Y157500D03*
X222500Y162500D03*
X222500Y167500D03*
X222500Y172500D03*
X222500Y177500D03*
X222500Y182500D03*
X222500Y187500D03*
X222500Y192500D03*
X222500Y197500D03*
X222500Y202500D03*
X222500Y207500D03*
X222500Y212500D03*
X222500Y217500D03*
X222500Y222500D03*
D18*
X202500Y242500D03*
X197500Y242500D03*
X192500Y242500D03*
X187500Y242500D03*
X182500Y242500D03*
X177500Y242500D03*
X172500Y242500D03*
X167500Y242500D03*
X162500Y242500D03*
X157500Y242500D03*
X152500Y242500D03*
X147500Y242500D03*
X142500Y242500D03*
X137500Y242500D03*
X132500Y242500D03*
X127500Y242500D03*
D19*
X107500Y222500D03*
X107500Y217500D03*
X107500Y212500D03*
X107500Y207500D03*
X107500Y202500D03*
X107500Y197500D03*
X107500Y192500D03*
X107500Y187500D03*
X107500Y182500D03*
X107500Y177500D03*
X107500Y172500D03*
X107500Y167500D03*
X107500Y162500D03*
X107500Y157500D03*
X107500Y152500D03*
X107500Y147500D03*
D20*
X281000Y113500D03*
X281000Y140500D03*
D21*
X45580Y220000D03*
D22*
X34420Y220000D03*
D21*
X46450Y190000D03*
D22*
X35300Y190000D03*
D23*
X357000Y150500D03*
X357000Y160000D03*
X357000Y169500D03*
X329000Y169500D03*
X329000Y150500D03*
D10*
X308500Y180500D03*
X308500Y163500D03*
D11*
X88500Y187500D03*
X71500Y187500D03*
X135283Y264392D03*
X152283Y264392D03*
D10*
X238000Y93500D03*
X238000Y110500D03*
X286000Y38500D03*
X286000Y55500D03*
X262500Y56000D03*
X262500Y39000D03*
D11*
X161500Y360000D03*
X178500Y360000D03*
X281500Y300000D03*
X298500Y300000D03*
X111500Y295000D03*
X128500Y295000D03*
X79000Y295000D03*
X96000Y295000D03*
X88500Y210000D03*
X71500Y210000D03*
D24*
X109400Y59900D03*
X119400Y59900D03*
X129400Y59900D03*
X139400Y59900D03*
X149400Y59900D03*
X159400Y59900D03*
X169400Y59900D03*
D25*
X96400Y21150D03*
X182400Y21150D03*
D26*
X298000Y319000D03*
X298000Y341000D03*
X282000Y341000D03*
X282000Y319000D03*
D27*
X128500Y102000D03*
X105500Y102000D03*
X105500Y84000D03*
X128500Y84000D03*
D28*
X54320Y133000D03*
X54320Y126500D03*
X54320Y120000D03*
X54320Y113500D03*
X54320Y107000D03*
D29*
X53070Y151000D03*
X53070Y89000D03*
D30*
X27570Y132000D03*
X27570Y108000D03*
X27570Y158000D03*
X27570Y82000D03*
D31*
X288620Y82000D03*
X265380Y82000D03*
M02*
